<ttFont>
          <CharString index="0">
            rmoveto
            -70 callgsubr
            2 callgsubr
            hvcurveto
            -449 -258 rmoveto
            41 17 46 35 43 vhcurveto
            46 -10 39 -14 31 -17 -54 -30 -56 -35 -58 -34 rrcurveto
            10 vlineto
            153 -123 rmoveto
            -84 -48 35 50 -16 hvcurveto
            69 37 61 42 55 34 rrcurveto
            51 -35 25 -43 -45 vvcurveto
            -21 -5 -21 -10 -20 vhcurveto
            -8 -30 -33 -5 -35 hhcurveto
            300 203 rmoveto
            -61 -71 -87 -113 -36 vhcurveto
            8 18 4 20 19 vvcurveto
            48 -25 46 -52 37 vhcurveto
            36 60 53 26 47 hhcurveto
            62 27 -28 -38 hvcurveto
            291 506 rmoveto
            -73 -208 -136 -234 -24 vhcurveto
            111 2 179 168 161 hhcurveto
            70 30 -18 -28 hvcurveto
            -716 -60 rmoveto
            -12 -11 0 1 -11 hvcurveto
            hintmask 1100010011111111
            124 12 145 146 189 hhcurveto
            75 32 -22 -32 -79 -196 -138 -223 hvcurveto
            -151 -379 rmoveto
            51 45 -4 -6 41 hvcurveto
            -42 -47 -22 -51 -44 vvcurveto
            -11 1 -10 3 -10 vhcurveto
            -50 -91 -95 -39 -94 hhcurveto
            -96 -53 46 54 78 109 94 243 hvcurveto
            185 -5 rmoveto
            54 61 87 53 119 23 rrcurveto
            hintmask 1001001011111111
            -22 28 39 -12 52 hhcurveto
            46 39 20 17 11 -18 10 -46 -48 -45 -4 -7 -42 hvcurveto
            -14 13 -8 16 -3 18 rrcurveto
            247 27 221 146 81 vvcurveto
            32 -35 22 -82 -248 -131 -148 -117 -11 1 -10 2 -10 vhcurveto
            hintmask 1010001011111111
            -1 -15 -15 0 -14 hhcurveto
            -170 -70 73 87 hvcurveto
            5 27 vlineto
            261 183 145 89 hvcurveto
            hintmask 1100010101111111
            40 -36 28 -82 -204 -152 -154 -134 -15 vhcurveto
            -118 13 -49 61 70 vvcurveto
            106 112 128 154 26 vhcurveto
            -3 15 rlineto
            -176 -35 -121 -133 -110 vvcurveto
            -76 59 -66 141 -12 vhcurveto
            -9 vlineto
            -94 72 -79 176 20 19 0 2 20 vhcurveto
            6 -17 10 -17 14 -13 -127 -25 -97 -53 -61 -62 rrcurveto
            7 -39 -44 3 -48 hhcurveto
            -277 -119 -103 -84 -59 58 -49 102 114 101 33 43 89 hvcurveto
            -45 24 58 -32 97 hhcurveto
            35 33 4 6 31 hvcurveto
            -43 -67 -98 -62 -153 -34 1 -13 rcurveline
            166 34 105 71 41 76 rrcurveto
            143 35 89 95 70 vvcurveto
            45 -38 35 -85 -57 -62 -25 -36 -67 vhcurveto
            -32 19 -40 16 -49 10 rrcurveto
            endchar
          </CharString>
          <CharString index="1">
            27 -18 17 -40 -177 -196 -154 -172 -129 vhcurveto
            -102 23 -43 70 82 vvcurveto
            11 1 13 1 12 vhcurveto
            -2 15 15 0 17 hhcurveto
            263 186 177 108 47 -36 35 -81 -201 -164 -186 -165 -31 hvcurveto
            -104 19 -44 60 70 vvcurveto
            112 112 135 154 26 vhcurveto
            -3 15 rlineto
            -176 -35 -121 -140 -115 vvcurveto
            -77 54 -66 126 -16 vhcurveto
            -2 -15 -1 -13 -14 vvcurveto
            -89 45 -74 108 -24 vhcurveto
            -79 -110 -50 -115 -86 vvcurveto
            -81 45 -54 107 288 488 550 217 53 -29 33 -69 -57 -75 -31 -12 -7 15 -4 0 vhcurveto
            23 24 63 20 26 hhcurveto
            57 25 -27 -46 -203 -487 -553 -261 -87 -35 41 62 hvcurveto
            endchar
          </CharString>
          <CharString index="2">
            123 156 179 178 78 35 -30 -41 -94 -179 -154 -253 vhcurveto
            148 471 rmoveto
            -232 -39 -146 -164 -126 vvcurveto
            -79 58 -65 130 -10 vhcurveto
            -56 16 54 -41 102 hhcurveto
            144 162 121 36 41 hvcurveto
            -6 8 rlineto
            return
          </CharString>
          <CharString index="3">
            -105 callgsubr
            -573 -836 rmoveto
            93 10 64 66 51 vvcurveto
            return
          </CharString>
          <CharString index="4">
            rmoveto
            -14 callgsubr
            -56 -50 -4 -8 -46 hvcurveto
            72 42 78 60 96 hhcurveto
            -348 -379 rmoveto
            -88 -40 29 38 56 86 76 150 33 hvcurveto
            -17 -34 -9 -37 -34 vvcurveto
            -42 13 -38 30 -26 vhcurveto
            -13 -40 -42 -8 -43 hhcurveto
            259 -7 rmoveto
            -42 -33 9 14 -24 hvcurveto
            130 42 98 87 45 80 65 -21 48 -33 28 -38 rrcurveto
            -83 -90 -102 -57 -123 hhcurveto
            hintmask 1101011110000000
            -161 137 rmoveto
            34 10 37 18 35 vhcurveto
            8 43 47 5 52 hhcurveto
            50 46 -6 -9 39 hvcurveto
            -45 -77 -98 -88 -117 -43 rrcurveto
            -31 25 -14 38 41 vvcurveto
            1158 632 rmoveto
            37 16 -14 -23 -84 -217 -199 -237 -56 hvcurveto
            141 189 114 185 146 2 rrcurveto
            -522 -391 rmoveto
            -152 -69 83 94 119 113 135 199 21 21 -2 -3 23 hvcurveto
            5 14 rlineto
            3 -22 -21 1 -20 hhcurveto
            -217 -123 -146 -126 hvcurveto
            hintmask 1011101110000000
            -98 73 -86 161 15 15 1 1 14 vhcurveto
            -56 -75 -58 -74 -63 -62 -35 37 -51 32 -67 19 rrcurveto
            -56 callgsubr
            47 -31 33 -70 -115 -87 -68 -81 -44 vhcurveto
            -174 -33 -90 -80 -62 vvcurveto
            -45 48 -35 99 50 47 8 12 45 vhcurveto
            -18 26 37 -11 47 hhcurveto
            135 112 49 73 97 hvcurveto
            9 -20 5 -21 -21 vvcurveto
            -93 -92 -96 -195 -31 vhcurveto
            -11 vlineto
            224 34 98 98 96 vvcurveto
            28 -9 29 -17 26 vhcurveto
            87 71 74 90 67 90 rrcurveto
            264 52 215 211 94 vvcurveto
            27 -19 18 -41 -196 -139 -198 -202 -148 vhcurveto
            -2 -16 -15 0 -15 hhcurveto
            endchar
          </CharString>
          <CharString index="5">
            rmoveto
            -3 -4 -1 13 callsubr
            -28 -23 -102 -83 -56 vvcurveto
            -18 8 -8 14 32 68 41 61 94 vhcurveto
            -29 -30 -25 -34 -27 vvcurveto
            -18 11 -7 17 50 105 62 28 42 vhcurveto
            -2 15 rlineto
            -16 -27 -105 -71 -38 hhcurveto
            -13 -6 4 7 21 50 50 90 81 -78 callsubr
            -11 -8 -16 -14 hvcurveto
            -79 -117 -104 -65 -26 hhcurveto
            -4 -2 2 3 30 98 85 41 43 hvcurveto
            2 3 1 2 1 vvcurveto
            8 -3 -3 -24 3 vhcurveto
            endchar
          </CharString>
          <CharString index="6">
            -61 -51 -63 -55 -66 -55 50 -1 45 -5 40 -8 97 193 253 171 137 108 rrcurveto
            1 1 -2 0 -1 hhcurveto
            -4 -9 -3 0 hvcurveto
            -150 -55 -183 -171 -84 -69 rrcurveto
            return
          </CharString>
          <CharString index="7">
            -18 11 -7 16 44 89 51 36 55 vhcurveto
            -2 15 rlineto
            -42 -61 -83 -49 -36 2 callsubr
            2 6 30 114 95 35 45 hvcurveto
            2 3 1 2 1 vvcurveto
            8 -5 -2 -24 3 vhcurveto
            return
          </CharString>
          <CharString index="8">
            -43 callsubr
            -6 -34 -29 0 hvcurveto
            -46 -54 -106 -74 -56 hhcurveto
            290 184 rmoveto
            -3 -2 -2 13 callsubr
            -3 -3 -5 -4 -5 -4 rrcurveto
            -96 callsubr
            return
          </CharString>
          <CharString index="9">
            rmoveto
            46 144 176 175 187 vhcurveto
            -4 1 -3 2 -3 vhcurveto
            -128 -42 -194 -282 -74 hhcurveto
            -8 -4 4 7 hvcurveto
            918 926 rmoveto
            -47 -342 -276 -188 -121 vhcurveto
            228 220 242 223 58 hhcurveto
            7 3 13 callsubr
            -574 -513 rmoveto
            4 12 4 12 2 9 1 1 rcurveline
            172 101 411 314 72 vvcurveto
            9 -7 6 -16 -147 -795 -798 -151 -16 9 -8 19 101 166 262 146 64 vhcurveto
            -10 10 17 -6 22 hhcurveto
            return
          </CharString>
          <CharString index="10">
            65 -40 50 -86 -300 -289 -347 -221 -209 vhcurveto
            0 -9 -10 -4 -2 -1 0 1 0 19 50 133 223 vhcurveto
            33 56 96 140 49 59 45 54 37 12 10 3 rrcurveto
            3 1 3 2 4 vvcurveto
            5 -3 1 -8 vhcurveto
            -79 -17 -94 -83 -46 -45 rrcurveto
            0 -290 -321 -172 -158 vhcurveto
            -6 callgsubr
            -34 33 -48 26 -60 18 rrcurveto
            -56 callgsubr
            -86 callgsubr
            129 101 64 82 95 hvcurveto
            23 -30 12 -33 -33 vvcurveto
            -93 -92 -96 -195 -31 vhcurveto
            -11 vlineto
            224 34 98 98 96 vvcurveto
            40 -18 41 -33 35 vhcurveto
            10 9 11 9 10 10 rrcurveto
            168 155 291 320 -18 callgsubr
            97 94 20 vhcurveto
            -92 -83 -77 -108 -84 -137 rrcurveto
            -39 -63 -77 -162 -18 callgsubr
            -65 -137 -15 -21 vhcurveto
            0 -12 -16 -5 vvcurveto
            -5 1 -1 3 4 5 3 0 0 41 56 15 17 vhcurveto
            return
          </CharString>
          <CharString index="11">
            -91 callsubr
            hintmask 01111000
            -100 callsubr
            return
          </CharString>
          <CharString index="12">
            -99 callgsubr
            58 -18 44 -29 29 -33 rrcurveto
            -78 -89 -98 -64 -120 -42 callgsubr
            -26 vhcurveto
            -12 -67 callgsubr
            54 80 72 140 35 hvcurveto
            -18 -33 -9 -34 -32 vvcurveto
            return
          </CharString>
          <CharString index="13">
            388 541 rmoveto
            -7 -18 -21 -35 -30 vhcurveto
            33 24 14 17 1 hhcurveto
            7 6 4 3 2 hhcurveto
            1 1 -1 -1 hvcurveto
            -30 hmoveto
            -13 -16 -20 -25 -32 -43 -38 -27 -46 -27 -48 -10 rrcurveto
            -17 vlineto
            32 5 39 18 35 24 -61 -82 -75 -99 -39 -46 rrcurveto
            -6 12 -7 8 4 6 3 5 5 vhcurveto
            32 50 91 123 61 85 rrcurveto
            68 45 28 36 19 vvcurveto
            8 -6 5 -9 -11 -10 -8 -13 -13 vhcurveto
            return
          </CharString>
          <CharString index="14">
            rmoveto
            -20 -20 -17 -19 -12 hvcurveto
            41 9 21 14 7 vvcurveto
            4 -3 2 -7 vhcurveto
            22 132 rmoveto
            -1 -71 -93 -82 -59 hvcurveto
            17 1 8 1 13 2 rrcurveto
            24 13 34 24 34 hhcurveto
            14 7 -4 -5 -13 -38 -22 -50 -10 hvcurveto
            -3 -8 -2 -7 -7 vvcurveto
            -15 9 -4 12 12 16 5 4 10 vhcurveto
            1 -6 rlineto
            -5 -9 -19 -6 -17 hhcurveto
            -17 -16 6 20 6 2 7 1 6 hvcurveto
            -14 -3 -9 -2 -18 -1 -19 -27 -17 -26 -12 -19 rrcurveto
            -5 -6 -5 -2 -5 hhcurveto
            -8 -15 6 7 hvcurveto
            16 18 18 22 19 25 rrcurveto
            -11 hlineto
            -11 -91 3 14 6 10 10 6 4 hvcurveto
            30 20 185 134 32 134 rrcurveto
            15 hlineto
            -30 -122 -104 -90 -100 -89 rrcurveto
            -5 -1 33 -6 48 hhcurveto
            56 71 61 79 27 34 rrcurveto
            -424 -284 rmoveto
            23 -8 418 640 -22 12 rlineto
            endchar
          </CharString>
          <CharString index="15">
            rmoveto
            12 4 4 9 6 vvcurveto
            5 -3 4 -4 -10 -111 -57 -18 -30 vhcurveto
            4 -10 rlineto
            return
          </CharString>
          <CharString index="16">
            7 -12 -22 8 -28 hhcurveto
            -162 -80 -115 -55 -18 8 -11 16 hvcurveto
            51 1 73 43 60 44 rrcurveto
            -18 -24 -13 -24 -19 vvcurveto
            return
          </CharString>
          <CharString index="17">
            75 31 -27 -39 -98 -200 -172 -224 hvcurveto
            -15 -566 rmoveto
            83 63 123 89 116 vhcurveto
            20 hlineto
            270 221 212 94 hvcurveto
            return
          </CharString>
          <CharString index="18">
            rmoveto
            50 46 -6 -9 39 hvcurveto
            -45 -77 -98 -88 -117 -43 rrcurveto
            -44 24 -19 38 44 vvcurveto
            32 10 35 19 33 vhcurveto
            10 47 53 7 59 hhcurveto
            return
          </CharString>
          <CharString index="19">
            13 27 26 19 8 5 -4 -7 -20 -30 -20 -14 -9 -6 5 7 vhcurveto
            return
          </CharString>
          <CharString index="20">
            rmoveto
            -41 84 rlineto
            -3 5 -13 0 0 vvcurveto
            -149 -71 12 -9 134 54 49 -69 rlineto
            return
          </CharString>
          <CharString index="21">
            rmoveto
            102 220 195 199 6 vhcurveto
            2 -10 2 -11 -11 vvcurveto
            -138 -196 -195 -131 -67 -29 25 37 vhcurveto
            -161 239 rmoveto
            0 187 166 177 128 64 -37 -54 20 vhcurveto
            -267 -18 -164 -178 -109 vvcurveto
            -48 32 -35 71 155 195 203 145 10 -1 10 -2 10 vhcurveto
            -2 139 237 -77 148 hhcurveto
            191 101 79 65 44 -48 38 -99 -116 -92 -52 -8 -19 hvcurveto
            7 -10 rlineto
            46 111 57 3 41 hhcurveto
            98 45 -30 -36 -52 -94 -63 -166 hvcurveto
            return
          </CharString>
          <CharString index="22">
            1089 -176 -21 446 146 -134 55 -55 145 -11 109 -98 85 484 -20 hstemhm
            1 33 356 35 16 166 555 26 -26 230 hintmask 1100011111010000
            return
          </CharString>
          <CharString index="23">
            539 -218 157 807 133 hstemhm
            -119 22 426 22 7 28 -28 157 297 24 222 24 hintmask 11111011
            return
          </CharString>
          <CharString index="24">
            hhcurveto
            -177 -196 -154 -172 -129 hvcurveto
            -102 23 -43 70 82 vvcurveto
            11 1 13 1 12 vhcurveto
            -2 15 15 0 17 hhcurveto
            263 186 177 108 47 -36 35 -81 -201 -164 -186 -165 -31 hvcurveto
            -104 19 -44 60 70 vvcurveto
            112 112 135 154 26 vhcurveto
            -3 15 rlineto
            -176 -35 -121 -140 -115 vvcurveto
            -77 54 -66 126 -16 vhcurveto
            -2 -15 -1 -13 -14 vvcurveto
            -89 45 -74 108 -24 vhcurveto
            -79 -110 -50 -115 -86 vvcurveto
            -81 45 -54 107 return
          </CharString>
          <CharString index="25">
            -546 -508 -9 -18 -4 vvcurveto
            -5 6 -2 7 12 15 5 3 3 vhcurveto
            7 7 77 75 -18 callgsubr
            206 199 38 35 vhcurveto
            38 35 75 66 35 21 rrcurveto
            21 34 69 37 37 hhcurveto
            12 5 -2 -4 hvcurveto
            -20 -146 -69 -61 vvcurveto
            9 callgsubr
            27 15 27 16 22 14 -2 15 rcurveline
            -25 -17 -28 -18 -28 -16 rrcurveto
            -44 callgsubr
            hintmask 11101000
            34 142 64 51 vvcurveto
            14 -9 13 -17 vhcurveto
            endchar
          </CharString>
          <CharString index="26">
            -99 callgsubr
            57 -18 43 -27 29 -33 -4 -4 rcurveline
            -72 -74 -148 -68 -23 callsubr
            -293 50 rmoveto
            54 80 72 140 35 vhcurveto
            -18 -33 -9 -34 -32 vvcurveto
            -60 callsubr
            hvcurveto
            1153 502 rmoveto
            return
          </CharString>
          <CharString index="27">
            -31 callgsubr
            46 79 107 109 9 6 -4 -7 2 hvcurveto
            -32 -29 -14 -34 -27 vvcurveto
            -1 vlineto
            -38 -36 -52 -34 -52 hhcurveto
            155 189 rmoveto
            -125 -83 -105 -60 -24 13 -17 30 50 58 32 39 44 hvcurveto
            return
          </CharString>
          <CharString index="28">
            vvcurveto
            -32 15 -22 38 121 143 208 93 27 -12 18 -28 -21 -28 -13 -5 -3 6 -1 0 vhcurveto
            9 8 24 3 9 hhcurveto
            return
          </CharString>
          <CharString index="29">
            hvcurveto
            -94 callgsubr
            0 return
          </CharString>
          <CharString index="30">
            rmoveto
            15 -4 14 -7 11 vhcurveto
            2 9 8 2 8 hhcurveto
            27 12 -11 -17 -57 -123 -128 -87 -57 hvcurveto
            9 -23 -26 6 -33 hhcurveto
            -53 -26 -26 -22 -15 13 -13 25 34 43 15 24 43 hvcurveto
            10 -6 9 -3 12 -4 rrcurveto
            hintmask 1010101001000000
            -12 -13 -6 -15 -14 vvcurveto
            -29 27 -25 63 21 12 6 0 vhcurveto
            -1 9 rlineto
            -5 -12 -14 -1 -10 hhcurveto
            return
          </CharString>
          <CharString index="31">
            rmoveto
            -4 10 rlineto
            18 30 111 57 10 hhcurveto
            4 3 -4 -5 -6 -4 -9 -12 -4 hvcurveto
            return
          </CharString>
          <CharString index="32">
            -56 callgsubr
            -86 callgsubr
            107 128 68 69 96 hvcurveto
            19 -27 10 -30 -30 vvcurveto
            -93 -92 -96 -195 -31 vhcurveto
            -11 vlineto
            224 34 98 98 96 vvcurveto
            37 -15 37 -28 32 vhcurveto
            36 28 return
          </CharString>
          <CharString index="33">
            rmoveto
            -94 callgsubr
            return
          </CharString>
          <CharString index="34">
            41 43 26 46 52 vvcurveto
            50 -32 41 -54 27 vhcurveto
            139 139 146 161 143 107 rrcurveto
            -3 31 33 -1 36 hhcurveto
            150 95 63 39 17 -19 13 -41 -97 -98 -40 -63 -97 hvcurveto
            -48 8 -49 9 -50 9 23 26 17 24 12 22 -9 5 rcurveline
            -15 -26 -19 -24 -21 -25 rrcurveto
            14 -76 -75 11 -61 hhcurveto
            endchar
          </CharString>
          <CharString index="35">
            rmoveto
            -32 -20 5 10 -24 hvcurveto
            15 20 20 10 37 hhcurveto
            22 11 -10 -10 -10 -12 -10 -22 hvcurveto
            -226 42 rmoveto
            33 23 -9 -9 21 hvcurveto
            -24 -39 -32 -12 -29 hhcurveto
            -20 -8 7 10 16 22 21 29 hvcurveto
            144 170 rmoveto
            38 44 38 43 14 vhcurveto
            5 -9 3 -9 -10 vvcurveto
            -44 -48 -37 -28 -11 -8 6 13 vhcurveto
            return
          </CharString>
          <CharString index="36">
            hhcurveto
            41 27 5 12 22 hvcurveto
            -8 5 rlineto
            -9 -27 -21 -3 -20 hhcurveto
            return
          </CharString>
          <CharString index="37">
            -133 -128 -201 -105 -126 hhcurveto
            -70 -32 30 40 81 126 122 185 hvcurveto
            56 14 rmoveto
            -263 -131 -122 -88 -49 41 -38 81 171 193 130 116 110 hvcurveto
            43 -9 45 -8 49 -6 -152 -106 -148 -154 -130 -134 rrcurveto
            return
          </CharString>
          <CharString index="38">
            7 4 -1 -4 hvcurveto
            -30 -137 -74 -49 vvcurveto
            -18 10 -7 16 47 100 62 28 42 vhcurveto
            -2 15 rlineto
            -16 -27 -105 -71 -38 hhcurveto
            -7 -3 2 5 hvcurveto
            25 128 58 64 vvcurveto
            18 -15 6 -12 -56 -78 -45 -34 -49 vhcurveto
            23 31 9 20 12 vvcurveto
            endchar
          </CharString>
          <CharString index="39">
            -41 -28 37 -33 hhcurveto
            -18 -24 -14 -14 -16 hvcurveto
            -5 5 rlineto
            24 19 26 18 35 46 31 -32 28 hhcurveto
            15 12 10 10 8 hvcurveto
            return
          </CharString>
          <CharString index="40">
            -16 10 -9 21 26 51 25 34 52 vhcurveto
            -6 -6 -41 -42 -37 -40 -36 -37 rlinecurve
            -52 callgsubr
          </CharString>
          <CharString index="41">
            -88 87 -85 149 9 9 1 1 9 vhcurveto
            -4 8 rlineto
            -159 -81 77 81 17 3 18 7 17 hvcurveto
            -14 74 72 -10 67 hhcurveto
            173 77 50 46 39 -56 36 -101 -172 -101 -54 -67 -41 hvcurveto
            -56 13 -59 14 -59 15 rrcurveto
            endchar
          </CharString>
          <CharString index="42">
            6 -6 3 -6 -26 -29 -25 -25 -2 vhcurveto
            0 -66 -48 -53 -34 vhcurveto
            3 -14 rlineto
            53 33 72 50 0 vvcurveto
            -13 9 12 -5 15 hhcurveto
            11 11 3 2 12 hvcurveto
            -195 -136 rlineto
            0 -16 -11 -4 -3 vhcurveto
            -1 -1 0 -1 0 vvcurveto
            return
          </CharString>
          <CharString index="43">
            rmoveto
            18 -8 7 -12 -36 -78 -61 -45 -68 vhcurveto
            3 -14 rlineto
            52 83 64 50 17 hhcurveto
            3 2 -2 -3 hvcurveto
            -36 -138 -118 -12 vvcurveto
            -8 7 -1 17 9 6 6 0 vhcurveto
            134 133 101 36 38 hhcurveto
            return
          </CharString>
          <CharString index="44">
            rrcurveto
            172 103 369 281 69 vvcurveto
            10 -7 5 -17 -96 -369 -360 -219 -194 vhcurveto
            -3 -4 -1 -2 -2 vvcurveto
            -3 11 -3 10 6 6 1 3 3 vhcurveto
            0 10 8 26 22 vhcurveto
            return
          </CharString>
          <CharString index="45">
            -7 -2 -43 callsubr
            -6 -34 -29 0 hvcurveto
            -46 -54 -106 -74 -56 hhcurveto
            290 184 rmoveto
            -3 -2 -2 13 callsubr
            -3 -3 -5 -4 -5 -4 rrcurveto
            return
          </CharString>
          <CharString index="46">
            -25 6 -25 28 21 33 13 37 53 vhcurveto
            -2 14 rlineto
            -32 -48 -28 -11 -17 hhcurveto
            -20 -4 15 18 return
          </CharString>
          <CharString index="47">
            -44 18 -40 40 -25 vhcurveto
            -13 -67 callgsubr
            return
          </CharString>
          <CharString index="48">
            rmoveto
            -62 -56 -6 -9 -49 hvcurveto
            return
          </CharString>
          <CharString index="49">
            38 -28 25 -67 -170 -167 -217 -206 -196 vhcurveto
            -118 22 -50 77 89 vvcurveto
            10 vlineto
            -1 11 12 0 12 hhcurveto
            260 179 165 103 hvcurveto
            return
          </CharString>
          <CharString index="50">
            100 2 80 85 39 vvcurveto
            11 -7 7 -15 vhcurveto
            return
          </CharString>
          <CharString index="51">
            -343 118 rmoveto
            69 30 -28 -39 -93 -171 -158 -234 -15 -14 1 1 -13 hvcurveto
            147 13 142 169 193 hhcurveto
            -480 -810 rmoveto
            return
          </CharString>
          <CharString index="52">
            rmoveto
            76 165 82 174 84 vhcurveto
            -168 -165 -112 -100 -40 hhcurveto
            -21 -1 19 7 hvcurveto
            -14 -7 rmoveto
            -7 1 -26 28 76 173 164 157 return
          </CharString>
          <CharString index="53">
            7 rmoveto
            -87 callgsubr
            return
          </CharString>
          <CharString index="54">
            20 -10 9 -16 -38 -74 -48 -42 -64 vhcurveto
            3 -14 rlineto
            return
          </CharString>
          <CharString index="55">
            47 -36 34 -83 -227 -140 -177 -157 -9 vhcurveto
            -102 16 -44 55 67 vvcurveto
            115 132 149 187 39 vhcurveto
            -3 9 rlineto
            return
          </CharString>
          <CharString index="56">
            rmoveto
            34 -20 4 0 vhcurveto
            -119 -188 rlineto
            7 -6 1 0 0 vvcurveto
            return
          </CharString>
          <CharString index="57">
            40 64 76 50 23 hhcurveto
            6 2 -2 -6 hvcurveto
            -18 -119 -69 -51 vvcurveto
            return
          </CharString>
          <CharString index="58">
            19 36 5 24 vvcurveto
            6 -5 3 -7 -24 -24 -34 -22 -19 15 -10 28 return
          </CharString>
          <CharString index="59">
            -16 231 -11 226 -15 138 -20 20 116 -20 hstemhm
            6 30 426 182 -21 21 448 26 10 30 249 33 return
          </CharString>
          <CharString index="60">
            -20 hstem
            577 577 rmoveto
            3 2 -1 -2 -47 -396 -310 -141 -97 hvcurveto
            171 144 319 286 69 hhcurveto
            return
          </CharString>
          <CharString index="61">
            hstemhm
            -43 25 152 26 return
          </CharString>
          <CharString index="62">
            -2 6 0 6 6 7 0 2 3 vhcurveto
            0 37 20 20 12 vhcurveto
            23 45 39 10 17 hhcurveto
            5 4 -1 -2 hvcurveto
            endchar
          </CharString>
          <CharString index="63">
            rmoveto
            -7 -4 4 6 return
          </CharString>
          <CharString index="64">
            -44 callsubr
            -72 callgsubr
            return
          </CharString>
          <CharString index="65">
            -110 24 -46 73 83 vvcurveto
            13 1 14 2 14 vhcurveto
            -1 14 14 0 16 hhcurveto
            255 167 137 89 hvcurveto
            return
          </CharString>
          <CharString index="66">
            8 -10 5 -17 -21 -33 -8 -18 -35 vhcurveto
            206 143 rlineto
            3 3 3 6 4 vvcurveto
            4 -2 3 -5 vhcurveto
            return
          </CharString>
          <CharString index="67">
            3 -7 rlineto
            1 6 8 2 6 hhcurveto
            29 13 -12 -12 -15 -20 -16 -34 -16 -20 3 10 -23 hvcurveto
            -7 -7 rlineto
            return
          </CharString>
          <CharString index="68">
            577 -15 -21 681 108 return
          </CharString>
          <CharString index="69">
            453 -445 -20 29 -21 368 135 -15 157 -9 159 -10 173 205 132 return
          </CharString>
          <CharString index="70">
            -9 2 rmoveto
            -7 -3 3 6 34 122 122 89 17 26 -6 -8 -12 -166 -139 -78 hvcurveto
            return
          </CharString>
          <CharString index="71">
            rlineto
            7 2 1 1 3 vvcurveto
            2 0 3 -6 3 vhcurveto
            return
          </CharString>
          <CharString index="72">
            rlineto
            -7 -2 -1 -1 -3 vvcurveto
            -2 0 -3 6 -3 vhcurveto
            return
          </CharString>
          <CharString index="73">
            199 103 241 215 213 hhcurveto
            64 28 -23 -34 -114 -306 -244 -310 hvcurveto
            return
          </CharString>
          <CharString index="74">
            -92 callsubr
            endchar
          </CharString>
          <CharString index="75">
            -4 -4 -4 -5 -4 3 -4 11 hvcurveto
            return
          </CharString>
          <CharString index="76">
            244 -11 117 return
          </CharString>
          <CharString index="77">
            rmoveto
            -141 hlineto
            55 136 -19 -8 -52 -128 rlineto
            -149 -27 callsubr
            155 hlineto
            return
          </CharString>
          <CharString index="78">
            3 13 rmoveto
            -35 -25 -32 -24 -15 10 -12 23 35 25 32 24 15 -10 12 -23 hvcurveto
            endchar
          </CharString>
          <CharString index="79">
            rmoveto
            -10 -8 -12 -10 -15 hhcurveto
            return
          </CharString>
          <CharString index="80">
            hlineto
            -12 -16 rlineto
            return
          </CharString>
          <CharString index="81">
            -12 22 22 -5 21 hhcurveto
            50 39 28 23 15 -17 12 -41 -7 -11 -1 -2 -9 hvcurveto
            return
          </CharString>
          <CharString index="82">
            236 rmoveto
            -100 callgsubr
            return
          </CharString>
          <CharString index="83">
            22 -22 230 351 30 7 32 107 35 return
          </CharString>
          <CharString index="84">
            -79 -58 callgsubr
            return
          </CharString>
          <CharString index="85">
            rmoveto
            8 -7 6 -9 -16 -33 -22 -22 -8 6 -5 8 21 30 29 14 vhcurveto
            return
          </CharString>
          <CharString index="86">
            rmoveto
            12 8 14 13 16 vhcurveto
            131 24 70 55 27 vvcurveto
            9 -8 6 -17 return
          </CharString>
          <CharString index="87">
            rmoveto
            -306 -27 callsubr
            308 hlineto
            return
          </CharString>
          <CharString index="88">
            -78 -134 -211 -98 return
          </CharString>
          <CharString index="89">
            -20 hstemhm
            0 22 -22 248 333 30 31 21 94 35 hintmask 1101101110000000
            return
          </CharString>
          <CharString index="90">
            -34 -79 -82 -89 -2 vhcurveto
            68 44 64 64 44 hhcurveto
            11 5 -6 -8 hvcurveto
            return
          </CharString>
          <CharString index="91">
            -66 -21 74 163 -163 178 -33 178 -151 151 return
          </CharString>
          <CharString index="92">
            -71 47 -57 114 -13 vhcurveto
            -2 vlineto
            -99 54 -88 121 -26 vhcurveto
            return
          </CharString>
          <CharString index="93">
            -54 -20 18 27 13 7 11 10 12 hvcurveto
            -7 22 22 -4 37 hhcurveto
            return
          </CharString>
          <CharString index="94">
            rrcurveto
            -1 11 12 0 12 hhcurveto
            266 297 260 123 hvcurveto
            return
          </CharString>
          <CharString index="95">
            269 -28 callsubr
            return
          </CharString>
          <CharString index="96">
            -5 -4 0 hvcurveto
            return
          </CharString>
          <CharString index="97">
            -3 14 -2 13 13 vvcurveto
            52 66 84 95 36 16 -12 -18 vhcurveto
            return
          </CharString>
          <CharString index="98">
            -6 36 -36 100 hstemhm
            84 28 -10 234 -8 73 -24 24 return
          </CharString>
          <CharString index="99">
            63 -374 -21 374 185 return
          </CharString>
          <CharString index="100">
            3 -11 1 -11 -12 vvcurveto
            return
          </CharString>
          <CharString index="101">
            -20 hstem
            -67 39 vstem
            return
          </CharString>
          <CharString index="102">
            -21 165 -20 hstem
            return
          </CharString>
          <CharString index="103">
            40 -33 27 -75 -275 -248 -217 -204 -98 return
          </CharString>
          <CharString index="104">
            1 callsubr
            -56 callgsubr
            return
          </CharString>
          <CharString index="105">
            -110 -289 -256 -230 -11 -10 0 1 -10 return
          </CharString>
          <CharString index="106">
            183 162 392 496 319 hhcurveto
            endchar
          </CharString>
          <CharString index="107">
            4 callgsubr
            54 return
          </CharString>
          <CharString index="108">
            -34 31 -47 26 -58 17 rrcurveto
            return
          </CharString>
          <CharString index="109">
            hhcurveto
            -4 -3 return
          </CharString>
          <CharString index="110">
            hstemhm
            2 197 88 27 316 20 -20 87 return
          </CharString>
          <CharString index="111">
            203 200 155 211 124 hhcurveto
            return
          </CharString>
          <CharString index="112">
            -109 -51 77 83 101 74 110 132 return
          </CharString>
          <CharString index="113">
            76 76 109 98 110 40 rrcurveto
            endchar
          </CharString>
          <CharString index="114">
            120 hhcurveto
            return
          </CharString>
          <CharString index="115">
            12 callgsubr
            -19 callsubr
            return
          </CharString>
          <CharString index="116">
            -380 -21 973 -20 hstem
            -370 27 return
          </CharString>
          <CharString index="117">
            234 -21 85 -20 hstem
            return
          </CharString>
          <CharString index="118">
            24 -24 56 hstemhm
            return
          </CharString>
          <CharString index="119">
            -15 -25 206 return
          </CharString>
          <CharString index="120">
            -3 -4 hvcurveto
            return
          </CharString>
          <CharString index="121">
            24 -24 91 -13 115 33 -21 hstemhm
            return
          </CharString>
          <CharString index="122">
            93 -23 76 -13 153 -9 134 return
          </CharString>
          <CharString index="123">
            4 12 rlineto
            -133 -96 -120 -98 return
          </CharString>
          <CharString index="124">
            vvcurveto
            -9 4 -4 8 28 18 40 18 return
          </CharString>
        <CharString name=".notdef">
          -178 endchar
        </CharString>
        <CharString name="A">
          -85 callsubr
          938 120 -107 callgsubr
        </CharString>
        <CharString name="AE">
          1173 -186 -21 449 112 -102 64 -64 89 -89 154 -90 175 -150 54 -41 33 8 109 471 -20 hstemhm
          1 33 356 35 15 167 -143 26 425 50 140 162 -28 28 151 39 248 26 hintmask 100100011111011011100000
          1241 451 rmoveto
          -1 8 -1 8 9 vvcurveto
          17 3 18 5 18 vhcurveto
          -29 -27 -29 -28 -27 -28 rrcurveto
          26 27 2 3 26 hvcurveto
          178 -64 rmoveto
          -41 -38 -3 -6 -36 hvcurveto
          -15 24 36 -9 50 hhcurveto
          32 20 10 9 7 -14 7 -33 hvcurveto
          -454 -301 rmoveto
          58 33 56 36 53 29 -31 17 -38 15 -46 10 rrcurveto
          -35 -43 -17 -46 -41 vvcurveto
          280 340 rmoveto
          -4 -33 -33 -2 -33 hhcurveto
          -56 -59 -50 -59 -37 -55 62 57 92 48 119 23 -15 14 -10 18 -6 19 rrcurveto
          -476 -197 rmoveto
          -193 -16 -86 -84 -69 vvcurveto
          -8 1 -7 2 -7 vhcurveto
          83 47 91 64 102 80 rrcurveto
          446 -253 rmoveto
          11 21 5 21 21 vvcurveto
          45 -25 43 -51 34 vhcurveto
          -55 -34 -61 -42 -69 -37 rrcurveto
          -50 16 48 -35 84 hhcurveto
          35 32 5 8 30 hvcurveto
          -355 269 rmoveto
          35 33 -2 -4 31 hvcurveto
          98 192 251 170 137 108 rrcurveto
          1 1 -2 0 -1 hhcurveto
          -4 -9 -3 0 hvcurveto
          -150 -55 -183 -171 -84 -69 -63 -53 -67 -58 -69 -57 rrcurveto
          355 -74 rmoveto
          52 -37 25 -46 -48 vvcurveto
          -19 -4 -19 -8 -19 vhcurveto
          114 37 70 86 61 vvcurveto
          hintmask 110000001111101101100000
          38 -27 28 -62 -47 -53 -26 -36 -60 vhcurveto
          440 548 rmoveto
          -159 -176 -163 -111 -7 hvcurveto
          236 33 202 130 68 vvcurveto
          26 -29 17 -67 vhcurveto
          -690 -668 rmoveto
          -3 10 -1 10 11 vvcurveto
          13 2 13 3 14 vhcurveto
          5 35 11 36 16 34 rrcurveto
          4 -34 -36 3 -40 hhcurveto
          -20 -22 -1 0 hvcurveto
          -96 -79 -100 -76 -104 -55 rrcurveto
          -35 19 48 -26 72 hhcurveto
          94 95 39 50 91 hvcurveto
          -278 444 rmoveto
          -1 5 0 5 6 vvcurveto
          124 156 179 178 78 35 -30 -41 -94 -179 -154 -253 vhcurveto
          148 471 rmoveto
          -232 -39 -146 -164 -126 vvcurveto
          -79 58 -65 129 -10 vhcurveto
          -57 17 54 -40 102 hhcurveto
          144 162 121 36 41 hvcurveto
          -6 8 rlineto
          hintmask 100010000111101101100000
          -112 -134 -125 -42 -77 hhcurveto
          hintmask 100001000111101101100000
          -90 -44 35 50 -12 hvcurveto
          5 hlineto
          278 178 164 103 48 -38 35 -84 -223 -153 -177 -131 -9 0 -9 2 -9 hvcurveto
          -117 12 -52 60 72 vvcurveto
          122 147 160 219 31 vhcurveto
          812 -220 rmoveto
          79 34 -20 -30 -76 -215 -140 -249 -37 hvcurveto
          1 -20 8 -18 16 -14 rrcurveto
          7 42 45 4 48 hhcurveto
          46 18 -10 -11 hvcurveto
          hintmask 100100011111101101100000
          -17 -39 -20 -46 -52 -39 13 21 -28 vhcurveto
          -119 -23 -88 -53 -53 -61 48 -10 41 -16 32 -19 rrcurveto
          36 67 62 25 57 hhcurveto
          85 38 -35 -45 -70 -89 -95 -143 -35 hvcurveto
          -41 -76 -105 -71 -166 -34 -1 13 rcurveline
          152 34 99 62 43 67 rrcurveto
          -6 -31 -33 -4 -35 hhcurveto
          -97 -58 32 45 -24 hvcurveto
          -43 -89 -101 -33 -114 hhcurveto
          -73 -50 25 36 -23 hvcurveto
          -48 -96 -99 -31 -101 -11 callgsubr
          65 77 110 114 134 185 82 33 -29 -37 -59 -85 -78 -97 -9 hvcurveto
          11 vlineto
          93 10 64 66 51 vvcurveto
          hintmask 101000100111011101100000
          34 -28 28 -67 -158 -103 -125 -102 -72 50 -60 117 86 87 27 51 96 vhcurveto
          -4 10 -2 11 11 vvcurveto
          76 97 92 224 17 vhcurveto
          77 61 83 70 92 78 112 95 211 176 148 30 rrcurveto
          1 6 5 1 3 hhcurveto
          5 6 -4 -6 -5 -11 callsubr
          -7 -4 -7 -4 -7 -5 rrcurveto
          7 34 37 4 40 hhcurveto
          endchar
        </CharString>
        <CharString name="Aacute">
          -85 callsubr
          1509 802 -76 callsubr
          -709 -739 -107 callgsubr
        </CharString>
        <CharString name="Acircumflex">
          -85 callsubr
          1608 791 -68 callgsubr
          -681 -677 -107 callgsubr
        </CharString>
        <CharString name="Adieresis">
          -39 callgsubr
          335 51 98 -20 hstemhm
          1 33 356 35 16 166 555 26 -26 230 hintmask 1101111111000000
          1538 838 rmoveto
          -88 callsubr
          -88 hmoveto
          -88 callsubr
          -512 -718 -102 callgsubr
          hintmask 1010111110100000
          34 -28 28 -67 -158 -103 -125 -102 -72 50 -60 117 74 75 20 38 81 vhcurveto
          -14 15 -7 18 20 vvcurveto
          84 129 107 257 2 vhcurveto
          74 59 79 67 88 74 112 95 211 176 148 30 rrcurveto
          1 6 5 1 3 hhcurveto
          5 6 -4 -6 -5 -11 callsubr
          -162 -92 -262 -238 -113 -175 36 -10 32 -12 26 -14 rrcurveto
          32 64 65 22 65 hhcurveto
          79 34 -30 -42 -73 -105 -79 -111 -37 hvcurveto
          -32 -79 -93 -76 -147 -39 rrcurveto
          10 vlineto
          140 49 79 64 27 64 rrcurveto
          -9 -33 -33 -6 -30 hhcurveto
          -69 -55 26 68 -11 hvcurveto
          -54 -95 -112 -45 -141 hhcurveto
          -59 -43 13 21 -26 hvcurveto
          -38 -85 -87 -24 -89 -11 callgsubr
          65 77 110 114 134 185 82 33 -29 -37 -59 -85 -78 -97 -9 hvcurveto
          endchar
        </CharString>
        <CharString name="Agrave">
          -85 callsubr
          1578 802 -95 callgsubr
          -502 -739 -107 callgsubr
        </CharString>
        <CharString name="Aring">
          -39 callgsubr
          300 83 101 -20 hstemhm
          1 33 356 35 16 166 555 26 -26 230 95 93 hintmask 1101111111010000
          1544 861 rmoveto
          -22 -18 -23 -17 -10 6 -7 15 22 18 23 17 10 -6 7 -15 hvcurveto
          3 13 rmoveto
          23 10 -12 -15 -24 -25 -32 -35 -23 -10 12 15 24 25 32 35 hvcurveto
          -609 -754 -102 callgsubr
          hintmask 1010111110110000
          34 -28 28 -67 -158 -103 -125 -102 -72 50 -60 117 74 75 20 38 81 vhcurveto
          -14 15 -7 18 20 vvcurveto
          84 129 107 257 2 vhcurveto
          74 59 79 67 88 74 112 95 211 176 148 30 rrcurveto
          1 6 5 1 3 hhcurveto
          5 6 -4 -6 -5 -11 callsubr
          -162 -92 -262 -238 -113 -175 36 -10 32 -12 26 -14 rrcurveto
          32 64 65 22 65 hhcurveto
          79 34 -30 -42 -73 -105 -79 -111 -37 hvcurveto
          -32 -79 -93 -76 -147 -39 rrcurveto
          10 vlineto
          140 49 79 64 27 64 rrcurveto
          -9 -33 -33 -6 -30 hhcurveto
          -69 -55 26 68 -11 hvcurveto
          -54 -95 -112 -45 -141 hhcurveto
          -59 -43 13 21 -26 hvcurveto
          -38 -85 -87 -24 -89 -11 callgsubr
          65 77 110 114 134 185 82 33 -29 -37 -59 -85 -78 -97 -9 hvcurveto
          endchar
        </CharString>
        <CharString name="Atilde">
          -39 callgsubr
          318 56 -24 24 110 -20 hstemhm
          1 33 356 35 16 166 555 26 -26 230 hintmask 1101101111010000
          1623 847 rmoveto
          -21 -12 -20 -17 -32 -68 callsubr
          -676 -733 rmoveto
          40 24 39 24 40 21 -23 13 -25 11 -29 9 -23 -38 -14 -35 -5 -29 rrcurveto
          224 -77 rmoveto
          48 -28 45 -50 36 vhcurveto
          -45 -29 -48 -32 -53 -31 rrcurveto
          -67 10 50 -26 63 hhcurveto
          29 32 6 9 33 hvcurveto
          4 14 3 13 14 vvcurveto
          -736 19 rmoveto
          -15 5 -15 11 -12 vhcurveto
          101 50 110 77 128 102 rrcurveto
          -213 -3 -142 -106 -78 vvcurveto
          587 360 rmoveto
          -101 callsubr
          hintmask 1101011111100000
          175 -366 rmoveto
          -15 -2 -15 -5 -15 vhcurveto
          101 37 95 73 61 vvcurveto
          36 -31 27 -73 -54 -53 -24 -33 -56 vhcurveto
          53 -36 25 -47 -49 vvcurveto
          -380 193 rmoveto
          -111 -92 -119 -89 -123 -59 rrcurveto
          -17 25 41 -11 61 hhcurveto
          116 111 62 65 109 hvcurveto
          2 42 11 40 18 40 -42 11 -47 6 -52 2 rrcurveto
          -104 callgsubr
          -104 callsubr
          hintmask 1010101111010000
          34 -28 28 -67 -158 -103 -125 -102 -72 50 -60 117 74 75 20 38 81 vhcurveto
          -14 15 -7 18 20 vvcurveto
          84 129 107 257 2 vhcurveto
          74 59 79 67 88 74 112 95 211 176 148 30 rrcurveto
          1 6 5 1 3 hhcurveto
          5 6 -4 -6 -5 -11 callsubr
          -162 -92 -262 -238 -113 -175 36 -10 32 -12 26 -14 rrcurveto
          32 64 65 22 65 hhcurveto
          79 34 -30 -42 -73 -105 -79 -111 -37 hvcurveto
          -32 -79 -93 -76 -147 -39 rrcurveto
          10 vlineto
          140 49 79 64 27 64 rrcurveto
          -9 -33 -33 -6 -30 hhcurveto
          -69 -55 26 68 -11 hvcurveto
          -54 -95 -112 -45 -141 hhcurveto
          -59 -43 13 21 -26 hvcurveto
          -38 -85 -87 -24 -89 -11 callgsubr
          65 77 110 114 134 185 82 33 -29 -37 -59 -85 -78 -97 -9 hvcurveto
          endchar
        </CharString>
        <CharString name="B">
          1043 -196 -21 194 196 -13 246 -183 144 -14 53 -13 49 330 121 hstemhm
          -8 -24 callsubr
          -35 83 68 168 -29 29 87 34 106 27 38 32 305 29 hintmask 101000110110110111100000
          1052 422 rmoveto
          22 -6 18 -9 15 -12 rrcurveto
          -5 -28 -30 -4 -32 hhcurveto
          12 12 12 12 11 12 rrcurveto
          -74 10 rmoveto
          10 9 0 -1 9 hvcurveto
          -11 -12 -14 -15 -14 -15 6 callgsubr
          vhcurveto
          112 -272 rmoveto
          18 3 -1 9 hhcurveto
          -91 -47 -91 -78 -99 hhcurveto
          -36 -15 11 16 48 134 95 124 hvcurveto
          -664 73 -59 callsubr
          hintmask 110010110111010111100000
          73 46 86 62 99 hhcurveto
          -14 callgsubr
          -119 -242 rmoveto
          127 43 97 86 44 79 57 -18 43 -27 29 -33 -4 -4 rcurveline
          -72 -74 -148 -68 -23 callsubr
          -293 50 rmoveto
          54 80 72 140 35 vhcurveto
          -18 -33 -9 -34 -32 vvcurveto
          -60 callsubr
          hvcurveto
          1113 359 rmoveto
          -18 14 -22 11 -26 7 52 55 44 46 10 10 -2 callgsubr
          -88 -92 -98 -141 -35 vhcurveto
          hintmask 110101101111001111100000
          -717 -177 -89 callsubr
          232 256 -20 callgsubr
          -7 callsubr
          hintmask 101000110111010111100000
          -35 callgsubr
          hintmask 110101110111001111100000
          -140 -112 rmoveto
          -117 -96 -71 -81 -48 hvcurveto
          -91 callgsubr
          35 27 30 25 22 22 8 9 84 90 83 87 rrcurveto
          41 38 4 6 34 hvcurveto
          25 -26 11 -34 -38 vvcurveto
          -37 -10 -39 -18 -38 vhcurveto
          -10 -4 1 -15 hhcurveto
          -159 -119 -105 -56 -21 16 -14 36 146 102 82 95 44 hvcurveto
          92 -15 39 -46 -52 vvcurveto
          -86 -106 -103 -150 -14 vhcurveto
          4 -12 rlineto
          177 27 102 102 86 vvcurveto
          59 -48 52 -105 16 vhcurveto
          13 31 7 33 31 vvcurveto
          48 -16 44 -33 33 vhcurveto
          165 36 87 94 88 vvcurveto
          34 -13 33 -26 28 vhcurveto
          43 65 70 31 66 -74 callgsubr
          -75 -78 -29 -43 -74 vhcurveto
          40 -49 -80 28 -116 hhcurveto
          -14 -17 -80 callgsubr
          -275 -22 -148 -175 -107 vvcurveto
          -49 31 -35 64 -53 callgsubr
          vhcurveto
          7 3 1 11 hhcurveto
          120 76 -27 -40 42 hvcurveto
          -107 -65 -97 -92 -67 -73 rrcurveto
          0 -14 -14 -21 -23 vhcurveto
          1 -9 -10 1 -9 hhcurveto
          hintmask 110101110111010111100000
          -60 -28 -16 -16 -14 18 -13 36 -6 hvcurveto
          -79 -82 -103 -107 -51 -50 -3 callsubr
          47 -31 33 -70 vhcurveto
          endchar
        </CharString>
        <CharString name="C">
          700 -207 186 -41 callgsubr
          274 35 165 26 200 25 hintmask 1110111111111000
          493 137 rmoveto
          30 6 33 11 34 vhcurveto
          60 -8 50 -17 38 -21 -53 -29 -54 -33 -53 -32 rrcurveto
          -3 13 -2 15 15 vvcurveto
          201 -158 rmoveto
          -103 -59 34 54 -25 hvcurveto
          60 36 56 40 54 33 rrcurveto
          61 -40 29 -53 -54 vvcurveto
          -15 -3 -14 -4 -14 vhcurveto
          -4 -21 -22 -3 -23 hhcurveto
          273 198 rmoveto
          -62 -62 -84 -106 -35 vhcurveto
          2 7 1 9 8 vvcurveto
          61 -36 61 -71 45 vhcurveto
          37 63 59 26 59 hhcurveto
          63 28 -31 -42 hvcurveto
          -579 376 -45 callgsubr
          19 -312 rmoveto
          17 17 -1 -1 16 hvcurveto
          -8 -30 -4 -29 -27 -38 callgsubr
          170 72 rmoveto
          -11 -11 0 1 -11 hvcurveto
          hintmask 1101011111111000
          -34 callsubr
          -146 662 rmoveto
          -176 -35 -121 -133 -110 vvcurveto
          -73 54 -64 129 -15 vhcurveto
          -3 -16 -1 -16 -15 vvcurveto
          -90 50 -78 118 -25 vhcurveto
          -8 -18 -6 -17 -6 -18 rrcurveto
          1 -15 -15 1 -16 hhcurveto
          -17 callgsubr
          -51 34 67 -32 105 hhcurveto
          26 25 3 4 24 hvcurveto
          -89 -37 -119 -76 -150 hhcurveto
          -26 -27 2 5 -27 hvcurveto
          -10 -9 rlineto
          -8 38 36 -4 34 hhcurveto
          174 126 95 93 29 hvcurveto
          126 37 71 94 70 vvcurveto
          47 -32 35 -68 -69 -73 -28 -39 -75 vhcurveto
          -43 24 -54 17 -64 9 6 17 7 17 8 17 rrcurveto
          -8 callgsubr
          hvcurveto
          hintmask 1110111111111000
          -4 callsubr
          vhcurveto
          -42 callsubr
          hintmask 1101011111111000
          43 -39 32 -86 -186 -139 -145 -140 -32 vhcurveto
          -107 17 -45 58 67 vvcurveto
          106 112 128 154 26 vhcurveto
          endchar
        </CharString>
        <CharString name="Ccedilla">
          700 -186 124 -17 58 -41 callgsubr
          161 48 265 26 200 25 hintmask 0111011111111100
          388 553 -45 callgsubr
          306 -574 rmoveto
          -103 -59 34 54 -25 hvcurveto
          84 137 118 99 114 hhcurveto
          63 28 -31 -42 -80 -105 -118 -168 hvcurveto
          -117 334 rmoveto
          -11 -11 0 1 -11 hvcurveto
          hintmask 0110101111111100
          -34 callsubr
          -162 -59 rmoveto
          -17 callgsubr
          23 -34 37 -25 53 -14 -30 -48 rcurveline
          4 -10 rlineto
          2 8 12 2 8 hhcurveto
          45 20 -17 -19 -26 -36 -31 -57 -23 -26 5 12 -29 hvcurveto
          -9 -9 rlineto
          hintmask 1011011111111100
          -15 30 31 -7 28 hhcurveto
          77 62 46 36 23 -25 19 -64 -10 -15 -1 -3 -13 hvcurveto
          30 37 rlineto
          -4 23 24 -2 28 hhcurveto
          198 115 128 89 47 -32 35 -68 -122 -138 -91 -79 -135 hvcurveto
          -3 13 -2 15 15 vvcurveto
          48 16 55 27 58 vhcurveto
          -8 callgsubr
          -4 callsubr
          hvcurveto
          -42 callsubr
          hintmask 1010101111111100
          43 -39 32 -86 -186 -139 -145 -140 -32 vhcurveto
          -107 17 -45 58 67 vvcurveto
          106 112 128 154 26 vhcurveto
          -3 15 rlineto
          -176 -35 -121 -133 -110 vvcurveto
          -73 54 -64 129 -15 vhcurveto
          -3 -16 -1 -16 -15 vvcurveto
          -90 50 -78 118 -25 vhcurveto
          -24 -54 -12 -52 -46 -38 callgsubr
          endchar
        </CharString>
        <CharString name="D">
          -78 callgsubr
          294 157 253 355 223 170 -77 callgsubr
          -263 -170 -264 -375 -273 -147 -82 callgsubr
        </CharString>
        <CharString name="E">
          713 -88 callgsubr
          950 354 -107 callsubr
        </CharString>
        <CharString name="Eacute">
          724 -88 callgsubr
          1175 776 -76 callsubr
          -363 -479 -107 callsubr
        </CharString>
        <CharString name="Ecircumflex">
          724 -88 callgsubr
          1289 769 -68 callgsubr
          -350 -421 -107 callsubr
        </CharString>
        <CharString name="Edieresis">
          724 -186 -21 450 111 -111 203 -105 58 -12 235 -192 192 -11 132 -15 77 108 -20 151 -20 hstemhm
          0 26 249 34 142 43 281 28 -21 172 0 39 -28 239 hintmask 110010011111110010000000
          1233 817 rmoveto
          -88 callsubr
          -88 hmoveto
          -88 callsubr
          -195 -463 rmoveto
          -70 callgsubr
          2 callgsubr
          hvcurveto
          -449 -258 rmoveto
          41 17 46 35 43 vhcurveto
          46 -10 39 -14 31 -17 -54 -30 -56 -35 -58 -34 rrcurveto
          10 vlineto
          153 -123 rmoveto
          -84 -48 35 50 -16 hvcurveto
          69 37 61 42 55 34 rrcurveto
          51 -35 25 -43 -45 vvcurveto
          -21 -5 -21 -10 -20 vhcurveto
          -8 -30 -33 -5 -35 hhcurveto
          hintmask 110010011111101010000000
          300 203 rmoveto
          -61 -71 -87 -113 -36 vhcurveto
          8 18 4 20 19 vvcurveto
          48 -25 46 -52 37 vhcurveto
          36 60 53 26 47 hhcurveto
          62 27 -28 -38 hvcurveto
          291 506 rmoveto
          hintmask 110010011111110100000000
          -73 -208 -136 -234 -24 vhcurveto
          111 2 179 168 161 hhcurveto
          70 30 -18 -28 hvcurveto
          -716 -60 rmoveto
          -12 -11 0 1 -11 hvcurveto
          124 12 145 146 189 hhcurveto
          75 32 -22 -32 -79 -196 -138 -223 hvcurveto
          -151 -379 rmoveto
          51 45 -4 -6 41 hvcurveto
          -42 -47 -22 -51 -44 vvcurveto
          -11 1 -10 3 -10 vhcurveto
          -50 -91 -95 -39 -94 hhcurveto
          -96 -53 46 54 78 109 94 243 hvcurveto
          185 -5 rmoveto
          54 61 87 53 119 23 rrcurveto
          hintmask 100100101111110100000000
          -22 28 39 -12 52 hhcurveto
          46 39 20 17 11 -18 10 -46 -48 -45 -4 -7 -42 hvcurveto
          -14 13 -8 16 -3 18 rrcurveto
          247 27 221 146 81 vvcurveto
          32 -35 22 -82 -248 -131 -148 -117 -11 1 -10 2 -10 vhcurveto
          hintmask 101000101111110010000000
          -1 -15 -15 0 -14 hhcurveto
          -170 -70 73 87 hvcurveto
          5 27 vlineto
          261 183 145 89 40 -36 28 -82 -204 -152 -154 -134 -15 hvcurveto
          -118 13 -49 61 70 vvcurveto
          106 112 128 154 26 vhcurveto
          -3 15 rlineto
          -176 -35 -121 -133 -110 vvcurveto
          -76 59 -66 141 -12 vhcurveto
          -9 vlineto
          hintmask 110001011111101010000000
          -94 72 -79 176 20 19 0 2 20 vhcurveto
          6 -17 10 -17 14 -13 -127 -25 -97 -53 -61 -62 rrcurveto
          7 -39 -44 3 -48 hhcurveto
          -277 -119 -103 -84 -59 58 -49 102 114 101 33 43 89 hvcurveto
          -45 24 58 -32 97 hhcurveto
          35 33 4 6 31 hvcurveto
          -43 -67 -98 -62 -153 -34 1 -13 rcurveline
          166 34 105 71 41 76 rrcurveto
          hintmask 110010011111110100000000
          143 35 89 95 70 vvcurveto
          45 -38 35 -85 -57 -62 -25 -36 -67 vhcurveto
          -32 19 -40 16 -49 10 rrcurveto
          endchar
        </CharString>
        <CharString name="Egrave">
          724 -88 callgsubr
          1309 778 -95 callgsubr
          -221 -481 -107 callsubr
        </CharString>
        <CharString name="Eth">
          -78 callgsubr
          130 69 122 108 115 115 rrcurveto
          179 hlineto
          -32 callgsubr
          -168 hlineto
          138 138 128 145 120 91 -77 callgsubr
          -144 -93 -145 -155 -146 -145 rrcurveto
          -176 hlineto
          -32 callsubr
          154 hlineto
          -115 -113 -117 -106 -117 -63 -82 callgsubr
        </CharString>
        <CharString name="Euro">
          269 -54 -21 49 177 -11 87 -14 64 -14 76 -18 196 hstemhm
          104 36 319 20 hintmask 10101011
          287 -16 rmoveto
          -52 -50 16 33 -26 hvcurveto
          53 83 73 54 72 hhcurveto
          51 21 -18 -24 -73 -88 -41 -84 hvcurveto
          99 355 rmoveto
          -35 -34 4 11 -30 hvcurveto
          85 86 107 67 86 hhcurveto
          46 20 -17 -24 -71 -128 -55 -118 hvcurveto
          hintmask 11010111
          8 -62 rmoveto
          -174 hlineto
          17 22 20 23 20 21 rrcurveto
          -15 36 40 -7 42 hhcurveto
          126 129 64 83 29 -24 20 -54 -110 -116 -64 -84 -90 hvcurveto
          -18 11 -16 14 -11 18 -13 -7 rcurveline
          13 -19 17 -15 19 -12 -27 -26 -24 -28 -21 -28 rrcurveto
          -87 hlineto
          hintmask 10101011
          -12 -14 rlineto
          89 hlineto
          -8 -12 -7 -12 -7 -12 rrcurveto
          -76 hlineto
          hintmask 11010111
          -12 -14 rlineto
          80 hlineto
          -20 -40 -11 -39 -34 vvcurveto
          -26 8 -22 13 -17 vhcurveto
          -51 -85 -85 -50 -77 hhcurveto
          -4 -9 rlineto
          101 86 46 49 78 hvcurveto
          -31 34 54 -15 56 hhcurveto
          96 100 45 84 27 -23 21 -57 -78 -86 -50 -52 -86 hvcurveto
          -6 12 -3 13 16 vvcurveto
          36 14 43 25 44 vhcurveto
          184 hlineto
          hintmask 10101011
          10 14 rlineto
          -186 hlineto
          7 12 8 12 8 12 rrcurveto
          174 hlineto
          endchar
        </CharString>
        <CharString name="F">
          702 -45 233 -211 -21 131 101 -11 225 -179 150 -12 41 287 14 callsubr
          1 20 hintmask 1000011011100000
          1086 266 rmoveto
          -15 -25 -32 -75 -19 vhcurveto
          40 38 35 35 19 hhcurveto
          5 3 -4 -5 hvcurveto
          -733 -31 rmoveto
          -25 -23 -2 -2 -22 hvcurveto
          72 49 80 58 85 hhcurveto
          51 23 -24 -36 -24 -9 -28 -17 -31 hvcurveto
          -63 9 -63 7 -66 1 rrcurveto
          -332 -192 rmoveto
          65 82 86 156 23 vhcurveto
          -24 -41 -14 -44 -40 vvcurveto
          -41 14 -36 33 -25 vhcurveto
          -15 -42 -45 -10 -46 hhcurveto
          -77 -37 34 44 hvcurveto
          hintmask 1000101011100000
          322 180 rmoveto
          67 62 -8 -9 65 hvcurveto
          -48 -79 -95 -87 -112 -45 rrcurveto
          -34 23 -14 35 40 vvcurveto
          40 15 45 25 41 vhcurveto
          2 22 23 2 24 hhcurveto
          226 -22 rmoveto
          hintmask 0101001011100000
          63 -10 65 -9 74 -5 rrcurveto
          -119 -118 -121 -92 -134 hhcurveto
          -45 -33 8 14 -26 hvcurveto
          120 45 103 88 52 80 rrcurveto
          59 263 -86 callsubr
          hintmask 1000100101100000
          -133 -213 67 -170 hhcurveto
          -15 -13 -1 0 hvcurveto
          hintmask 1000101011100000
          60 -19 -65 43 -133 -12 callgsubr
          321 -527 rmoveto
          -69 4 -67 12 -69 10 rrcurveto
          19 31 11 30 26 vvcurveto
          43 -30 29 -71 -100 -88 -65 -79 -51 vhcurveto
          -180 -22 -86 -90 -71 vvcurveto
          -50 43 -41 83 52 51 11 17 49 vhcurveto
          hintmask 1010101011100000
          -17 27 37 -10 49 hhcurveto
          155 143 96 123 132 hvcurveto
          -1 14 14 0 14 hhcurveto
          23 22 1 3 20 hvcurveto
          -25 -29 -25 -29 -27 -21 rrcurveto
          0 -10 -6 -4 vvcurveto
          -1 1 -1 3 30 51 50 49 47 vhcurveto
          84 21 47 41 22 vvcurveto
          9 -8 6 -17 -51 -44 -44 -49 -44 vhcurveto
          -4 -27 -31 -2 -36 hhcurveto
          -13 hlineto
          214 202 187 268 169 42 -1 6 rcurveline
          -234 -41 -190 -273 -197 -202 rrcurveto
          endchar
        </CharString>
        <CharString name="G">
          604 -216 -21 511 85 -11 65 -18 227 -11 151 151 -20 151 -20 hstemhm
          1 23 163 34 -6 22 131 20 203 31 -31 63 -19 242 287 26 hintmask 1010111101101010
          418 225 rmoveto
          -42 -37 -2 -4 -35 hvcurveto
          71 53 77 58 73 hhcurveto
          59 -48 callgsubr
          -25 -15 -27 hvcurveto
          8 -44 -50 5 -56 hhcurveto
          -394 -183 rmoveto
          60 80 75 167 26 vhcurveto
          -35 -51 -21 -57 -48 vvcurveto
          -30 8 -27 19 -21 vhcurveto
          -6 -27 -28 -4 -27 hhcurveto
          -90 -46 37 46 hvcurveto
          571 149 rmoveto
          64 -17 49 -25 32 -30 -24 -21 rcurveline
          -74 -82 -154 -81 -112 hhcurveto
          -39 -29 8 14 -21 hvcurveto
          150 38 116 98 50 90 rrcurveto
          -195 22 rmoveto
          61 54 -5 -9 46 hvcurveto
          -52 -87 -114 -99 -129 -38 rrcurveto
          -20 19 -9 26 30 vvcurveto
          48 23 57 35 52 vhcurveto
          4 32 35 2 38 hhcurveto
          hintmask 1101011110110110
          41 409 rmoveto
          -17 -15 0 2 -14 hvcurveto
          129 32 148 140 178 hhcurveto
          75 32 -22 -32 -79 -196 -138 -223 hvcurveto
          723 76 rmoveto
          hintmask 1010111110101010
          -88 -251 -178 -253 -19 vhcurveto
          137 40 214 197 157 hhcurveto
          65 28 -19 -30 hvcurveto
          -1015 -750 rmoveto
          36 34 4 7 33 hvcurveto
          -19 24 35 -12 50 hhcurveto
          123 172 71 73 94 hvcurveto
          6 4 6 5 6 5 rrcurveto
          14 -21 7 -24 -23 vvcurveto
          -94 -107 -101 -212 -47 vhcurveto
          1 -13 rlineto
          221 45 112 110 101 vvcurveto
          27 -8 26 -16 25 vhcurveto
          70 64 56 83 77 79 3 3 22 19 24 19 22 16 16 14 9 9 rrcurveto
          9 7 7 6 0 vvcurveto
          2 vlineto
          2 0 3 -2 1 vhcurveto
          -3 1 rlineto
          -6 -17 -8 -56 -66 hvcurveto
          0 -113 -76 -107 -90 -37 35 52 8 1 8 2 9 vhcurveto
          267 23 266 188 97 vvcurveto
          34 -33 23 -77 vhcurveto
          hintmask 1010111110110110
          -266 -171 -206 -145 -8 hvcurveto
          -18 hlineto
          -164 -65 73 89 13 1 13 3 13 hvcurveto
          -1 13 13 0 15 hhcurveto
          261 183 145 89 40 -36 28 -82 -193 -155 -148 -139 -35 hvcurveto
          -109 17 -46 58 68 vvcurveto
          106 112 128 154 26 vhcurveto
          -3 15 rlineto
          -176 -35 -121 -133 -110 vvcurveto
          -74 55 -64 130 -14 vhcurveto
          -3 -15 -1 -16 -14 vvcurveto
          hintmask 1101011110110110
          -96 69 -78 169 9 10 0 1 10 vhcurveto
          -70 2 44 -52 94 hhcurveto
          68 60 19 24 50 hvcurveto
          -8 -7 -7 -7 -5 -5 -54 -55 -65 -56 -63 -57 -33 31 -50 26 -66 17 rrcurveto
          13 27 7 25 22 vvcurveto
          48 -32 33 -74 -90 -89 -64 -79 -57 vhcurveto
          -192 -27 -87 -82 -66 vvcurveto
          -51 51 -42 97 vhcurveto
          endchar
        </CharString>
        <CharString name="H">
          807 -220 181 465 151 429 -20 hstemhm
          69 207 -33 33 351 31 -31 145 286 37 hintmask 11110011
          11 29 rmoveto
          76 180 64 232 79 vhcurveto
          -47 -48 -49 -47 -41 -38 rrcurveto
          -75 -82 -97 -48 -54 hhcurveto
          -26 -16 11 26 hvcurveto
          1403 745 rmoveto
          1 -78 -253 -162 -292 -115 rrcurveto
          191 172 231 179 7 callsubr
          12 9 -3 -12 hvcurveto
          -642 -813 rmoveto
          6 vlineto
          5 callgsubr
          -85 -108 -172 -168 vhcurveto
          -504 616 rmoveto
          121 19 147 156 166 hhcurveto
          80 36 -27 -37 -82 -173 -131 -250 hvcurveto
          136 429 rmoveto
          -229 -38 -141 -146 -114 vvcurveto
          hintmask 11101011
          -70 54 -58 120 -13 vhcurveto
          -2 vlineto
          -77 53 -62 125 95 102 52 46 71 vhcurveto
          -29 -27 -17 -19 -18 callgsubr
          -98 -107 -107 -108 vhcurveto
          -247 -85 -191 -53 -105 vvcurveto
          -25 18 -15 32 126 191 144 37 29 vhcurveto
          113 116 85 29 89 32 88 32 rlinecurve
          -87 -113 -57 -111 -80 vvcurveto
          -66 39 -45 96 -4 vhcurveto
          -94 8 56 -77 119 -71 callsubr
          -125 -56 72 88 -6 hvcurveto
          6 hlineto
          181 136 160 96 53 -32 24 -44 -99 -159 -121 -187 hvcurveto
          -13 vlineto
          hintmask 11110101
          -73 5 -30 34 52 vvcurveto
          85 83 133 113 130 vhcurveto
          304 117 271 169 91 vvcurveto
          18 -14 6 -20 -180 -264 -207 -209 -167 vhcurveto
          -87 -32 -88 -32 -84 -29 16 16 rcurveline
          0 161 176 24 26 vhcurveto
          24 25 93 95 60 50 55 45 84 42 16 7 -2 7 rcurveline
          -14 -1 -42 -19 0 vvcurveto
          -88 -41 -99 -81 -71 -66 rrcurveto
          -100 -127 -116 -37 -73 hhcurveto
          -106 -44 50 65 hvcurveto
          12 21 vlineto
          275 172 141 91 43 -39 33 -86 -215 -149 -163 -129 -11 hvcurveto
          -111 14 -49 54 65 vvcurveto
          110 141 141 217 30 vhcurveto
          endchar
        </CharString>
        <CharString name="I">
          -39 callsubr
          -5 callgsubr
          1035 402 rmoveto
          -10 -21 -12 -36 -4 vhcurveto
          14 13 11 13 14 14 rrcurveto
          12 -3 6 -6 -5 vvcurveto
          -120 -27 rmoveto
          -37 4 -26 9 -17 15 38 8 42 6 44 1 rrcurveto
          567 304 rmoveto
          -43 -110 -7 -134 -8 vhcurveto
          47 67 68 29 70 hhcurveto
          15 24 -3 -15 hvcurveto
          -314 -81 rmoveto
          -80 -57 -79 -74 -79 -77 -55 -1 -49 -7 -46 -11 rrcurveto
          -9 12 -4 14 15 vvcurveto
          142 207 28 194 16 vhcurveto
          -312 -280 rmoveto
          -126 -124 -128 -123 -137 -72 rrcurveto
          -8 15 -4 18 20 vvcurveto
          103 111 144 203 55 vhcurveto
          18 -19 30 -13 41 -4 rrcurveto
          -390 -347 rmoveto
          0 38 -50 89 61 85 23 78 112 vhcurveto
          -2 15 rlineto
          -72 -109 -82 -28 -63 hhcurveto
          -47 -38 15 25 -30 hvcurveto
          169 74 142 135 130 133 rrcurveto
          61 7 33 22 18 vvcurveto
          9 -9 9 -19 4 vhcurveto
          78 81 74 77 74 56 rrcurveto
          152 12 132 10 61 vvcurveto
          18 -10 7 -29 -91 -86 -36 -57 -86 vhcurveto
          -207 -14 -244 -28 -164 vvcurveto
          -17 4 -15 9 -13 vhcurveto
          -212 -59 -105 -148 -107 vvcurveto
          -22 4 -20 8 -18 vhcurveto
          -35 -72 -74 -22 -78 hhcurveto
          -105 -155 28 98 8 2 4 2 hvcurveto
          1 2 -1 2 hhcurveto
          14 10 14 11 7 -3 5 -8 1 hvcurveto
          0 -34 -1 -53 vvcurveto
          -119 192 -16 69 89 83 19 31 77 vhcurveto
          endchar
        </CharString>
        <CharString name="Iacute">
          -39 callsubr
          121 -20 -5 callgsubr
          1610 846 -92 callsubr
          -437 -387 rmoveto
          -10 -21 -12 -36 -4 vhcurveto
          14 13 11 13 14 14 rrcurveto
          12 -3 6 -6 -5 vvcurveto
          -120 -27 rmoveto
          -37 4 -26 9 -17 15 38 8 42 6 44 1 rrcurveto
          567 304 rmoveto
          -43 -110 -7 -134 -8 vhcurveto
          47 67 68 29 70 hhcurveto
          15 24 -3 -15 hvcurveto
          -314 -81 rmoveto
          -80 -57 -79 -74 -79 -77 -55 -1 -49 -7 -46 -11 rrcurveto
          -9 12 -4 14 15 vvcurveto
          142 207 28 194 16 vhcurveto
          -312 -280 rmoveto
          -126 -124 -128 -123 -137 -72 rrcurveto
          -8 15 -4 18 20 vvcurveto
          103 111 144 203 55 vhcurveto
          18 -19 30 -13 41 -4 rrcurveto
          -390 -347 rmoveto
          0 38 -50 89 61 85 23 78 112 vhcurveto
          -2 15 rlineto
          -72 -109 -82 -28 -63 hhcurveto
          -47 -38 15 25 -30 hvcurveto
          169 74 142 135 130 133 rrcurveto
          61 7 33 22 18 vvcurveto
          9 -9 9 -19 4 vhcurveto
          78 81 74 77 74 56 rrcurveto
          152 12 132 10 61 vvcurveto
          18 -10 7 -29 -91 -86 -36 -57 -86 vhcurveto
          -207 -14 -244 -28 -164 vvcurveto
          -17 4 -15 9 -13 vhcurveto
          -212 -59 -105 -148 -107 vvcurveto
          -22 4 -20 8 -18 vhcurveto
          -35 -72 -74 -22 -78 hhcurveto
          -105 -155 28 98 8 2 4 2 hvcurveto
          1 2 -1 2 hhcurveto
          14 10 14 11 7 -3 5 -8 1 hvcurveto
          0 -34 -1 -53 vvcurveto
          -119 192 -16 69 89 83 19 31 77 vhcurveto
          endchar
        </CharString>
        <CharString name="Icircumflex">
          -39 callsubr
          116 -20 -5 callgsubr
          1543 780 -87 callsubr
          -497 -372 rmoveto
          -10 -21 -12 -36 -4 vhcurveto
          14 13 11 13 14 14 rrcurveto
          12 -3 6 -6 -5 vvcurveto
          -120 -27 rmoveto
          -37 4 -26 9 -17 15 38 8 42 6 44 1 rrcurveto
          567 304 rmoveto
          -43 -110 -7 -134 -8 vhcurveto
          47 67 68 29 70 hhcurveto
          15 24 -3 -15 hvcurveto
          -314 -81 rmoveto
          -80 -57 -79 -74 -79 -77 -55 -1 -49 -7 -46 -11 rrcurveto
          -9 12 -4 14 15 vvcurveto
          142 207 28 194 16 vhcurveto
          -312 -280 rmoveto
          -126 -124 -128 -123 -137 -72 rrcurveto
          -8 15 -4 18 20 vvcurveto
          103 111 144 203 55 vhcurveto
          18 -19 30 -13 41 -4 rrcurveto
          -390 -347 rmoveto
          0 38 -50 89 61 85 23 78 112 vhcurveto
          -2 15 rlineto
          -72 -109 -82 -28 -63 hhcurveto
          -47 -38 15 25 -30 hvcurveto
          169 74 142 135 130 133 rrcurveto
          61 7 33 22 18 vvcurveto
          9 -9 9 -19 4 vhcurveto
          78 81 74 77 74 56 rrcurveto
          152 12 132 10 61 vvcurveto
          18 -10 7 -29 -91 -86 -36 -57 -86 vhcurveto
          -207 -14 -244 -28 -164 vvcurveto
          -17 4 -15 9 -13 vhcurveto
          -212 -59 -105 -148 -107 vvcurveto
          -22 4 -20 8 -18 vhcurveto
          -35 -72 -74 -22 -78 hhcurveto
          -105 -155 28 98 8 2 4 2 hvcurveto
          1 2 -1 2 hhcurveto
          14 10 14 11 7 -3 5 -8 1 hvcurveto
          0 -34 -1 -53 vvcurveto
          -119 192 -16 69 89 83 19 31 77 vhcurveto
          endchar
        </CharString>
        <CharString name="Idieresis">
          -39 callsubr
          55 51 -5 callgsubr
          1484 820 rmoveto
          -100 callgsubr
          -88 hmoveto
          -100 callgsubr
          -361 -418 rmoveto
          -10 -21 -12 -36 -4 vhcurveto
          14 13 11 13 14 14 rrcurveto
          12 -3 6 -6 -5 vvcurveto
          -120 -27 rmoveto
          -37 4 -26 9 -17 15 38 8 42 6 44 1 rrcurveto
          567 304 rmoveto
          -43 -110 -7 -134 -8 vhcurveto
          47 67 68 29 70 hhcurveto
          15 24 -3 -15 hvcurveto
          -314 -81 rmoveto
          -80 -57 -79 -74 -79 -77 -55 -1 -49 -7 -46 -11 rrcurveto
          -9 12 -4 14 15 vvcurveto
          142 207 28 194 16 vhcurveto
          -312 -280 rmoveto
          -126 -124 -128 -123 -137 -72 rrcurveto
          -8 15 -4 18 20 vvcurveto
          103 111 144 203 55 vhcurveto
          18 -19 30 -13 41 -4 rrcurveto
          -390 -347 rmoveto
          0 38 -50 89 61 85 23 78 112 vhcurveto
          -2 15 rlineto
          -72 -109 -82 -28 -63 hhcurveto
          -47 -38 15 25 -30 hvcurveto
          169 74 142 135 130 133 rrcurveto
          61 7 33 22 18 vvcurveto
          9 -9 9 -19 4 vhcurveto
          78 81 74 77 74 56 rrcurveto
          152 12 132 10 61 vvcurveto
          18 -10 7 -29 -91 -86 -36 -57 -86 vhcurveto
          -207 -14 -244 -28 -164 vvcurveto
          -17 4 -15 9 -13 vhcurveto
          -212 -59 -105 -148 -107 vvcurveto
          -22 4 -20 8 -18 vhcurveto
          -35 -72 -74 -22 -78 hhcurveto
          -105 -155 28 98 8 2 4 2 hvcurveto
          1 2 -1 2 hhcurveto
          14 10 14 11 7 -3 5 -8 1 hvcurveto
          0 -34 -1 -53 vvcurveto
          -119 192 -16 69 89 83 19 31 77 vhcurveto
          endchar
        </CharString>
        <CharString name="Igrave">
          -39 callsubr
          126 -20 -5 callgsubr
          1564 794 -95 callgsubr
          -391 -449 rmoveto
          -10 -21 -12 -36 -4 vhcurveto
          14 13 11 13 14 14 rrcurveto
          12 -3 6 -6 -5 vvcurveto
          -120 -27 rmoveto
          -37 4 -26 9 -17 15 38 8 42 6 44 1 rrcurveto
          567 304 rmoveto
          -43 -110 -7 -134 -8 vhcurveto
          47 67 68 29 70 hhcurveto
          15 24 -3 -15 hvcurveto
          -314 -81 rmoveto
          -80 -57 -79 -74 -79 -77 -55 -1 -49 -7 -46 -11 rrcurveto
          -9 12 -4 14 15 vvcurveto
          142 207 28 194 16 vhcurveto
          -312 -280 rmoveto
          -126 -124 -128 -123 -137 -72 rrcurveto
          -8 15 -4 18 20 vvcurveto
          103 111 144 203 55 vhcurveto
          18 -19 30 -13 41 -4 rrcurveto
          -390 -347 rmoveto
          0 38 -50 89 61 85 23 78 112 vhcurveto
          -2 15 rlineto
          -72 -109 -82 -28 -63 hhcurveto
          -47 -38 15 25 -30 hvcurveto
          169 74 142 135 130 133 rrcurveto
          61 7 33 22 18 vvcurveto
          9 -9 9 -19 4 vhcurveto
          78 81 74 77 74 56 rrcurveto
          152 12 132 10 61 vvcurveto
          18 -10 7 -29 -91 -86 -36 -57 -86 vhcurveto
          -207 -14 -244 -28 -164 vvcurveto
          -17 4 -15 9 -13 vhcurveto
          -212 -59 -105 -148 -107 vvcurveto
          -22 4 -20 8 -18 vhcurveto
          -35 -72 -74 -22 -78 hhcurveto
          -105 -155 28 98 8 2 4 2 hvcurveto
          1 2 -1 2 hhcurveto
          14 10 14 11 7 -3 5 -8 1 hvcurveto
          0 -34 -1 -53 vvcurveto
          -119 192 -16 69 89 83 19 31 77 vhcurveto
          endchar
        </CharString>
        <CharString name="J">
          234 -396 -20 27 -21 464 247 343 30 -18 115 7 -20 hstemhm
          177 26 260 31 651 35 hintmask 1011011110000000
          1109 763 rmoveto
          24 12 -8 -11 -23 -58 -38 -135 -9 hvcurveto
          -57 -4 rlineto
          58 76 72 35 66 hhcurveto
          -1070 -984 rmoveto
          91 78 91 96 91 100 rrcurveto
          1 8 8 0 8 hhcurveto
          91 36 -24 -35 -82 -207 -140 -167 -19 -17 2 4 -14 hvcurveto
          164 608 rmoveto
          87 125 126 298 35 vhcurveto
          1 -16 rlineto
          -134 -182 -184 -129 -73 -40 36 50 vhcurveto
          -254 -570 rmoveto
          2 -6 9 -15 21 -12 rrcurveto
          -108 -120 -108 -72 -86 hhcurveto
          -48 -22 15 24 99 352 255 294 49 hvcurveto
          -86 -91 -85 -87 -78 -72 rrcurveto
          -24 13 -12 14 0 vvcurveto
          -9 -6 rlineto
          371 245 rmoveto
          193 216 189 237 168 136 rrcurveto
          hintmask 1010101110000000
          24 1 23 2 23 2 rrcurveto
          136 10 104 59 32 vvcurveto
          hintmask 1011011110000000
          13 -16 8 -37 -75 -86 -42 -67 -92 vhcurveto
          -43 -2 -44 -2 -45 -1 -38 -1 -35 -2 -33 -3 rrcurveto
          hintmask 1010101110000000
          65 -17 -67 48 -141 -12 callgsubr
          6 -12 rlineto
          hintmask 0111011110000000
          0 187 166 177 138 65 -42 -59 18 vhcurveto
          -323 -32 -121 -129 -97 vvcurveto
          -62 50 -49 79 153 182 192 142 5 0 5 -1 5 vhcurveto
          33 4 35 2 38 1 34 1 34 1 33 3 -186 -143 -209 -236 -198 -213 rrcurveto
          -359 -41 -310 -267 -111 vvcurveto
          -30 22 -18 49 118 125 71 106 125 vhcurveto
          -4 15 18 -2 21 hhcurveto
          189 227 147 89 38 -42 28 -107 -9 -8 0 -1 -8 hvcurveto
          endchar
        </CharString>
        <CharString name="K">
          1167 17 callgsubr
          63 -43 141 -109 109 -95 95 471 -20 hstemhm
          -8 22 391 215 -47 30 -16 33 129 35 214 22 -22 131 -14 53 -23 23 252 37 hintmask 101001110101101010000000
          1058 419 rmoveto
          34 29 -13 -21 15 hvcurveto
          -1 -7 -6 0 -6 hhcurveto
          -47 -26 18 10 4 4 3 10 hvcurveto
          -632 -186 -79 callgsubr
          hintmask 110100111001010110000000
          -71 callgsubr
          719 -34 callgsubr
          -523 559 rmoveto
          -1 17 rlineto
          123 156 179 178 78 35 -30 -41 -94 -179 -154 -253 vhcurveto
          148 471 rmoveto
          -232 -39 -146 -164 -126 vvcurveto
          -79 58 -65 130 -10 vhcurveto
          hintmask 110010111001101010000000
          -56 16 54 -41 102 hhcurveto
          144 162 121 36 41 hvcurveto
          -6 8 rlineto
          hintmask 101001110011101010000000
          -105 callgsubr
          677 -201 -40 callgsubr
          hintmask 110100110101010110000000
          -75 callsubr
          32 25 21 23 188 200 rcurveline
          -11 19 33 -9 39 hhcurveto
          11 10 0 1 11 hvcurveto
          2 -6 2 -6 -7 -66 callgsubr
          hintmask 110100111001101010000000
          -33 callgsubr
          19 -4 15 -7 12 vhcurveto
          42 297 193 415 271 hhcurveto
          64 26 -29 -40 -82 -113 -126 -131 -33 -15 16 22 41 50 60 80 17 hvcurveto
          5 vlineto
          -85 -15 -57 -66 -46 vvcurveto
          -25 18 -19 39 153 111 130 88 44 -28 34 -66 -325 -219 -417 -38 -236 vhcurveto
          38 -28 -53 6 -14 hhcurveto
          -3 hlineto
          55 58 46 48 11 11 6 callsubr
        </CharString>
        <CharString name="L">
          922 -237 207 -13 166 -6 211 -48 callsubr
          hintmask 1010010111011100
          -69 callgsubr
          -2 callsubr
          hvcurveto
          4 callsubr
          hintmask 1001001111011100
          -56 callsubr
          121 67 109 96 99 99 -13 callsubr
          hintmask 1010101111011100
          -58 callsubr
          hintmask 1010010110111100
          -52 callsubr
          hintmask 1010101111011100
          8 callgsubr
          hintmask 0101010110111100
          -15 callsubr
          -96 -100 -103 -96 -114 -66 -55 callgsubr
          hintmask 1010101111011100
          -66 callsubr
        </CharString>
        <CharString name="Lslash">
          932 -237 207 -13 166 -6 130 -17 98 -48 callsubr
          hintmask 1010101011101110
          -69 callgsubr
          hvcurveto
          hintmask 1001001011101110
          -2 callsubr
          vhcurveto
          4 callsubr
          hintmask 1010100111101110
          -56 callsubr
          hintmask 1001010111101110
          87 48 80 63 76 68 rrcurveto
          178 hlineto
          5 1 4 7 5 vvcurveto
          hintmask 1010101011101110
          2 -1 2 -2 vhcurveto
          -166 hlineto
          23 21 23 23 22 22 -13 callsubr
          hintmask 1010010111101110
          -58 callsubr
          hintmask 1010101011011110
          -52 callsubr
          hintmask 1010101011101110
          8 callgsubr
          hintmask 1010101011011110
          -15 callsubr
          -24 -25 -24 -24 -25 -24 rrcurveto
          -194 hlineto
          -4 -4 -4 -5 hvcurveto
          hintmask 0101010111101110
          -4 3 -4 11 vhcurveto
          171 hlineto
          -70 -66 -74 -60 -79 -46 -55 callgsubr
          hintmask 1010101011101110
          -66 callsubr
        </CharString>
        <CharString name="M">
          1281 -186 -21 34 144 262 144 -14 63 -11 109 471 -20 hstemhm
          -18 22 411 215 -67 30 4 33 109 35 364 26 -26 107 296 37 hintmask 1101011011101100
          416 243 -95 callsubr
          hintmask 1110111100101100
          -71 callgsubr
          856 -262 rmoveto
          -4 -4 0 1 -3 hvcurveto
          5 vlineto
          132 137 177 109 30 20 -17 -40 -85 -117 -173 -168 vhcurveto
          -625 553 rmoveto
          5 -1 5 7 vvcurveto
          -105 callsubr
          hintmask 1101011011110100
          -105 callgsubr
          628 -1146 rmoveto
          -123 -49 54 71 -6 hvcurveto
          15 -1 rlineto
          181 136 160 96 58 -33 27 -45 -128 -141 -189 -139 hvcurveto
          -67 15 0 75 0 vvcurveto
          191 354 322 144 132 vhcurveto
          33 30 60 45 9 8 rrcurveto
          2 2 1 3 3 vvcurveto
          4 -2 3 -4 -2 -18 -12 -14 -24 vhcurveto
          -261 -153 -212 -200 -224 -236 rrcurveto
          0 -9 -10 -4 -2 -1 0 1 0 -1 -2 173 275 vhcurveto
          34 55 95 141 49 59 45 54 37 12 10 3 rrcurveto
          3 1 3 2 4 vvcurveto
          5 -3 1 -8 vhcurveto
          -79 -17 -94 -83 -46 -45 rrcurveto
          0 -310 -321 -172 -158 vhcurveto
          -6 callgsubr
          -34 33 -48 26 -60 18 rrcurveto
          -56 callgsubr
          hintmask 1110111100101100
          -86 callgsubr
          129 101 64 82 95 hvcurveto
          23 -30 12 -33 -33 vvcurveto
          -93 -92 -96 -195 -31 vhcurveto
          -11 vlineto
          224 34 98 98 96 vvcurveto
          40 -18 41 -33 35 vhcurveto
          10 9 11 9 10 10 rrcurveto
          168 155 311 320 -18 callgsubr
          97 94 20 vhcurveto
          -92 -83 -77 -108 -84 -137 rrcurveto
          -39 -63 -97 -162 -18 callgsubr
          -85 -137 -15 -21 vhcurveto
          0 -12 -16 -5 vvcurveto
          -5 1 -1 3 4 5 3 0 0 41 56 15 17 vhcurveto
          53 57 383 417 315 192 2 -2 rcurveline
          -147 -121 -386 -316 -202 vvcurveto
          -70 39 -49 54 -13 vhcurveto
          -78 4 50 -60 125 -71 callsubr
          endchar
        </CharString>
        <CharString name="N">
          771 -186 -21 440 140 -10 63 -11 109 227 110 134 -16 callgsubr
          hintmask 1010111101100000
          416 243 -95 callsubr
          hintmask 1101111101100000
          -71 callgsubr
          201 291 rmoveto
          5 -1 5 7 vvcurveto
          -105 callsubr
          hintmask 1010111011100000
          -105 callgsubr
          1045 -232 rmoveto
          75 31 -38 -52 hvcurveto
          hintmask 1101111101100000
          -109 -224 -179 -106 -32 -22 17 41 51 51 69 98 29 vhcurveto
          -3 10 rlineto
          -104 -25 -57 -79 -58 vvcurveto
          -48 29 -20 43 122 232 158 127 -97 callsubr
          -1 callsubr
        </CharString>
        <CharString name="Ntilde">
          771 -186 -21 194 246 0 140 -130 120 52 109 -98 85 240 79 -70 83 18 25 109 -16 callgsubr
          hintmask 1101101011110110
          1730 868 rmoveto
          -21 -12 -20 -17 -32 -68 callsubr
          -1305 -631 -95 callsubr
          -71 callgsubr
          201 291 rmoveto
          5 -1 5 7 vvcurveto
          hintmask 1010100111110110
          -105 callsubr
          hintmask 1010011011101110
          -105 callgsubr
          1045 -232 rmoveto
          75 31 -38 -52 -51 callgsubr
          232 158 127 vhcurveto
          hintmask 1010100111110110
          -97 callsubr
          hintmask 1010101011110110
          -1 callsubr
        </CharString>
        <CharString name="O">
          -81 callgsubr
          678 697 -96 callgsubr
          hintmask 1101111110100000
          -90 callsubr
          hintmask 1011111110100000
          -106 callsubr
        </CharString>
        <CharString name="OE">
          861 -186 -21 131 49 270 111 -111 135 -135 204 -106 58 -37 -31 callsubr
          16 49 185 -20 106 -20 hstemhm
          -160 34 143 20 4 38 69 26 344 224 -143 60 -26 26 63 20 181 28 -2 20 133 39 252 26 hintmask 111000101111111100010110
          1098 354 rmoveto
          hintmask 110100011111111100010110
          -70 callgsubr
          hvcurveto
          hintmask 111000101111111010110110
          2 callgsubr
          vhcurveto
          -376 310 rmoveto
          -27 -23 -39 -38 -41 vhcurveto
          -2 7 0 8 7 vvcurveto
          38 18 40 30 34 vhcurveto
          10 -6 5 -9 -12 vvcurveto
          48 -347 rmoveto
          32 38 29 38 25 37 rrcurveto
          15 hlineto
          20 19 0 2 20 hvcurveto
          6 -17 10 -17 14 -13 -74 -14 -64 -24 -52 -30 rrcurveto
          -404 -343 rmoveto
          80 40 85 62 79 73 rrcurveto
          -7 -20 -4 -20 -18 vvcurveto
          -11 1 -10 3 -10 vhcurveto
          -77 -42 -80 -35 -80 -9 rrcurveto
          283 122 rmoveto
          41 17 46 35 43 vhcurveto
          46 -10 39 -14 31 -17 -54 -30 -56 -35 -58 -34 rrcurveto
          10 vlineto
          153 -123 rmoveto
          -84 -48 35 50 -16 hvcurveto
          69 37 61 42 55 34 rrcurveto
          51 -35 25 -43 -45 vvcurveto
          -21 -5 -21 -10 -20 vhcurveto
          -8 -30 -33 -5 -35 hhcurveto
          300 203 rmoveto
          -61 -71 -87 -113 -36 vhcurveto
          8 18 4 20 19 vvcurveto
          48 -25 46 -52 37 vhcurveto
          36 60 53 26 47 hhcurveto
          62 27 -28 -38 hvcurveto
          hintmask 110100011111111001110110
          -859 202 rmoveto
          168 132 183 151 7 callsubr
          4 3 0 -1 3 hvcurveto
          -34 -37 -21 -45 -42 vvcurveto
          -13 1 -12 4 -12 vhcurveto
          -79 -85 -140 -78 -151 hhcurveto
          hintmask 110010011111111100001110
          480 290 rmoveto
          16 -7 13 -14 8 vhcurveto
          36 38 52 25 56 hhcurveto
          57 25 -27 -46 -60 -42 -89 -65 -97 hvcurveto
          -103 8 -54 37 -19 46 rrcurveto
          48 48 28 48 34 vvcurveto
          651 14 rmoveto
          hintmask 110100011111111100010110
          -73 -208 -136 -234 -24 vhcurveto
          111 2 179 168 161 hhcurveto
          70 30 -18 -28 hvcurveto
          -750 -474 rmoveto
          -101 -102 -112 -89 -99 -46 rrcurveto
          -8 hlineto
          -96 -53 46 54 78 109 94 243 51 45 -4 -6 41 hvcurveto
          -7 -9 -7 -8 -6 -8 rrcurveto
          hintmask 111000101111111100010110
          -549 398 rmoveto
          -19 -17 1 2 -17 hvcurveto
          156 28 157 177 186 hhcurveto
          75 31 -27 -39 -98 -200 -172 -224 hvcurveto
          157 -244 rmoveto
          161 144 75 81 90 hvcurveto
          23 -45 58 -35 103 -7 -37 -53 -44 -55 -48 -54 -6 callgsubr
          rrcurveto
          7 -39 -44 3 -48 hhcurveto
          -277 -119 -103 -84 -59 57 -48 100 -1 hvcurveto
          -15 -37 -35 -8 -32 hhcurveto
          -87 -35 41 62 83 63 123 89 116 hvcurveto
          20 hlineto
          620 415 rmoveto
          -66 -59 -27 -40 -43 hvcurveto
          hintmask 110001011111111100010110
          1 -6 -6 1 -7 -83 callsubr
          45 50 14 23 52 vhcurveto
          101 6 90 30 81 39 rrcurveto
          -45 24 58 -32 97 hhcurveto
          35 33 4 6 31 hvcurveto
          -43 -67 -98 -62 -153 -34 1 -13 rcurveline
          166 34 105 71 41 76 rrcurveto
          143 35 89 95 70 vvcurveto
          45 -38 35 -85 -57 -62 -25 -36 -67 vhcurveto
          -32 19 -40 16 -49 10 54 61 87 53 119 23 rrcurveto
          -22 28 39 -12 52 hhcurveto
          hintmask 110100011111111100010110
          46 39 20 17 hvcurveto
          hintmask 110001011111111100010110
          11 -18 10 -46 -48 -45 -4 -7 -42 vhcurveto
          -14 13 -8 16 -3 18 rrcurveto
          247 27 221 146 81 vvcurveto
          32 -35 22 -82 -248 -131 -148 -117 vhcurveto
          hintmask 110010011111111100001110
          -11 1 -10 2 -10 vhcurveto
          -1 -15 -15 0 -14 hhcurveto
          -15 hlineto
          62 95 40 88 62 vvcurveto
          53 -29 33 -69 vhcurveto
          endchar
        </CharString>
        <CharString name="Oacute">
          -81 callgsubr
          918 822 -76 callsubr
          -378 -182 -96 callgsubr
          hintmask 1101111110100000
          -90 callsubr
          hintmask 1011111110100000
          -106 callsubr
        </CharString>
        <CharString name="Ocircumflex">
          -81 callgsubr
          961 809 -68 callgsubr
          -294 -118 -96 callgsubr
          hintmask 1101111110100000
          -90 callsubr
          hintmask 1011111110100000
          -106 callsubr
        </CharString>
        <CharString name="Odieresis">
          0 callsubr
          75 121 -20 106 -20 hstemhm
          -160 34 143 20 4 38 439 224 -20 20 207 20 hintmask 1101111110110000
          885 853 rmoveto
          -88 callsubr
          -88 hmoveto
          -88 callsubr
          -119 -156 -96 callgsubr
          hintmask 1101111111010000
          -90 callsubr
          hintmask 1011111111010000
          -106 callsubr
        </CharString>
        <CharString name="Ograve">
          -81 callgsubr
          973 813 -95 callgsubr
          -157 -173 -96 callgsubr
          hintmask 1101111110100000
          -90 callsubr
          hintmask 1011111110100000
          -106 callsubr
        </CharString>
        <CharString name="Oslash">
          351 -106 -21 489 -31 callsubr
          250 -20 106 -20 hstemhm
          -160 34 143 20 4 38 643 247 -20 20 hintmask 1101111110000000
          678 697 rmoveto
          30 14 -12 -21 -9 -3 -9 -4 -11 hvcurveto
          -39 -61 rlineto
          -90 -76 -162 -106 -176 hhcurveto
          -19 hlineto
          168 132 183 151 7 callsubr
          -584 -91 rmoveto
          -19 -17 1 2 -17 hvcurveto
          156 28 157 177 186 hhcurveto
          75 31 -27 -39 -98 -200 -172 -224 hvcurveto
          -15 -566 rmoveto
          83 63 123 89 116 vhcurveto
          20 hlineto
          154 138 69 76 90 hvcurveto
          -360 -558 rlineto
          -7 -25 -25 -5 -22 hhcurveto
          -87 -35 41 62 hvcurveto
          hintmask 1011111101000000
          870 653 rmoveto
          -177 -371 -444 -268 -110 vhcurveto
          514 796 rlineto
          5 17 16 3 10 hhcurveto
          57 25 -27 -46 hvcurveto
          -150 72 rmoveto
          -34 -10 -26 -14 -7 vvcurveto
          -7 15 -4 0 vhcurveto
          7 7 11 6 12 6 -43 -66 rcurveline
          22 -3 -18 14 -36 -83 callsubr
          22 24 4 6 25 vhcurveto
          -34 -53 23 -8 46 72 rlineto
          287 101 383 453 192 vvcurveto
          53 -29 33 -69 -12 -13 -2 -2 -12 vhcurveto
          66 103 -22 12 rlineto
          endchar
        </CharString>
        <CharString name="Otilde">
          0 callsubr
          61 -61 98 98 -20 106 -20 hstemhm
          -160 34 143 20 4 38 439 224 -20 20 207 20 hintmask 1101011111101000
          1027 865 rmoveto
          -21 -12 -20 -17 -32 hhcurveto
          hintmask 1100111111011000
          -68 callsubr
          -340 -174 -96 callgsubr
          hintmask 1101011111101000
          -90 callsubr
          hintmask 1011011111101000
          -106 callsubr
        </CharString>
        <CharString name="P">
          625 1 callgsubr
          -27 54 -41 41 366 121 hstemhm
          2 -24 callsubr
          255 29 285 40 304 29 hintmask 1001110111111000
          436 233 -81 callsubr
          44 45 56 52 61 44 rrcurveto
          17 -22 8 -24 -26 15 callgsubr
          vhcurveto
          -13 hlineto
          80 85 84 88 15 15 rrcurveto
          hintmask 1100101111111000
          -757 -320 -89 callsubr
          232 244 -20 callgsubr
          -7 callsubr
          hintmask 1010110111111000
          -35 callgsubr
          256 -113 rmoveto
          29 -5 -74 -77 -87 -90 -45 -44 rlinecurve
          -3 callsubr
          hintmask 1100110111111000
          47 -31 33 -70 -117 -96 -71 -81 -48 vhcurveto
          -91 callgsubr
          35 27 30 25 22 22 7 8 66 69 72 76 rrcurveto
          hintmask 1010110111111000
          -1 15 14 0 15 hhcurveto
          219 154 140 121 36 -14 34 -29 28 hvcurveto
          44 66 71 32 67 -74 callgsubr
          -76 -80 -30 -45 -75 vhcurveto
          36 -48 -78 23 -115 hhcurveto
          -10 -21 -80 callgsubr
          -275 -22 -148 -175 -107 vvcurveto
          -49 31 -35 64 -53 callgsubr
          vhcurveto
          0 12 1 9 114 74 -24 -37 40 vhcurveto
          -103 -64 -93 -89 -65 -71 rrcurveto
          0 -50 -52 -63 -65 vhcurveto
          -10 1 -10 2 -10 2 rrcurveto
          endchar
        </CharString>
        <CharString name="Q">
          885 -248 222 -37 172 -156 170 -31 191 -174 174 470 127 hstemhm
          789 25 262 43 3 21 hintmask 1001011110000000
          993 -26 rmoveto
          -76 -91 17 22 -97 hvcurveto
          hintmask 1000111110000000
          54 40 80 42 7 callsubr
          106 47 -33 -34 -34 -48 -34 -81 hvcurveto
          hintmask 1001011110000000
          -805 118 rmoveto
          98 101 -28 -31 111 hvcurveto
          -119 -51 -126 -31 -122 -1 rrcurveto
          -78 -38 28 31 39 60 44 113 hvcurveto
          72 248 rmoveto
          117 240 259 287 33 vhcurveto
          1 -7 1 -7 -7 vvcurveto
          -173 -247 -272 -213 -47 -22 22 35 vhcurveto
          -77 320 rmoveto
          114 90 207 95 118 hhcurveto
          118 56 -45 -64 14 hvcurveto
          -311 -36 -233 -263 -125 vvcurveto
          -40 24 -26 53 280 215 260 180 14 -1 14 -3 13 vhcurveto
          1 12 12 1 13 hhcurveto
          162 67 -58 -85 -159 -236 -253 -293 -142 hvcurveto
          hintmask 0100011110000000
          28 -119 -117 25 -98 hhcurveto
          -145 -69 -54 -48 -37 43 -33 81 143 142 33 53 129 hvcurveto
          50 -14 51 -13 55 -12 rrcurveto
          -10 -22 -5 -22 -23 vvcurveto
          hintmask 1001011110000000
          -85 77 -80 160 54 26 16 0 vhcurveto
          -5 10 rlineto
          -13 -27 -36 -2 -22 hhcurveto
          -137 -71 77 81 20 4 20 9 20 hvcurveto
          hintmask 0010011110000000
          -16 80 86 -12 95 hhcurveto
          110 62 47 44 40 -51 39 -113 -131 -89 -47 -60 -45 hvcurveto
          -41 10 -42 11 -41 9 rrcurveto
          305 142 224 248 164 vvcurveto
          97 -78 68 -184 -17 -17 -1 -1 -16 vhcurveto
          69 -20 -62 48 -117 hhcurveto
          -138 -202 -97 -117 -94 hvcurveto
          endchar
        </CharString>
        <CharString name="R">
          1182 17 callgsubr
          53 -32 32 -13 49 330 121 hstemhm
          -8 -24 callsubr
          116 168 -60 22 -22 131 -100 29 57 53 -23 23 182 32 38 37 230 29 hintmask 101001101111000101110000
          1055 426 rmoveto
          32 -6 23 -10 16 -11 rrcurveto
          -8 -33 -37 -5 -39 hhcurveto
          -10 45 rmoveto
          -12 -12 -13 -14 -15 -16 6 callgsubr
          10 10 0 -1 9 vhcurveto
          -581 -198 -81 callsubr
          -2 callgsubr
          -84 -85 -94 -131 -39 vhcurveto
          -18 15 -26 11 -35 6 50 53 42 44 10 10 rrcurveto
          hintmask 110101011110010011110000
          -757 -320 -89 callsubr
          729 -34 callgsubr
          -512 524 -20 callgsubr
          hintmask 110101101110101011110000
          -7 callsubr
          -35 callgsubr
          536 -149 rmoveto
          24 -7 21 -14 17 vhcurveto
          154 38 81 91 85 vvcurveto
          34 -13 33 -26 28 vhcurveto
          43 65 70 31 66 -74 callgsubr
          -75 -78 -29 -43 -74 vhcurveto
          40 -49 -80 28 -116 hhcurveto
          -12 -19 -80 callgsubr
          -275 -22 -148 -175 -107 vvcurveto
          hintmask 110011101111000101110000
          -49 31 -35 64 -53 callgsubr
          vhcurveto
          0 12 1 9 120 76 -27 -40 42 vhcurveto
          -107 -65 -97 -92 -67 -73 rrcurveto
          0 -13 -14 -21 -22 vhcurveto
          1 -10 -9 0 -10 hhcurveto
          -60 -28 -16 -16 -14 18 -13 36 -6 hvcurveto
          -79 -82 -103 -107 -51 -50 -3 callsubr
          47 -31 33 -70 -117 -96 -71 -81 -48 vhcurveto
          -91 callgsubr
          35 27 30 25 22 22 rrcurveto
          hintmask 110101101110010011110000
          8 9 84 90 83 87 rrcurveto
          49 45 6 8 40 hvcurveto
          10 -10 5 -12 -11 -66 callgsubr
          hintmask 110101101110101011110000
          -33 callgsubr
          endchar
        </CharString>
        <CharString name="S">
          596 1 callgsubr
          -34 34 422 -18 callsubr
          498 353 -103 callsubr
        </CharString>
        <CharString name="Scaron">
          596 1 callgsubr
          -34 34 545 -18 callsubr
          1405 906 -75 callgsubr
          -918 -559 -103 callsubr
        </CharString>
        <CharString name="T">
          620 -213 -21 440 144 396 14 callsubr
          -8 22 559 30 146 35 hintmask 1110111110000000
          426 216 -79 callgsubr
          203 120 rmoveto
          50 46 -6 -9 39 hvcurveto
          -45 -77 -98 -88 -117 -42 rrcurveto
          -44 23 -19 38 44 vvcurveto
          32 10 35 19 33 vhcurveto
          10 47 53 7 59 hhcurveto
          305 315 -86 callsubr
          hintmask 1101011110000000
          -133 -213 67 -170 hhcurveto
          -10 -9 0 -1 -9 hvcurveto
          hintmask 1110111110000000
          60 -19 -65 43 -133 -12 callgsubr
          915 -17 -40 callgsubr
          -75 callsubr
          31 26 22 22 16 17 290 309 29 29 6 callsubr
        </CharString>
        <CharString name="Thorn">
          625 -196 -21 405 54 -13 138 241 121 59 -20 hstemhm
          2 22 -22 230 292 32 27 30 146 35 159 29 285 40 400 29 hintmask 1101110111111000
          583 290 rmoveto
          -10 -2 -10 -3 -11 vhcurveto
          -15 13 -7 19 24 vvcurveto
          7 1 9 1 8 vhcurveto
          17 -11 8 -17 -21 vvcurveto
          -147 -57 -59 callsubr
          73 46 86 62 99 hhcurveto
          11 10 -1 -2 8 hvcurveto
          -3 -13 -2 -12 -12 vvcurveto
          -35 15 -28 32 -13 vhcurveto
          -3 -7 -3 -4 -3 -6 rrcurveto
          8 -38 -42 5 -46 hhcurveto
          -119 -242 rmoveto
          127 43 97 86 44 79 57 -18 43 -27 29 -33 -4 -4 rcurveline
          -72 -74 -148 -68 -23 callsubr
          -293 50 rmoveto
          54 80 72 140 35 vhcurveto
          -18 -33 -9 -34 -32 vvcurveto
          -60 callsubr
          hvcurveto
          396 182 rmoveto
          50 46 -6 -9 39 hvcurveto
          -45 -77 -98 -88 -117 -43 rrcurveto
          hintmask 1011101111111000
          -44 24 -19 38 44 vvcurveto
          32 10 35 19 33 vhcurveto
          10 47 53 7 59 hhcurveto
          172 -11 rmoveto
          3 6 3 6 2 6 rrcurveto
          -1 6 6 0 7 hhcurveto
          -53 callgsubr
          hvcurveto
          0 11 1 10 73 56 -10 -17 42 vhcurveto
          -41 -36 -37 -37 -30 -33 rrcurveto
          0 -244 -254 -86 -85 vhcurveto
          1 callsubr
          266 -6 rmoveto
          66 71 227 240 26 26 24 24 rcurveline
          46 -27 20 -39 -41 15 callgsubr
          -19 -19 1 2 -19 vhcurveto
          -245 81 rmoveto
          33 -16 26 -34 13 vhcurveto
          31 100 134 132 221 17 rrcurveto
          -7 callsubr
          hintmask 1101110111111000
          -139 -164 -193 -158 -10 -8 1 2 -8 vhcurveto
          5 15 3 14 13 vvcurveto
          hintmask 1011110111111000
          -101 80 rmoveto
          -117 -96 -71 -81 -48 hvcurveto
          -91 callgsubr
          hintmask 1101110111111000
          35 27 30 25 22 22 1 1 2 2 3 4 rrcurveto
          -5 30 29 -2 28 hhcurveto
          219 154 140 121 51 -28 49 -64 32 hvcurveto
          91 96 133 103 120 -74 callgsubr
          -134 -144 -94 -99 -114 vhcurveto
          16 -45 -58 9 -73 hhcurveto
          -21 -10 -80 callgsubr
          -234 -19 -141 -128 -38 -105 rrcurveto
          hintmask 1011110111111000
          1 -7 -7 1 -8 hhcurveto
          endchar
        </CharString>
        <CharString name="U">
          -84 callsubr
          1058 702 -106 callgsubr
        </CharString>
        <CharString name="Uacute">
          -84 callsubr
          807 774 -76 callsubr
          113 -129 -106 callgsubr
        </CharString>
        <CharString name="Ucircumflex">
          -84 callsubr
          861 750 -68 callgsubr
          186 -54 -106 callgsubr
        </CharString>
        <CharString name="Udieresis">
          -84 callsubr
          794 802 rmoveto
          -88 callsubr
          -88 hmoveto
          -88 callsubr
          352 -100 -106 callgsubr
        </CharString>
        <CharString name="Ugrave">
          -84 callsubr
          854 756 -95 callgsubr
          342 -111 -106 callgsubr
        </CharString>
        <CharString name="V">
          568 -256 223 580 199 -137 167 hstemhm
          100 194 241 24 167 23 295 80 hintmask 10111110
          1110 709 rmoveto
          -35 -14 -40 -23 -44 vhcurveto
          -10 18 -4 22 23 vvcurveto
          41 15 38 22 8 6 -8 -15 vhcurveto
          -903 -380 rmoveto
          -19 -17 3 8 -14 hvcurveto
          149 105 138 120 99 hhcurveto
          25 11 -12 -18 -102 -205 -148 -123 hvcurveto
          917 372 rmoveto
          hintmask 11011110
          32 -10 13 -14 -35 -21 -47 -48 -28 7 -28 14 -20 vhcurveto
          -253 -142 -446 -355 -140 hhcurveto
          -27 -16 13 30 hvcurveto
          148 455 204 239 vvcurveto
          hintmask 10111110
          126 -75 49 -98 -192 -284 -187 -166 -43 13 -28 23 -17 vhcurveto
          -82 -121 -58 -139 -112 vvcurveto
          -126 72 -93 191 235 287 170 242 69 vhcurveto
          -15 -2 rlineto
          -219 -66 -266 -178 -234 hhcurveto
          -189 -70 88 120 109 58 135 80 118 hvcurveto
          -9 17 20 -4 23 hhcurveto
          136 215 145 113 30 -17 20 -33 -113 -145 -121 -152 -106 hvcurveto
          -18 15 -10 25 36 vvcurveto
          166 281 174 180 85 63 -39 -97 vhcurveto
          -193 -449 -225 -190 vvcurveto
          -48 23 -20 38 160 431 363 248 146 vhcurveto
          hintmask 11011110
          -11 11 15 -6 19 hhcurveto
          81 65 83 0 hvcurveto
          -9 4 rlineto
          -19 -12 -65 -56 -52 hhcurveto
          -20 -14 7 11 -11 hvcurveto
          26 47 15 43 34 vvcurveto
          endchar
        </CharString>
        <CharString name="W">
          398 -76 -21 936 -20 hstemhm
          -115 20 546 107 -22 22 -22 208 783 28 hintmask 11100110
          714 699 rmoveto
          8 4 -3 -4 -24 -100 -57 -75 -17 hvcurveto
          57 63 53 41 53 1 rrcurveto
          -313 -708 rmoveto
          0 55 57 65 78 vhcurveto
          65 78 91 133 -18 callgsubr
          230 324 58 27 vhcurveto
          0 8 8 4 vvcurveto
          1 -1 1 -2 -16 -99 -63 -27 -35 vhcurveto
          -37 -28 -137 -122 -31 -27 -31 -26 -256 -230 -56 -45 -56 -44 -151 -124 -45 -7 222 175 158 284 137 161 rrcurveto
          86 10 121 70 39 vvcurveto
          9 -8 6 -18 -69 -71 -50 -74 -73 vhcurveto
          -22 1 -14 10 22 vvcurveto
          hintmask 11101010
          34 89 50 62 vvcurveto
          42 -39 29 -59 -301 -274 -278 -144 -50 33 -34 77 87 146 91 28 18 vhcurveto
          -10 7 rlineto
          -46 -33 -148 -67 -52 hhcurveto
          -68 -30 31 45 135 262 268 286 1 hvcurveto
          66 17 -31 -9 hvcurveto
          hintmask 11110010
          -65 -85 -33 -53 vvcurveto
          -33 18 -17 27 -5 vhcurveto
          -173 -181 -179 -316 -157 -134 rrcurveto
          0 -28 -21 -2 -10 vhcurveto
          -2 vlineto
          -4 2 -1 2 2 3 0 1 4 vhcurveto
          49 10 227 165 85 76 rrcurveto
          49 44 196 174 -18 callgsubr
          261 237 47 24 vhcurveto
          0 -108 -109 -51 -59 vhcurveto
          -52 -60 -149 -212 -18 callgsubr
          -189 -256 -31 -22 vhcurveto
          -5 -4 -7 -9 -5 vvcurveto
          -2 1 -1 3 6 8 6 0 0 44 26 43 34 vhcurveto
          237 188 231 211 277 228 rrcurveto
          72 87 111 51 81 hhcurveto
          62 44 -31 -75 -51 callgsubr
          233 161 127 96 -54 38 -72 -91 -106 -45 -75 -93 vhcurveto
          0 -710 -602 -28 -21 vhcurveto
          endchar
        </CharString>
        <CharString name="X">
          724 -290 159 839 128 hstemhm
          496 28 -28 150 -11 45 -28 28 123 57 72 37 hintmask 11010111
          59 -81 rmoveto
          -32 -8 17 21 70 185 68 251 85 hvcurveto
          33 11 29 11 27 11 -164 -158 -202 -134 -119 -2 rrcurveto
          873 229 rmoveto
          -137 -165 -124 -120 -16 vhcurveto
          -1 8 0 9 9 vvcurveto
          5 callgsubr
          vhcurveto
          -173 163 rmoveto
          -11 -4 -10 -4 -9 -4 rrcurveto
          191 182 255 184 112 hhcurveto
          12 9 -3 -12 hvcurveto
          -1 vlineto
          -81 -234 -150 -306 -116 vhcurveto
          -484 125 rmoveto
          97 137 170 231 5 vhcurveto
          6 -16 3 -18 -18 vvcurveto
          -164 -187 -133 -111 -46 -33 23 54 vhcurveto
          528 173 rmoveto
          -95 -104 -147 -134 -134 vhcurveto
          -43 -17 -44 -17 -54 -18 rrcurveto
          -243 -84 -180 -62 -83 vvcurveto
          -33 23 -10 32 141 222 135 160 175 vhcurveto
          -60 -84 -38 -79 -60 vvcurveto
          -87 56 -35 73 4 5 0 1 5 vhcurveto
          -84 14 56 -66 110 -71 callsubr
          -116 -56 62 79 -13 hvcurveto
          138 13 183 122 140 vvcurveto
          53 -32 24 -44 vhcurveto
          hintmask 11101011
          -99 -159 -121 -187 -12 0 -12 2 -11 hvcurveto
          -1 -5 -5 0 -4 hhcurveto
          -57 -42 29 73 77 79 117 109 117 hvcurveto
          13 5 13 4 15 6 rrcurveto
          315 117 246 156 93 vvcurveto
          18 -14 6 -20 -135 -199 -124 -152 -164 vhcurveto
          48 70 30 66 53 vvcurveto
          73 -56 48 -139 vhcurveto
          -5 hlineto
          66 -33 -79 49 -132 hhcurveto
          -138 -202 -97 -117 -94 hvcurveto
          9 -6 rlineto
          114 90 207 95 118 hhcurveto
          133 72 -44 -61 28 hvcurveto
          -251 -11 -128 -171 -104 vvcurveto
          -64 42 -28 57 124 197 130 166 24 -5 24 -9 23 vhcurveto
          97 -3 40 -38 -59 vvcurveto
          endchar
        </CharString>
        <CharString name="Y">
          272 -499 -20 27 -21 1259 -46 callgsubr
          hintmask 10111011
          1117 708 -103 callgsubr
          hintmask 10110101
          -57 callgsubr
          -63 callgsubr
          vhcurveto
          hintmask 01111011
          236 154 181 148 18 -3 19 -5 17 hvcurveto
          -89 callgsubr
        </CharString>
        <CharString name="Yacute">
          272 -499 -20 27 -21 1259 -46 callgsubr
          hintmask 10111011
          747 764 -76 callsubr
          232 -113 -103 callgsubr
          hintmask 10110101
          -57 callgsubr
          -63 callgsubr
          vhcurveto
          hintmask 01111011
          236 154 181 148 18 -3 19 -5 17 hvcurveto
          -89 callgsubr
        </CharString>
        <CharString name="Ydieresis">
          272 -499 -20 27 -21 1221 49 -11 -46 callgsubr
          hintmask 1010110110000000
          832 775 rmoveto
          -88 callsubr
          -88 hmoveto
          -88 callsubr
          373 -67 -103 callgsubr
          hintmask 1010101010000000
          -57 callgsubr
          hintmask 0101110110000000
          -63 callgsubr
          236 154 181 148 18 -3 19 -5 17 vhcurveto
          -89 callgsubr
        </CharString>
        <CharString name="Z">
          -38 callsubr
          3 callsubr
          hintmask 1010101111000000
          199 66 -85 callgsubr
          hintmask 1010011111000000
          -70 callsubr
          hintmask 1010101111000000
          -59 callgsubr
          hintmask 0101011111000000
          -73 callgsubr
          hintmask 1010101110100000
          -73 callsubr
        </CharString>
        <CharString name="Zcaron">
          -38 callsubr
          114 -20 3 callsubr
          hintmask 1010101111100000
          1117 946 -75 callgsubr
          -929 -886 -85 callgsubr
          hintmask 1010011111100000
          -70 callsubr
          hintmask 1010101111100000
          -59 callgsubr
          hintmask 0101011111100000
          -73 callgsubr
          hintmask 1010101111010000
          -73 callsubr
        </CharString>
        <CharString name="a">
          -54 callgsubr
          204 -20 -46 callsubr
          hintmask 01111000
          -62 callsubr
          hintmask 10011000
          -96 callsubr
          endchar
        </CharString>
        <CharString name="aacute">
          -54 callgsubr
          320 -20 -46 callsubr
          hintmask 10111000
          -7 -2 -99 callsubr
          76 88 -33 callsubr
        </CharString>
        <CharString name="acircumflex">
          -54 callgsubr
          323 -20 -46 callsubr
          hintmask 10111000
          298 212 -87 callsubr
          -294 -208 -99 callsubr
          endchar
        </CharString>
        <CharString name="acute">
          172 10 callsubr
          359 270 -33 callsubr
        </CharString>
        <CharString name="adieresis">
          -54 callgsubr
          189 108 -51 51 -46 callsubr
          hintmask 10011100
          272 -25 callsubr
          -88 hmoveto
          -100 callgsubr
          -191 -238 -44 callsubr
          hvcurveto
          hintmask 01101100
          -72 callgsubr
          -6 -34 -29 0 vhcurveto
          -46 -54 -106 -74 -56 hhcurveto
          290 184 rmoveto
          -3 -2 -2 13 callsubr
          -3 -3 -5 -4 -5 -4 rrcurveto
          hintmask 10011100
          -91 callsubr
          hintmask 01101100
          -61 callgsubr
        </CharString>
        <CharString name="ae">
          104 -18 199 9 -20 hstemhm
          -43 25 178 31 hintmask 01110000
          375 -22 callgsubr
          -382 -178 -43 callsubr
          -12 -172 -143 -78 hvcurveto
          198 29 -21 callsubr
          -39 -41 -13 -18 -36 vhcurveto
          hintmask 10110000
          6 -7 -27 16 -39 hhcurveto
          -162 -80 -115 -55 -18 8 -11 16 54 78 49 46 62 hvcurveto
          -10 -16 -5 -15 -13 vvcurveto
          -36 24 -15 36 53 78 33 50 71 vhcurveto
          -2 15 rlineto
          -53 -73 -73 -29 -43 hhcurveto
          -25 -15 9 20 hvcurveto
          endchar
        </CharString>
        <CharString name="agrave">
          -54 callgsubr
          320 -20 -46 callsubr
          hintmask 10111000
          311 213 -95 callgsubr
          -180 -272 -99 callsubr
          endchar
        </CharString>
        <CharString name="ampersand">
          369 -199 183 -20 20 860 -20 hstemhm
          106 48 -48 196 -18 208 -19 194 -31 31 203 23 hintmask 1011010110000000
          870 802 rmoveto
          -1 -81 -126 -68 -149 -74 rrcurveto
          143 64 88 109 92 hhcurveto
          20 12 -11 -18 hvcurveto
          -378 -668 rmoveto
          37 3 40 5 41 vhcurveto
          3 15 14 2 16 hhcurveto
          60 31 -40 -49 -58 -42 -70 -87 -35 hvcurveto
          -10 37 -5 44 48 vvcurveto
          hintmask 1010101010000000
          -19 -5 rmoveto
          -48 5 -44 10 -38 vhcurveto
          -9 -29 -35 -6 -38 hhcurveto
          -31 -28 2 5 -25 hvcurveto
          7 vlineto
          103 71 114 109 33 vhcurveto
          -6 -41 -3 -40 -38 vvcurveto
          88 410 rmoveto
          -36 -88 -27 -97 -14 -92 rrcurveto
          hintmask 1011010110000000
          -124 -34 -76 -120 -109 vvcurveto
          -5 vlineto
          -81 19 -49 52 111 vvcurveto
          163 210 104 197 96 vhcurveto
          -455 -381 rmoveto
          -127 80 -48 100 -14 vhcurveto
          -91 12 69 -77 146 -71 callsubr
          -143 -67 71 85 -13 hvcurveto
          hintmask 0111010110000000
          -2 20 20 -1 20 hhcurveto
          48 43 8 12 37 hvcurveto
          22 -65 41 -43 63 -7 rrcurveto
          2 1 8 5 3 -1 0 -1 hvcurveto
          -54 9 -34 40 -19 58 rrcurveto
          hintmask 1011001010000000
          101 40 54 80 64 vvcurveto
          53 -37 42 -76 -18 -17 -2 -3 -17 vhcurveto
          14 94 28 100 37 89 rrcurveto
          163 80 149 76 102 vvcurveto
          25 -25 12 -27 -101 -98 -120 -155 -69 vhcurveto
          -215 -106 -252 -120 -185 vvcurveto
          endchar
        </CharString>
        <CharString name="apple">
          304 -12 45 63 45 327 44 63 45 hstem
          0 45 138 54 164 57 128 46 vstem
          458 204 rmoveto
          134 -221 -10 85 vvcurveto
          32 32 23 48 35 39 -13 -29 33 vhcurveto
          11 43 rlineto
          12 -24 -42 31 -55 hhcurveto
          -57 -74 -24 -79 hvcurveto
          -112 218 -14 -83 vvcurveto
          -35 -36 -24 -54 -36 -45 12 29 -47 vhcurveto
          -9 -47 rlineto
          -18 37 44 -21 48 hhcurveto
          81 74 33 75 hvcurveto
          128 100 rmoveto
          -150 -121 -121 -149 -150 -121 121 150 149 121 122 150 149 121 -122 -149 vhcurveto
          46 hmoveto
          174 -142 142 -174 -175 -141 -142 -174 -174 141 -142 175 174 142 142 174 vhcurveto
          -198 434 rmoveto
          -60 hlineto
          -59 -61 -58 61 rlineto
          -59 hlineto
          90 -85 rlineto
          1 9 9 0 10 hhcurveto
          9 10 0 -1 9 hvcurveto
          endchar
        </CharString>
        <CharString name="aring">
          -54 callgsubr
          189 66 -13 83 -46 callsubr
          70 93 hintmask 01101110
          -62 callsubr
          hintmask 10011110
          -91 callsubr
          hintmask 01101110
          -100 callsubr
          4 108 -21 callgsubr
          hintmask 10011110
          -29 callsubr
        </CharString>
        <CharString name="asciicircum">
          26 78 -21 95 -20 hstem
          263 63 -87 callsubr
          endchar
        </CharString>
        <CharString name="asciitilde">
          -39 71 11 callsubr
          hintmask 10000000
          265 115 -28 callsubr
          hintmask 01000000
          -83 callgsubr
          endchar
        </CharString>
        <CharString name="asterisk">
          -41 309 -21 284 -20 hstem
          247 528 rmoveto
          -4 4 -91 -77 -43 117 -6 -3 20 -119 -121 23 -1 -5 116 -44 -83 -94 5 -4 95 79 39 -117 6 2 -17 122 117 -25 2 7 -113 42 rlineto
          endchar
        </CharString>
        <CharString name="at">
          265 -110 108 -24 207 -14 111 hstemhm
          -43 30 109 25 153 22 250 31 hintmask 10111110
          132 -2 -43 callsubr
          -6 -31 -26 0 hvcurveto
          -46 -53 -109 -77 -57 hhcurveto
          129 -81 rmoveto
          -8 -46 -39 -3 -33 hhcurveto
          -110 -46 39 53 107 187 160 220 111 41 -38 -47 -82 -123 -112 -100 -17 -10 5 12 28 120 95 32 41 hvcurveto
          2 3 1 2 1 vvcurveto
          8 -5 -2 -24 3 vhcurveto
          -3 -2 -2 13 callsubr
          -3 -3 -5 -4 -5 -4 rrcurveto
          hintmask 01011110
          7 -12 -22 8 -28 hhcurveto
          -162 -80 -115 -55 -18 8 -11 16 hvcurveto
          51 1 75 44 61 44 rrcurveto
          -19 -25 -14 -24 -20 vvcurveto
          -20 17 -8 26 127 133 116 89 vhcurveto
          hintmask 10111110
          55 -50 44 -134 -254 -182 -168 -115 -60 49 -45 115 38 45 5 11 53 vhcurveto
          endchar
        </CharString>
        <CharString name="atilde">
          -54 callgsubr
          189 82 -24 24 -24 56 -46 callsubr
          hintmask 10010110
          324 -12 callsubr
          hintmask 10001110
          -83 callgsubr
          -340 -265 -44 callsubr
          hvcurveto
          hintmask 01100110
          -72 callgsubr
          -6 -34 -29 0 vhcurveto
          -46 -54 -106 -74 -56 hhcurveto
          290 184 rmoveto
          -3 -2 -2 13 callsubr
          -3 -3 -5 -4 -5 -4 rrcurveto
          hintmask 10010110
          -91 callsubr
          hintmask 01100110
          -61 callgsubr
        </CharString>
        <CharString name="b">
          -37 0 -21 611 -47 callsubr
          -586 -582 rmoveto
          -11 -5 4 9 15 15 27 25 33 hvcurveto
          -28 callgsubr
          -138 -495 -471 -115 -16 10 -9 21 36 73 42 47 62 vhcurveto
          -3 vlineto
          -61 callsubr
          5 1 6 2 7 hvcurveto
          47 38 35 36 15 vvcurveto
          5 -3 2 -7 -38 -39 -49 -40 -14 vhcurveto
          -48 -60 -72 -51 -36 hhcurveto
          endchar
        </CharString>
        <CharString name="backslash">
          -138 -199 -21 1197 -20 hstem
          52 24 vstem
          48 977 rmoveto
          -25 hlineto
          58 -1192 24 -5 rlineto
          endchar
        </CharString>
        <CharString name="bar">
          -15 callgsubr
          -365 -1135 24 -6 rlineto
          endchar
        </CharString>
        <CharString name="braceleft">
          -75 753 21 hstem
          106 54 46 51 vstem
          260 313 rmoveto
          17 -5 16 -11 13 vhcurveto
          54 161 18 378 133 hhcurveto
          6 5 -1 -1 6 hvcurveto
          5 16 rlineto
          6 -14 -13 2 -12 -137 -20 -424 -162 hhcurveto
          -5 -5 0 1 -6 hvcurveto
          -17 -33 rlineto
          25 -13 11 -20 -25 -96 -162 -168 -86 vvcurveto
          -30 15 -22 36 -10 vhcurveto
          11 14 rlineto
          -25 9 -10 17 23 92 172 167 104 vvcurveto
          endchar
        </CharString>
        <CharString name="braceright">
          96 753 21 hstem
          80 54 46 51 vstem
          354 387 rmoveto
          -18 4 -15 11 -14 vhcurveto
          -54 -161 -18 -377 -132 hhcurveto
          -6 -5 1 1 -6 hvcurveto
          -5 -16 rlineto
          -6 14 13 -2 12 137 20 424 162 hhcurveto
          5 5 0 -1 6 hvcurveto
          17 33 rlineto
          -25 13 -11 20 25 96 162 168 86 vvcurveto
          30 -15 22 -36 10 vhcurveto
          -11 -14 rlineto
          25 -9 10 -17 -23 -92 -172 -167 -104 vvcurveto
          endchar
        </CharString>
        <CharString name="bracketleft">
          25 753 21 hstem
          106 54 46 51 vstem
          50 -61 rmoveto
          8 -9 43 -30 15 -6 7 15 rcurveline
          -5 4 -33 33 -4 4 433 840 rcurveline
          6 47 0 -1 6 hvcurveto
          5 16 rlineto
          6 -14 -52 9 -12 hhcurveto
          endchar
        </CharString>
        <CharString name="bracketright">
          -7 753 21 hstem
          73 54 46 51 vstem
          545 775 rmoveto
          -8 9 -43 30 -15 6 -7 -15 rcurveline
          5 -4 33 -33 4 -4 -433 -840 rcurveline
          -6 -47 0 1 -6 hvcurveto
          -5 -16 rlineto
          -6 14 52 -9 12 hhcurveto
          endchar
        </CharString>
        <CharString name="breve">
          -90 225 21 65 -20 hstem
          301 303 rmoveto
          -28 -28 -39 -29 -32 hhcurveto
          -24 -21 17 48 -8 hvcurveto
          -3 -3 -2 -4 -2 hvcurveto
          -4 vlineto
          -57 21 -19 26 42 57 48 25 19 vhcurveto
          endchar
        </CharString>
        <CharString name="brokenbar">
          -15 callgsubr
          -151 -468 rlineto
          25 hlineto
          -215 -673 rmoveto
          166 520 rlineto
          -25 hlineto
          -165 -514 rlineto
          endchar
        </CharString>
        <CharString name="bullet">
          -83 44 99 hstem
          42 112 vstem
          42 68 rmoveto
          -15 13 -9 15 28 56 38 38 15 -10 8 -12 -39 -51 -50 -25 vhcurveto
          endchar
        </CharString>
        <CharString name="c">
          -74 -23 209 -72 72 hstemhm
          -42 41 hintmask 01100000
          -1 21 rmoveto
          -65 callgsubr
          -49 callgsubr
          vhcurveto
          hintmask 10100000
          -1 callgsubr
          -24 callgsubr
          endchar
        </CharString>
        <CharString name="caron">
          172 228 -21 95 -20 hstem
          124 296 -75 callgsubr
          endchar
        </CharString>
        <CharString name="ccedilla">
          -74 -125 78 -12 54 -18 209 -72 72 hstemhm
          -42 41 48 34 hintmask 01011100
          -1 21 rmoveto
          -65 callgsubr
          -49 callgsubr
          -26 18 -13 26 -4 vhcurveto
          -20 -33 -40 callsubr
          hintmask 10101100
          -26 callsubr
          21 27 rlineto
          1 hlineto
          61 96 38 50 69 hvcurveto
          -2 15 rlineto
          hintmask 01011100
          -24 callgsubr
          endchar
        </CharString>
        <CharString name="cedilla">
          -74 -125 78 31 -20 hstem
          47 34 vstem
          -18 -55 rmoveto
          -40 callsubr
          -26 callsubr
          25 33 -15 1 rlineto
          endchar
        </CharString>
        <CharString name="cent">
          -23 67 -21 99 209 -72 72 118 -20 hstemhm
          51 41 hintmask 11011000
          93 146 rmoveto
          -1 5 6 0 7 hhcurveto
          61 96 38 50 69 hvcurveto
          -2 15 rlineto
          -49 -67 -89 -36 -49 hhcurveto
          -8 -7 1 2 -6 hvcurveto
          38 45 -12 6 -37 -45 rlineto
          -4 4 -2 6 7 vvcurveto
          -65 callgsubr
          hintmask 10111000
          -6 5 -5 15 25 18 26 21 14 -8 7 -14 3 vhcurveto
          93 110 -10 9 -103 -118 rlineto
          -95 -5 -117 -101 -59 vvcurveto
          -21 11 -13 18 -6 vhcurveto
          -80 -98 9 -5 rlineto
          endchar
        </CharString>
        <CharString name="circumflex">
          172 227 -21 95 -20 hstem
          330 212 -87 callsubr
          endchar
        </CharString>
        <CharString name="colon">
          -165 14 -21 193 -20 hstem
          94 143 rmoveto
          -87 callgsubr
          -88 -136 rmoveto
          -87 callgsubr
          endchar
        </CharString>
        <CharString name="comma">
          -138 -59 -5 callsubr
          -54 -80 -92 callgsubr
          endchar
        </CharString>
        <CharString name="copyright">
          151 -21 21 -21 121 -18 209 -72 72 -12 113 -21 21 hstemhm
          39 22 42 41 283 22 hintmask 1000101110000000
          144 126 rmoveto
          -65 callgsubr
          hintmask 1001011110000000
          -49 callgsubr
          vhcurveto
          hintmask 1010011110000000
          -1 callgsubr
          hintmask 0101011110000000
          -24 callgsubr
          123 245 rmoveto
          109 51 -77 -83 hvcurveto
          hintmask 1010011110000000
          -101 -74 -110 -132 5 callsubr
          vhcurveto
          -60 -392 -43 callgsubr
        </CharString>
        <CharString name="currency">
          64 111 -21 27 181 41 -20 hstem
          140 22 118 20 vstem
          226 282 rmoveto
          38 16 -28 -32 -42 -27 -47 -37 -38 -16 28 32 41 27 48 37 hvcurveto
          -10 -165 rmoveto
          22 18 8 12 13 hvcurveto
          36 -47 14 8 -39 51 rlineto
          13 18 7 24 24 vvcurveto
          9 -1 9 -2 9 vhcurveto
          58 43 -8 14 -56 -41 rlineto
          23 -12 -21 17 -32 hhcurveto
          -16 -14 -5 -7 -12 hvcurveto
          -37 53 -14 -8 38 -55 rlineto
          -20 -19 -11 -30 -28 vvcurveto
          -12 2 -13 5 -11 vhcurveto
          -57 -44 8 -14 57 43 rlineto
          -19 12 20 -12 29 hhcurveto
          endchar
        </CharString>
        <CharString name="d">
          -54 callgsubr
          610 -20 -46 callsubr
          hintmask 10111000
          -7 -2 -43 callsubr
          -12 -172 -143 -78 hvcurveto
          302 153 rmoveto
          233 242 166 143 33 30 rrcurveto
          5 5 2 3 3 vvcurveto
          7 -11 4 -11 -8 -8 -2 -4 -4 vhcurveto
          -418 -405 -3 -3 -4 -4 -5 -4 rlinecurve
          7 -12 -22 8 -29 hhcurveto
          -162 -80 -115 -55 -18 8 -11 16 hvcurveto
          51 1 74 43 60 44 rrcurveto
          -19 -24 -13 -24 -19 vvcurveto
          hintmask 01111000
          -18 11 -7 16 44 89 51 36 55 vhcurveto
          -2 15 rlineto
          -42 -61 -83 -49 -36 2 callsubr
          2 6 27 89 80 46 47 hvcurveto
          endchar
        </CharString>
        <CharString name="dagger">
          21 -122 -21 543 -20 hstem
          370 264 -30 callsubr
          -152 -391 18 6 149 385 rlineto
          138 hlineto
          endchar
        </CharString>
        <CharString name="degree">
          -107 427 99 hstem
          146 111 vstem
          214 511 rmoveto
          18 8 -9 -12 -20 -23 -28 -26 -18 -8 9 12 20 23 28 26 hvcurveto
          4 15 rmoveto
          -42 -30 -38 -29 -18 11 -14 28 41 31 38 29 18 -12 14 -27 hvcurveto
          endchar
        </CharString>
        <CharString name="dieresis">
          224 51 hstem
          165 -25 callsubr
          -88 hmoveto
          -100 callgsubr
          endchar
        </CharString>
        <CharString name="divide">
          83 117 -21 57 54 0 120 hstemhm
          hintmask 10100000
          265 284 rmoveto
          -87 callgsubr
          -117 -174 rmoveto
          -8 7 -6 9 16 33 22 22 vhcurveto
          hintmask 11000000
          8 -6 5 -8 -21 -30 -29 -14 vhcurveto
          246 113 -20 callsubr
          endchar
        </CharString>
        <CharString name="dollar">
          52 -101 -21 97 163 -18 160 334 -20 hstemhm
          -35 20 -1 24 -24 94 -15 244 -102 49 9 44 160 24 hintmask 1011010100100000
          21 23 rmoveto
          -9 13 -4 18 21 vvcurveto
          31 17 14 15 12 11 -9 -16 -12 -6 -15 -15 -19 vhcurveto
          425 395 rmoveto
          -53 -99 -62 -109 -31 vhcurveto
          hintmask 1101100011100000
          -10 callsubr
          -453 -446 rmoveto
          -16 18 26 -7 29 hhcurveto
          hintmask 1011100011100000
          95 125 78 84 46 -27 49 -15 48 hvcurveto
          118 31 108 67 62 vvcurveto
          20 -18 15 -40 5 vhcurveto
          93 111 -10 9 -103 -118 rlineto
          -8 hlineto
          -75 -125 -66 -93 -12 1 -12 3 -12 hvcurveto
          -5 -24 -25 -2 -23 hhcurveto
          -85 -67 33 89 92 83 108 122 hvcurveto
          16 callsubr
          -97 78 -36 95 24 27 2 5 26 hvcurveto
          16 -50 32 -49 -50 vvcurveto
          -77 -92 -57 -73 -28 -26 9 18 -17 vhcurveto
          30 36 rlineto
          hintmask 1101001011100000
          15 18 6 16 13 vvcurveto
          25 -22 16 -22 -24 -26 -18 -44 -32 9 -23 13 -16 vhcurveto
          -99 -122 9 -5 rlineto
          endchar
        </CharString>
        <CharString name="dotaccent">
          245 -21 51 -20 hstem
          -29 callgsubr
          endchar
        </CharString>
        <CharString name="dotlessi">
          -4 -21 199 -6 callsubr
          107 156 -101 callgsubr
        </CharString>
        <CharString name="e">
          -90 -18 208 hstem
          -34 31 vstem
          193 168 rmoveto
          -20 -66 -52 -98 -16 vhcurveto
          47 46 80 49 26 hhcurveto
          8 4 -3 -5 hvcurveto
          -196 -141 rmoveto
          11 8 15 13 15 vhcurveto
          131 23 70 56 28 vvcurveto
          9 -8 6 -17 -110 -118 -95 -62 -36 24 -15 36 53 78 33 50 71 vhcurveto
          -2 15 rlineto
          -53 -73 -73 -29 -43 hhcurveto
          -25 -15 9 20 hvcurveto
          endchar
        </CharString>
        <CharString name="eacute">
          3 callgsubr
          268 270 -92 callsubr
          63 -45 rmoveto
          -20 -66 -52 -98 -16 vhcurveto
          47 46 80 49 26 hhcurveto
          8 4 -3 -5 hvcurveto
          -196 -141 rmoveto
          11 8 15 13 15 vhcurveto
          131 23 70 56 28 vvcurveto
          9 -8 6 -17 -110 -118 -95 -62 -36 24 -15 36 53 78 33 50 71 vhcurveto
          -2 15 rlineto
          -53 -73 -73 -29 -43 hhcurveto
          -25 -15 9 20 hvcurveto
          endchar
        </CharString>
        <CharString name="ecircumflex">
          -90 -18 208 111 -20 hstem
          -34 31 vstem
          262 212 -87 callsubr
          -58 -38 rmoveto
          -20 -66 -52 -98 -16 vhcurveto
          47 46 80 49 26 hhcurveto
          8 4 -3 -5 hvcurveto
          -196 -141 rmoveto
          11 8 15 13 15 vhcurveto
          131 23 70 56 28 vvcurveto
          9 -8 6 -17 -110 -118 -95 -62 -36 24 -15 36 53 78 33 50 71 vhcurveto
          -2 15 rlineto
          -53 -73 -73 -29 -43 hhcurveto
          -25 -15 9 20 hvcurveto
          endchar
        </CharString>
        <CharString name="edieresis">
          -90 -18 208 -14 99 -51 51 hstemhm
          -34 31 194 28 -28 59 hintmask 10110100
          191 -25 callsubr
          -88 hmoveto
          -100 callgsubr
          90 -68 rmoveto
          -20 -66 -52 -98 -16 vhcurveto
          hintmask 01011000
          47 46 80 49 26 hhcurveto
          8 4 -3 -5 hvcurveto
          -196 -141 rmoveto
          11 8 15 13 15 vhcurveto
          131 23 70 56 28 vvcurveto
          hintmask 10111000
          9 -8 6 -17 -110 -118 -95 -62 -36 24 -15 36 53 78 33 50 71 vhcurveto
          -2 15 rlineto
          -53 -73 -73 -29 -43 hhcurveto
          -25 -15 9 20 hvcurveto
          endchar
        </CharString>
        <CharString name="egrave">
          3 callgsubr
          222 213 -95 callgsubr
          109 -102 rmoveto
          -20 -66 -52 -98 -16 vhcurveto
          47 46 80 49 26 hhcurveto
          8 4 -3 -5 hvcurveto
          -196 -141 rmoveto
          11 8 15 13 15 vhcurveto
          131 23 70 56 28 vvcurveto
          9 -8 6 -17 -110 -118 -95 -62 -36 24 -15 36 53 78 33 50 71 vhcurveto
          -2 15 rlineto
          -53 -73 -73 -29 -43 hhcurveto
          -25 -15 9 20 hvcurveto
          endchar
        </CharString>
        <CharString name="eight">
          52 -2 -21 497 90 hstem
          -13 34 184 49 9 44 148 24 vstem
          263 121 rmoveto
          -74 -99 -57 -71 -40 -32 18 44 87 97 56 105 53 vhcurveto
          17 -42 23 -42 -43 vvcurveto
          142 361 rmoveto
          -75 -125 -66 -93 -21 5 -21 8 -21 hvcurveto
          -116 -57 -115 -58 -101 vvcurveto
          -47 38 -20 50 95 137 71 89 43 -24 46 -15 45 vhcurveto
          108 56 103 57 93 vvcurveto
          51 -46 36 -109 vhcurveto
          -3 -10 rlineto
          93 41 -36 -48 -85 -90 -53 -101 -50 hvcurveto
          -6 19 -4 19 18 vvcurveto
          52 66 84 95 vhcurveto
          0 1 2 1 vvcurveto
          3 -2 2 -9 vhcurveto
          endchar
        </CharString>
        <CharString name="ellipsis">
          180 -7 57 hstem
          351 -54 callsubr
          -168 hmoveto
          -87 callgsubr
          -177 hmoveto
          -87 callgsubr
          endchar
        </CharString>
        <CharString name="emdash">
          194 102 -19 callgsubr
          521 102 rmoveto
          -466 -7 callgsubr
          468 hlineto
          endchar
        </CharString>
        <CharString name="endash">
          -44 102 -19 callgsubr
          283 102 rmoveto
          -234 hlineto
          hintmask 01000000
          -6 -16 rlineto
          235 hlineto
          endchar
        </CharString>
        <CharString name="equal">
          111 181 66 hstem
          401 197 -20 callsubr
          31 66 -20 callsubr
          endchar
        </CharString>
        <CharString name="eth">
          30 -25 206 400 -20 hstemhm
          -42 34 -34 201 39 21 173 32 hintmask 11101100
          11 -8 -31 callgsubr
          46 79 107 109 13 5 -7 -11 -23 -25 -42 -38 -35 hvcurveto
          0 -58 -56 -66 vhcurveto
          410 299 rmoveto
          -32 callgsubr
          -61 -9 rlineto
          36 67 22 65 51 vvcurveto
          59 -31 41 -75 -6 -7 0 -1 -6 vhcurveto
          -10 -11 rlineto
          74 -1 29 -39 -57 vvcurveto
          -50 -22 -63 -35 -65 vhcurveto
          -113 -15 rlineto
          -32 callsubr
          97 14 -30 -52 -37 -51 -39 -44 rlinecurve
          -2 -1 -1 -2 -1 -1 rrcurveto
          2 8 2 6 7 vvcurveto
          21 -15 14 -38 -125 -83 -105 -60 -24 13 -17 30 43 48 22 34 48 vhcurveto
          -5 -10 -2 -10 -8 vvcurveto
          -18 11 -7 16 44 89 51 36 55 vhcurveto
          -2 15 rlineto
          -42 -61 -83 -49 -36 hhcurveto
          hintmask 11011100
          -4 -3 2 6 23 52 67 41 49 hvcurveto
          38 45 37 50 29 50 rrcurveto
          endchar
        </CharString>
        <CharString name="exclam">
          -48 14 -21 579 -20 hstem
          27 -54 callsubr
          443 527 rmoveto
          34 -20 4 0 vhcurveto
          -347 -486 rlineto
          7 -6 1 0 0 vvcurveto
          endchar
        </CharString>
        <CharString name="exclamdown">
          -48 -367 -21 579 -20 hstem
          284 177 -22 callsubr
          -443 -527 rmoveto
          -34 20 -4 0 vhcurveto
          347 486 rlineto
          -7 6 -1 0 0 vvcurveto
          endchar
        </CharString>
        <CharString name="f">
          -97 9 callsubr
          918 20 vstem
          -343 -377 -98 callsubr
          43 62 22 52 77 hvcurveto
          -2 15 rlineto
          -59 -86 -52 -17 -32 -9 callgsubr
        </CharString>
        <CharString name="fi">
          243 9 callsubr
          507 39 372 20 vstem
          364 236 rmoveto
          -88 callsubr
          -707 -613 -98 callsubr
          35 49 15 35 60 hvcurveto
          -11 -16 -7 -15 -10 vvcurveto
          -18 11 -7 17 50 105 62 28 42 vhcurveto
          -2 15 rlineto
          -16 -27 -105 -71 -38 hhcurveto
          -9 -5 3 7 20 44 51 91 82 -78 callsubr
          -58 -49 -42 -48 hvcurveto
          -54 -80 -50 -15 -30 -9 callgsubr
        </CharString>
        <CharString name="five">
          32 -22 85 226 191 -35 35 77 -20 hstemhm
          -65 24 -24 60 296 34 hintmask 11011010
          498 557 rmoveto
          -60 -34 -45 -17 -41 -54 -47 30 -5 hhcurveto
          -5 -3 -8 -14 -8 hvcurveto
          -14 -26 -85 -137 -20 -30 rrcurveto
          -9 -14 -14 -21 -3 vvcurveto
          10 -8 rlineto
          27 18 35 13 34 hhcurveto
          41 39 -19 -35 -86 -174 -158 -130 -20 -8 6 9 hvcurveto
          hintmask 10110110
          -49 callsubr
          159 188 165 94 38 -30 26 -75 -38 -30 -11 0 vhcurveto
          105 164 rlineto
          -5 33 30 -4 26 hhcurveto
          70 49 26 84 41 hvcurveto
          endchar
        </CharString>
        <CharString name="fl">
          79 -380 -21 957 34 hstem
          -370 27 918 20 vstem
          813 574 rmoveto
          -47 -396 -310 -141 -97 vhcurveto
          171 144 319 286 69 hhcurveto
          3 2 -1 -2 hvcurveto
          -1156 -951 -98 callsubr
          38 55 18 41 66 hvcurveto
          -10 -19 -5 -16 -12 vvcurveto
          -60 callgsubr
          15 15 27 25 33 hvcurveto
          -28 callgsubr
          -117 -376 -341 -173 -110 vhcurveto
          -56 -83 -50 -16 -31 -9 callgsubr
        </CharString>
        <CharString name="four">
          80 6 -21 64 77 -77 157 -101 21 480 -20 hstemhm
          hintmask 10011000
          384 191 rmoveto
          11 5 -3 -5 -12 -33 -21 -63 -13 hvcurveto
          28 18 31 26 31 hhcurveto
          20 217 rmoveto
          -41 -51 -94 -123 -86 -108 rrcurveto
          -75 -65 8 8 1 hvcurveto
          154 137 160 139 46 188 rrcurveto
          -11 hlineto
          -49 -206 -285 -207 -46 -31 rrcurveto
          -9 -6 -15 -15 -9 vvcurveto
          -2 1 -1 1 -1 vhcurveto
          -14 14 58 -9 86 hhcurveto
          17 hlineto
          -30 -37 -28 -35 -24 -28 -23 callgsubr
          19 29 26 39 30 42 27 2 25 4 22 5 rrcurveto
          -3 -10 -2 -10 -9 vvcurveto
          hintmask 10101000
          -23 12 -17 29 17 22 6 13 28 vhcurveto
          5 vlineto
          -10 -25 -19 -5 -14 hhcurveto
          -24 -10 13 18 10 3 11 5 12 hvcurveto
          81 21 48 33 18 vvcurveto
          7 -8 5 -17 -53 -42 -36 -37 -20 vhcurveto
          hintmask 11001000
          -20 -3 -23 -3 -25 -1 rrcurveto
          126 90 109 143 2 hhcurveto
          endchar
        </CharString>
        <CharString name="foursuperior">
          22 203 -21 40 103 260 -20 hstem
          342 316 rmoveto
          7 3 -2 -4 -7 -21 -14 -41 -9 hvcurveto
          19 12 20 17 20 hhcurveto
          3 141 rmoveto
          -27 -34 -61 -79 -56 -71 rrcurveto
          -48 -33 6 5 1 hvcurveto
          100 89 104 90 30 122 rrcurveto
          -15 hlineto
          -32 -134 -185 -134 -30 -20 rrcurveto
          -6 -4 -10 -10 -6 vvcurveto
          -14 91 -3 11 vhcurveto
          11 hlineto
          -19 -25 -18 -22 -16 -18 rrcurveto
          -7 15 -6 8 5 5 2 5 6 vhcurveto
          12 19 17 26 19 27 18 1 9 2 14 3 rrcurveto
          -1 -6 -2 -7 -6 vvcurveto
          -20 16 -6 17 17 19 6 5 9 vhcurveto
          -1 6 rlineto
          -4 -10 -16 -5 -12 hhcurveto
          -12 -9 4 15 7 2 7 3 8 hvcurveto
          50 10 38 22 13 vvcurveto
          5 -7 4 -14 -34 -34 -24 -24 -13 vhcurveto
          -13 -2 -8 -1 -17 -1 rrcurveto
          82 59 71 93 1 hhcurveto
          endchar
        </CharString>
        <CharString name="fraction">
          -138 -66 -21 628 -20 hstem
          -94 -76 rmoveto
          0 9 -11 8 7 callgsubr
          vhcurveto
          443 611 rlineto
          7 callgsubr
          vvcurveto
          6 -9 2 -7 -4 -4 -1 -1 -1 vhcurveto
          endchar
        </CharString>
        <CharString name="g">
          -7 -374 -21 381 195 1 -20 hstemhm
          -44 25 hintmask 10110000
          -37 callsubr
          -352 -357 -55 callsubr
          156 vhcurveto
          68 34 66 33 54 33 19 12 29 17 16 10 -2 15 rcurveline
          -18 -12 -41 -24 -20 -12 -42 -26 -49 -26 -52 -26 85 85 77 80 52 48 rrcurveto
          3 2 0 3 1 vvcurveto
          5 -23 4 -6 -3 -2 -2 -3 -4 vhcurveto
          -2 -2 -5 -4 -5 -5 rrcurveto
          hintmask 11010000
          7 -13 -22 8 -28 0 callgsubr
          47 1 66 37 57 39 -13 -12 -11 -12 -7 -7 -41 -42 -37 -40 -36 -37 -52 callgsubr
        </CharString>
        <CharString name="germandbls">
          -57 -359 -21 952 -20 hstem
          564 20 vstem
          564 549 rmoveto
          -48 -359 -288 -184 -116 vhcurveto
          231 224 250 228 59 hhcurveto
          7 3 13 callsubr
          -388 -361 rmoveto
          186 133 222 183 53 vvcurveto
          9 -7 6 -16 -147 -790 -801 -151 vhcurveto
          13 4 rlineto
          48 163 194 190 198 vhcurveto
          36 20 50 33 55 38 rrcurveto
          -62 -9 -42 -116 -64 hhcurveto
          -18 -18 17 11 3 2 3 3 2 hvcurveto
          0 16 7 11 vvcurveto
          13 -6 3 -9 -16 -12 -16 -19 -23 17 -25 47 35 53 15 41 75 vhcurveto
          27 15 27 16 22 14 -2 15 rcurveline
          -25 -17 -28 -18 -28 -16 rrcurveto
          0 -54 -31 -12 -3 0 2 0 vhcurveto
          72 80 -20 93 16 15 rrcurveto
          endchar
        </CharString>
        <CharString name="grave">
          172 10 callsubr
          371 213 -95 callgsubr
          endchar
        </CharString>
        <CharString name="greater">
          48 133 -21 223 14 callgsubr
          -105 -253 -90 -10 -15 276 95 10 18 -210 110 rlineto
          endchar
        </CharString>
        <CharString name="greaterequal">
          48 77 -21 279 14 callgsubr
          -85 -253 -70 -10 -15 276 75 10 18 -210 90 rlineto
          180 -263 -26 callgsubr
        </CharString>
        <CharString name="guillemotleft">
          81 30 -21 166 -20 hstem
          294 18 rmoveto
          -118 66 177 79 2 12 -221 -77 -35 callsubr
          156 -75 rlineto
          -113 10 rmoveto
          -117 72 174 71 2 12 -218 -69 -35 callsubr
          155 -81 rlineto
          endchar
        </CharString>
        <CharString name="guillemotright">
          60 30 -21 166 -20 hstem
          45 166 rmoveto
          118 -66 -177 -79 -2 -12 221 77 -36 callsubr
          -156 75 rlineto
          113 -10 rmoveto
          117 -72 -174 -71 -2 -12 218 69 -36 callsubr
          -155 81 rlineto
          endchar
        </CharString>
        <CharString name="guilsinglleft">
          -40 31 -21 160 -20 hstem
          175 19 rmoveto
          -117 79 174 60 2 12 -218 -58 -35 callsubr
          155 -88 rlineto
          endchar
        </CharString>
        <CharString name="guilsinglright">
          -61 31 -21 160 -20 hstem
          43 161 rmoveto
          117 -79 -174 -60 -2 -12 218 58 -36 callsubr
          -155 88 rlineto
          endchar
        </CharString>
        <CharString name="h">
          1 -25 194 403 -20 hstemhm
          105 156 -26 26 303 21 hintmask 11011000
          -47 callgsubr
          -430 -543 rmoveto
          24 127 61 56 vvcurveto
          10 -8 12 -17 -53 -157 -104 -11 -16 vhcurveto
          -1 -2 -3 0 -1 hhcurveto
          3 7 14 18 23 26 -63 callsubr
          32 37 188 110 33 hhcurveto
          5 2 0 -4 hvcurveto
          hintmask 11101000
          -28 -130 -61 -62 vvcurveto
          -18 10 -7 16 47 100 62 28 42 vhcurveto
          -2 15 rlineto
          -16 -27 -105 -71 -38 hhcurveto
          -9 -5 4 9 hvcurveto
          endchar
        </CharString>
        <CharString name="hungarumlaut">
          31 10 callsubr
          401 270 -92 callsubr
          27 57 -33 callsubr
        </CharString>
        <CharString name="hyphen">
          62 59 11 callsubr
          hintmask 10000000
          362 103 rmoveto
          -10 -12 -17 -10 -21 hhcurveto
          hintmask 01000000
          -41 -44 32 -66 hhcurveto
          -51 -37 -18 -24 -28 16 callgsubr
          46 41 -37 59 hhcurveto
          46 28 17 21 18 hvcurveto
          endchar
        </CharString>
        <CharString name="i">
          -4 -21 300 -6 callsubr
          -29 callgsubr
          -26 -80 -101 callgsubr
        </CharString>
        <CharString name="iacute">
          -4 -21 323 -6 callsubr
          264 270 -92 callsubr
          -19 -57 -101 callgsubr
        </CharString>
        <CharString name="icircumflex">
          -4 -21 326 -6 callsubr
          209 212 -87 callsubr
          -91 -50 -101 callgsubr
        </CharString>
        <CharString name="idieresis">
          -4 -21 249 51 hstem
          -67 39 vstem
          165 -25 callsubr
          -88 hmoveto
          -100 callgsubr
          30 -80 -101 callgsubr
        </CharString>
        <CharString name="igrave">
          -4 -21 323 -6 callsubr
          159 213 -95 callgsubr
          86 -114 -101 callgsubr
        </CharString>
        <CharString name="j">
          -189 -374 -21 680 -20 hstem
          195 285 rmoveto
          -23 -18 -23 -14 -7 4 -5 9 28 13 20 14 8 -5 7 -8 hvcurveto
          -738 -640 -55 callsubr
          157 vhcurveto
          68 34 65 33 54 33 19 12 29 17 16 10 -2 15 rcurveline
          -18 -12 -41 -24 -20 -12 -42 -26 -48 -26 -52 -26 84 85 77 80 52 48 rrcurveto
          3 2 0 3 1 vvcurveto
          5 -23 4 -6 -3 -2 -2 -3 -4 vhcurveto
          -14 -12 -101 -99 -33 -34 -40 -42 -38 -40 -36 -37 -52 callgsubr
        </CharString>
        <CharString name="k">
          12 -25 117 -11 101 390 -20 hstemhm
          99 202 263 21 hintmask 01111000
          -47 callgsubr
          -304 -367 rmoveto
          -72 -112 -78 -49 -71 hvcurveto
          4 8 14 17 21 24 -63 callsubr
          83 117 111 72 63 hhcurveto
          5 2 13 callsubr
          hintmask 10111000
          -19 -48 -50 -84 vhcurveto
          -12 hlineto
          -3 0 -2 -2 -8 5 -5 15 -2 hvcurveto
          4 1 -2 -3 hvcurveto
          -13 -47 -24 -25 vvcurveto
          -23 13 -8 20 56 109 66 24 33 vhcurveto
          -2 15 rlineto
          -16 -27 -105 -71 -38 hhcurveto
          -16 -6 3 5 hvcurveto
          14 44 28 15 vvcurveto
          5 -8 11 -2 5 vhcurveto
          2 1 1 1 vhcurveto
          hintmask 01111000
          -1 4 4 0 4 hhcurveto
          45 72 28 42 24 -21 7 -20 hvcurveto
          endchar
        </CharString>
        <CharString name="l">
          -152 -1 -21 612 -47 callsubr
          -602 -569 rmoveto
          15 15 27 25 33 vhcurveto
          -28 callgsubr
          -138 -495 -472 -115 -60 callgsubr
          hvcurveto
          endchar
        </CharString>
        <CharString name="less">
          83 134 -21 227 -20 hstem
          347 126 rmoveto
          -223 81 265 119 2 14 -280 -123 -10 -18 240 -86 rlineto
          endchar
        </CharString>
        <CharString name="lessequal">
          83 77 -21 284 -20 hstem
          347 166 rmoveto
          -223 61 265 99 2 14 -280 -103 -10 -18 240 -66 rlineto
          -23 -81 -26 callgsubr
        </CharString>
        <CharString name="logicalnot">
          83 92 -21 152 -20 hstem
          88 223 rmoveto
          -12 -16 rlineto
          296 hlineto
          -54 -136 18 6 58 146 rlineto
          endchar
        </CharString>
        <CharString name="lslash">
          -152 -1 -21 612 -20 hstem
          -49 24 vstem
          577 577 rmoveto
          3 2 -1 -2 -41 -261 -179 -156 -104 hvcurveto
          156 155 203 171 54 hhcurveto
          -602 -569 rmoveto
          28 52 68 74 80 vhcurveto
          105 16 rlineto
          -32 callgsubr
          -93 -13 3 3 rlineto
          142 94 332 206 75 vvcurveto
          7 -6 2 -6 -94 -258 -217 -176 -156 vhcurveto
          -69 -9 rlineto
          -32 callsubr
          46 7 rlineto
          -64 -76 -44 -65 -34 vvcurveto
          -60 callgsubr
          hvcurveto
          endchar
        </CharString>
        <CharString name="m">
          265 -18 189 -175 -21 200 -20 hstemhm
          151 24 144 32 17 33 104 24 hintmask 10011110
          83 127 rmoveto
          21 28 25 13 10 hhcurveto
          3 2 -1 -3 -28 -95 -90 -45 -39 hvcurveto
          -6 -5 -2 -4 -2 vvcurveto
          -6 10 -1 21 7 12 7 0 vhcurveto
          87 106 122 81 31 hhcurveto
          5 2 -2 -4 hvcurveto
          -32 -142 -116 -12 vvcurveto
          -8 13 -1 17 9 6 6 0 vhcurveto
          134 133 101 36 38 hhcurveto
          7 4 -1 -4 hvcurveto
          -30 -137 -74 -49 vvcurveto
          hintmask 01111110
          -18 10 -7 16 47 100 62 28 42 vhcurveto
          -2 15 rlineto
          -16 -27 -105 -71 -38 hhcurveto
          -7 -3 2 5 hvcurveto
          25 128 58 64 vvcurveto
          hintmask 10011110
          18 -15 6 -12 -56 -78 -45 -34 -49 vhcurveto
          hintmask 01111110
          23 31 9 20 12 vvcurveto
          14 -13 4 -17 -49 -151 -107 8 8 vhcurveto
          31 31 15 29 19 vvcurveto
          14 -8 8 -15 -17 -26 -10 -25 -35 vhcurveto
          0 -42 -32 -53 -34 vhcurveto
          3 -14 rlineto
          53 33 48 34 0 vvcurveto
          endchar
        </CharString>
        <CharString name="macron">
          31 247 -19 callgsubr
          362 247 rmoveto
          -266 -7 callgsubr
          268 hlineto
          endchar
        </CharString>
        <CharString name="minus">
          83 223 -19 callgsubr
          394 223 rmoveto
          -306 -7 callgsubr
          308 hlineto
          endchar
        </CharString>
        <CharString name="mu">
          27 -257 -21 459 -20 hstemhm
          -16 136 0 34 hintmask 11010000
          86 176 rmoveto
          -11 -9 -20 -17 -22 -21 rrcurveto
          -11 -10 -401 -380 -10 vvcurveto
          -5 6 -2 7 12 15 5 3 3 vhcurveto
          7 7 77 75 -18 callgsubr
          140 135 70 67 vhcurveto
          -17 1 8 -8 13 hhcurveto
          32 68 41 61 94 hvcurveto
          -29 -30 -25 -34 -27 vvcurveto
          -18 11 -7 17 50 105 62 28 42 vhcurveto
          -2 15 rlineto
          -16 -27 -105 -71 -38 hhcurveto
          -13 -6 4 7 21 50 50 90 81 -78 callsubr
          -11 -8 -16 -14 hvcurveto
          -79 -117 -104 -65 -26 hhcurveto
          hintmask 11100000
          -4 -2 2 3 30 98 85 41 43 hvcurveto
          2 3 1 2 1 vvcurveto
          8 -3 -3 -24 3 vhcurveto
          -7 -6 -5 0 hvcurveto
          endchar
        </CharString>
        <CharString name="multiply">
          64 117 -21 247 -20 hstem
          155 341 rmoveto
          -14 -8 78 -106 -162 -117 8 -14 164 118 88 -118 14 8 -89 119 147 106 -8 14 -149 -107 rlineto
          endchar
        </CharString>
        <CharString name="n">
          95 -25 205 -22 22 hstemhm
          151 208 -161 33 104 24 hintmask 01100000
          181 155 -64 callsubr
          hintmask 10011000
          -69 callsubr
        </CharString>
        <CharString name="nine">
          68 -22 85 -85 214 -12 69 341 -20 hstemhm
          10 29 -29 60 2 35 419 27 hintmask 10111011
          456 482 rmoveto
          48 22 -16 -24 -66 -168 -127 -195 -20 -17 1 4 -15 hvcurveto
          85 29 185 143 131 hhcurveto
          -58 -206 rmoveto
          hintmask 01011011
          -59 -96 -80 -25 -48 hhcurveto
          -47 -20 16 25 3 0 4 1 4 hvcurveto
          -3 15 17 -1 19 hhcurveto
          225 169 129 74 29 -26 21 -61 -168 -182 -135 -93 -37 hvcurveto
          -28 14 -12 23 27 vvcurveto
          90 140 138 181 24 vhcurveto
          9 vlineto
          -192 -31 -143 -141 -93 vvcurveto
          -31 15 -25 35 -15 vhcurveto
          -2 -7 -1 -7 -6 vvcurveto
          hintmask 10110111
          -32 27 -22 64 69 98 38 33 61 vhcurveto
          -102 -64 -185 -158 -80 hhcurveto
          -20 -8 6 9 hvcurveto
          -49 callsubr
          124 261 233 66 3 -4 1 -5 -12 -19 -5 0 vhcurveto
          endchar
        </CharString>
        <CharString name="ntilde">
          95 -25 205 -22 22 45 11 callsubr
          151 208 -161 33 104 24 hintmask 10101000
          389 -12 callsubr
          hintmask 01011000
          -83 callgsubr
          -217 -108 -64 callsubr
          hintmask 10100110
          -69 callsubr
        </CharString>
        <CharString name="numbersign">
          83 76 -21 102 106 96 -20 hstem
          208 247 rmoveto
          95 hlineto
          -40 -74 rlineto
          -95 hlineto
          236 90 rmoveto
          -78 hlineto
          52 96 -19 -8 -48 -88 rlineto
          -95 hlineto
          52 96 -19 -8 -48 -88 rlineto
          -103 -27 callsubr
          107 hlineto
          -40 -74 rlineto
          -85 -27 callsubr
          89 hlineto
          -55 -102 18 6 51 96 rlineto
          96 hlineto
          -55 -102 18 6 51 96 rlineto
          95 hlineto
          10 16 rlineto
          -96 hlineto
          40 74 rlineto
          76 hlineto
          endchar
        </CharString>
        <CharString name="o">
          12 callsubr
          hstemhm
          -41 34 vstemhm
          12 -8 -80 callsubr
          hintmask 11000000
          -93 callgsubr
          21 -15 14 -38 vhcurveto
          endchar
        </CharString>
        <CharString name="oacute">
          12 callsubr
          117 13 callgsubr
          vstemhm
          262 270 -92 callsubr
          -112 -221 -80 callsubr
          hintmask 11100000
          -93 callgsubr
          21 -15 14 -38 vhcurveto
          endchar
        </CharString>
        <CharString name="ocircumflex">
          12 callsubr
          120 13 callgsubr
          vstemhm
          260 212 -87 callsubr
          -237 -214 -80 callsubr
          hintmask 11100000
          -93 callgsubr
          21 -15 14 -38 vhcurveto
          endchar
        </CharString>
        <CharString name="odieresis">
          12 callsubr
          -15 109 -51 51 hstemhm
          -41 34 hintmask 10110000
          201 -25 callsubr
          -88 hmoveto
          -100 callgsubr
          -101 -244 -31 callgsubr
          hvcurveto
          hintmask 01010000
          46 79 107 109 9 6 -4 -7 2 vhcurveto
          -32 -29 -14 -34 -27 vvcurveto
          -1 vlineto
          -38 -36 -52 -34 -52 hhcurveto
          hintmask 10110000
          155 189 rmoveto
          -125 -83 -105 -60 -24 13 -17 30 50 58 32 39 44 hvcurveto
          -93 callgsubr
          21 -15 14 -38 vhcurveto
          endchar
        </CharString>
        <CharString name="oe">
          97 -25 206 9 13 callgsubr
          162 29 hintmask 01110000
          368 -22 callgsubr
          -356 -184 -31 callgsubr
          46 79 107 109 9 6 -4 -7 2 hvcurveto
          -30 -27 -13 -25 -21 vvcurveto
          -4 1 -4 1 -4 vhcurveto
          -40 -36 -54 -38 -55 hhcurveto
          172 35 -21 callsubr
          -59 -62 -27 -35 -44 vhcurveto
          2 7 2 6 6 vvcurveto
          hintmask 10110000
          20 -16 14 -37 -125 -83 -105 -60 -24 13 -17 30 49 59 32 39 44 vhcurveto
          -1 -5 0 -4 -4 vvcurveto
          -36 24 -15 36 53 78 33 50 71 vhcurveto
          -2 15 rlineto
          -53 -73 -73 -29 -43 hhcurveto
          -25 -15 9 20 hvcurveto
          endchar
        </CharString>
        <CharString name="ogonek">
          -90 -81 -21 89 -20 hstem
          -15 30 vstem
          88 -87 rmoveto
          -3 -10 -10 -1 -9 hhcurveto
          -26 -18 11 19 12 7 15 18 19 hvcurveto
          1 -1 -3 1 -2 hhcurveto
          -36 -21 -13 -19 -15 vvcurveto
          -21 28 -13 33 14 15 2 5 15 vhcurveto
          endchar
        </CharString>
        <CharString name="ograve">
          -15 15 166 117 13 callgsubr
          vstemhm
          249 213 -95 callgsubr
          -99 -278 rmoveto
          52 52 34 38 36 hvcurveto
          1 vlineto
          27 14 34 32 29 vhcurveto
          7 -2 -6 4 -9 hhcurveto
          -109 -79 -107 -46 -13 6 -8 13 hvcurveto
          155 189 rmoveto
          38 15 -14 -21 -20 -14 -26 -23 -26 hvcurveto
          -8 vlineto
          -21 11 -12 18 11 14 5 10 15 vhcurveto
          49 32 2 -15 -46 -29 rlineto
          -15 -23 -20 -6 -16 hhcurveto
          -23 -15 12 19 -6 hvcurveto
          hintmask 11100000
          -39 -44 -58 -32 -50 hhcurveto
          -30 -13 17 24 60 83 105 125 hvcurveto
          endchar
        </CharString>
        <CharString name="one">
          -125 2 -21 580 -20 hstem
          401 531 rmoveto
          -11 -33 -41 -53 -46 vhcurveto
          51 37 26 34 1 hhcurveto
          12 10 6 4 3 hhcurveto
          2 1 -1 -2 hvcurveto
          -36 hmoveto
          -20 -24 -41 -55 -50 -66 -58 -41 -70 -37 -74 -16 11 -15 rcurveline
          49 8 59 28 55 36 -95 -125 -115 -153 -60 -70 -23 callgsubr
          49 76 138 190 95 130 rrcurveto
          80 60 62 67 30 vvcurveto
          9 -6 6 -14 -10 -14 -11 -19 -15 vhcurveto
          endchar
        </CharString>
        <CharString name="onehalf">
          364 -76 15 callsubr
          280 -20 hstemhm
          229 178 -7 -4 callgsubr
          -94 callsubr
          164 -524 -72 callsubr
          -342 -258 rmoveto
          23 -8 418 640 -22 12 rlineto
          hintmask 0101110101000000
          30 -334 -77 callsubr
          -14 callsubr
          -76 callgsubr
        </CharString>
        <CharString name="onequarter">
          245 -16 -21 57 103 492 -20 hstem
          -94 callsubr
          161 -427 -93 callsubr
        </CharString>
        <CharString name="onesuperior">
          -29 204 -21 379 -20 hstem
          -94 callsubr
          endchar
        </CharString>
        <CharString name="ordfeminine">
          31 286 159 -142 -21 164 -20 hstemhm
          146 20 122 20 hintmask 01111000
          175 298 rmoveto
          -6 -3 3 5 29 93 99 81 14 21 -5 -7 -4 -28 -24 0 hvcurveto
          -36 -43 -84 -60 -45 hhcurveto
          253 136 rmoveto
          0 2 2 2 vvcurveto
          3 -4 5 -19 -3 -1 -2 -2 -3 vhcurveto
          -3 -2 -3 -3 -4 -4 rrcurveto
          hintmask 10011000
          6 -10 -18 6 -22 hhcurveto
          -131 -63 -92 -44 -14 6 -9 13 41 58 34 35 49 hvcurveto
          -15 -19 -10 -19 -15 vvcurveto
          hintmask 01111000
          -14 8 -6 13 35 71 42 28 45 vhcurveto
          -2 12 rlineto
          -34 -49 -66 -39 -29 hhcurveto
          -3 -3 2 5 24 92 76 28 36 hvcurveto
          endchar
        </CharString>
        <CharString name="ordmasculine">
          -15 285 165 hstemhm
          148 28 -28 209 hintmask 11000000
          191 299 rmoveto
          -10 -5 7 10 37 63 85 87 7 5 -3 -5 2 hvcurveto
          -26 -24 -11 -28 -21 vvcurveto
          -31 -29 -42 -27 -41 hhcurveto
          124 151 rmoveto
          -100 -67 -84 -48 -19 11 -14 24 39 48 26 31 35 hvcurveto
          hintmask 10100000
          -15 4 12 -10 18 hhcurveto
          13 16 5 12 19 hvcurveto
          36 23 -1 12 -39 -26 rlineto
          -8 -12 -11 -3 -9 hhcurveto
          -15 -9 9 17 hvcurveto
          6 vlineto
          18 21 12 21 16 vvcurveto
          16 -12 12 -30 vhcurveto
          endchar
        </CharString>
        <CharString name="oslash">
          -15 -96 -21 92 206 -166 166 118 13 callgsubr
          hintmask 11011000
          181 166 rmoveto
          9 6 -4 -7 2 hvcurveto
          -32 -29 -14 -34 -27 vvcurveto
          -1 vlineto
          -31 -33 -42 -29 -44 -8 125 171 rcurveline
          1 7 7 0 7 hhcurveto
          -169 -174 -31 callgsubr
          41 62 89 90 19 hvcurveto
          -124 -169 rlineto
          -1 -4 -2 0 -3 hhcurveto
          242 300 rmoveto
          -8 7 -87 -118 rlineto
          -121 -5 -79 -102 -58 vvcurveto
          -24 13 -17 30 vhcurveto
          6 hlineto
          -63 -86 rlineto
          7 -6 1 0 0 vvcurveto
          69 94 45 7 48 28 39 34 rlinecurve
          hintmask 10111000
          -93 callgsubr
          20 -14 13 -34 2 vhcurveto
          endchar
        </CharString>
        <CharString name="otilde">
          12 callsubr
          -15 83 -24 11 callsubr
          -41 34 hintmask 10101000
          280 -12 callsubr
          hintmask 10011000
          -83 callgsubr
          -277 -271 -31 callgsubr
          hvcurveto
          hintmask 01001000
          46 79 107 109 9 6 -4 -7 2 vhcurveto
          -32 -29 -14 -34 -27 vvcurveto
          -1 vlineto
          -38 -36 -52 -34 -52 hhcurveto
          hintmask 10101000
          155 189 rmoveto
          -125 -83 -105 -60 -24 13 -17 30 50 58 32 39 44 hvcurveto
          -93 callgsubr
          21 -15 14 -38 vhcurveto
          endchar
        </CharString>
        <CharString name="p">
          73 -334 -21 334 170 219 -30 callgsubr
          195 189 rlineto
          55 42 46 37 12 vvcurveto
          7 -3 2 -5 -14 -67 -61 -51 -55 vhcurveto
          -66 -47 -116 -80 -80 -55 3 -14 rcurveline
          53 33 48 34 -18 callgsubr
          35 23 46 32 vhcurveto
          -82 callsubr
        </CharString>
        <CharString name="paragraph">
          -77 -179 -21 531 234 -20 20 33 -20 hstemhm
          hintmask 10110000
          453 598 rmoveto
          -25 -29 -26 -8 -25 -46 -42 27 -50 hhcurveto
          -27 -30 -8 -25 -34 16 callgsubr
          hhcurveto
          40 36 -29 -7 48 hvcurveto
          -131 -209 -147 -276 -76 -230 38 19 rcurveline
          45 192 239 420 48 83 rrcurveto
          6 hlineto
          46 28 17 21 18 hvcurveto
          -244 -13 rmoveto
          -82 -110 -122 -73 hvcurveto
          hintmask 11010000
          -32 16 -12 23 43 67 41 33 39 vhcurveto
          -78 -152 -142 -220 -77 -233 52 21 rcurveline
          50 242 253 397 53 81 rrcurveto
          14 -44 -26 15 -37 hhcurveto
          endchar
        </CharString>
        <CharString name="parenleft">
          -74 -128 -21 984 -20 hstem
          10 33 vstem
          596 823 rmoveto
          -6 12 rlineto
          -292 -131 -288 -333 -344 vvcurveto
          -63 10 -60 20 -53 vhcurveto
          16 6 rlineto
          -9 46 -4 46 46 vvcurveto
          341 230 321 323 166 vhcurveto
          endchar
        </CharString>
        <CharString name="parenright">
          83 -128 -21 984 -20 hstem
          465 33 vstem
          -88 -137 rmoveto
          6 -12 rlineto
          292 131 288 333 344 vvcurveto
          63 -10 60 -20 53 vhcurveto
          -16 -6 rlineto
          9 -46 4 -46 -46 vvcurveto
          -341 -230 -321 -323 -166 vhcurveto
          endchar
        </CharString>
        <CharString name="percent">
          334 -16 callsubr
          -6 29 -29 144 -9 callsubr
          220 73 hintmask 1010010101010100
          621 283 rmoveto
          -17 callsubr
          -293 145 rmoveto
          hintmask 1100100011010100
          -17 callsubr
          115 -423 rmoveto
          -27 -11 15 23 30 18 43 26 43 hvcurveto
          -57 callsubr
          hintmask 1100010010101100
          -108 -1 -122 -171 -90 -79 callsubr
          8 callsubr
          hvcurveto
          181 529 rmoveto
          6 -6 2 -6 -346 -164 -135 -67 -16 8 -12 18 -5 vhcurveto
          hintmask 1001000101010100
          -27 -43 -17 -44 -34 -79 callsubr
          12 callgsubr
          hvcurveto
          hintmask 1100001001010100
          -19 callsubr
          -27 -11 15 23 30 18 43 26 43 vhcurveto
          hintmask 1100001000101100
          -57 callsubr
          -65 -1 -71 -63 -46 -70 rrcurveto
          -12 5 -6 10 12 vvcurveto
          60 143 125 339 9 vhcurveto
          -441 -611 -36 callgsubr
        </CharString>
        <CharString name="period">
          -165 14 -21 57 -20 hstem
          6 -54 callsubr
          endchar
        </CharString>
        <CharString name="periodcentered">
          -165 86 -21 57 -20 hstem
          33 79 rmoveto
          -87 callgsubr
          endchar
        </CharString>
        <CharString name="perthousand">
          589 -16 callsubr
          -13 36 -36 151 -9 callsubr
          231 28 -28 62 -19 209 -8 73 hintmask 101001001101010010000000
          621 283 rmoveto
          -50 callgsubr
          255 hmoveto
          -50 callgsubr
          -548 145 rmoveto
          hintmask 110010001101010100000000
          -50 callgsubr
          77 -384 rmoveto
          29 18 44 26 42 vhcurveto
          -57 callsubr
          hintmask 110001001100101010000000
          -108 -1 -122 -171 -90 -79 callsubr
          hintmask 110010001101010100000000
          -10 callgsubr
          255 hmoveto
          29 18 44 26 42 vhcurveto
          -57 callsubr
          -108 -1 -122 -171 -90 vvcurveto
          -32 15 -22 38 vhcurveto
          hintmask 110001001010110010000000
          121 143 208 93 27 -12 18 -28 -21 -28 -13 -5 -3 6 -1 0 hvcurveto
          9 8 24 3 9 hhcurveto
          -10 callgsubr
          -36 490 rmoveto
          0 0 8 -18 vhcurveto
          -348 -3 -156 -133 -66 vvcurveto
          -16 8 -12 18 -5 vhcurveto
          hintmask 100100010101010100000000
          -27 -43 -17 -45 -33 -79 callsubr
          12 callgsubr
          hvcurveto
          hintmask 110010001101010100000000
          -19 callsubr
          -27 -11 15 24 29 18 44 26 42 vhcurveto
          hintmask 110000100010110100000000
          -57 callsubr
          -66 -1 -71 -63 -45 -70 rrcurveto
          -12 5 -6 9 13 vvcurveto
          60 143 125 339 10 vhcurveto
          -441 -612 -36 callgsubr
        </CharString>
        <CharString name="plus">
          83 76 -21 304 -20 hstem
          394 223 -30 callsubr
          -61 -152 18 6 58 146 rlineto
          138 hlineto
          endchar
        </CharString>
        <CharString name="plusminus">
          83 56 200 103 -20 hstem
          397 256 rmoveto
          -131 hlineto
          42 103 -19 -8 -39 -95 rlineto
          -129 -27 callsubr
          135 hlineto
          -42 -104 18 6 39 98 rlineto
          128 hlineto
          -69 -168 -26 callgsubr
        </CharString>
        <CharString name="q">
          11 -375 -21 382 195 hstem
          -44 25 vstem
          -37 callsubr
          -104 -227 rmoveto
          59 57 77 76 105 97 rrcurveto
          -114 -40 -230 -270 -78 hhcurveto
          -8 -3 3 6 23 58 64 60 58 hvcurveto
          369 389 rmoveto
          8 -12 -23 9 -30 0 callgsubr
          41 1 54 26 50 33 -69 -68 -113 -120 -91 -91 rrcurveto
          -45 -45 -52 -70 -32 vvcurveto
          -10 5 -6 13 112 217 294 102 40 vhcurveto
          -5 6 8 -3 11 hhcurveto
          18 27 8 19 39 hvcurveto
          24 11 26 16 29 19 -2 15 rcurveline
          -31 -21 -26 -15 -23 -12 rrcurveto
          -20 -39 -22 -7 -13 hhcurveto
          -11 -6 9 11 hvcurveto
          5 vlineto
          44 41 49 43 55 47 rrcurveto
          1 1 1 2 2 vvcurveto
          2 0 1 -1 2 vhcurveto
          4 -2 -14 3 -7 hhcurveto
          -8 -10 -7 0 hvcurveto
          endchar
        </CharString>
        <CharString name="question">
          2 14 -21 682 -20 hstemhm
          53 42 -19 240 -18 141 hintmask 11101000
          -10 -54 callsubr
          308 514 rmoveto
          -112 -90 -72 -60 -30 -23 18 42 76 100 81 90 25 vhcurveto
          9 -18 4 -20 -20 vvcurveto
          -230 -442 rmoveto
          26 123 345 101 189 vvcurveto
          75 -43 29 -57 -15 -15 -2 -3 -15 vhcurveto
          -32 48 -65 35 -105 1 -7 -7 rcurveline
          106 62 -34 -47 27 hvcurveto
          hintmask 11010000
          -97 -27 -107 -85 -80 vvcurveto
          -52 33 -24 42 70 95 70 124 vhcurveto
          hintmask 11101000
          24 -6 24 -12 21 vhcurveto
          3 14 12 2 13 hhcurveto
          51 38 -26 -68 hvcurveto
          -124 -373 -140 -140 vvcurveto
          endchar
        </CharString>
        <CharString name="questiondown">
          -38 -490 -20 34 -21 79 -20 29 -20 614 -20 hstemhm
          -167 141 -18 240 -19 42 hintmask 01101101
          282 171 -22 callsubr
          -308 -514 rmoveto
          112 90 72 60 30 23 -18 -42 -76 -100 -81 -90 -25 vhcurveto
          -9 18 -4 20 20 vvcurveto
          230 442 rmoveto
          -26 -123 -345 -101 -189 vvcurveto
          -75 43 -29 57 15 15 2 3 15 vhcurveto
          31 -48 66 -35 105 -1 rrcurveto
          hintmask 10011010
          7 7 rlineto
          -106 -62 34 47 -27 hvcurveto
          97 27 107 85 80 vvcurveto
          52 -33 24 -42 -70 -95 -70 -124 vhcurveto
          hintmask 01011101
          -24 6 -24 12 -21 vhcurveto
          -3 -14 -12 -2 -13 hhcurveto
          -51 -38 26 68 hvcurveto
          124 373 140 140 vvcurveto
          endchar
        </CharString>
        <CharString name="quotedbl">
          168 427 -21 194 -20 hstem
          596 562 -51 callsubr
          51 156 -51 callsubr
          endchar
        </CharString>
        <CharString name="quotedblbase">
          -52 -61 -5 callsubr
          -54 -82 -92 callgsubr
          94 -8 -92 callgsubr
          endchar
        </CharString>
        <CharString name="quotedblleft">
          62 435 -5 callsubr
          451 579 -64 callgsubr
          -94 8 -64 callgsubr
          endchar
        </CharString>
        <CharString name="quotedblright">
          67 436 -5 callsubr
          261 415 -92 callgsubr
          94 -8 -92 callgsubr
          endchar
        </CharString>
        <CharString name="quoteleft">
          -24 435 -5 callsubr
          365 579 -64 callgsubr
          endchar
        </CharString>
        <CharString name="quoteright">
          105 434 -5 callsubr
          385 413 -92 callgsubr
          endchar
        </CharString>
        <CharString name="quotesinglbase">
          -138 -59 -5 callsubr
          -54 -80 -92 callgsubr
          endchar
        </CharString>
        <CharString name="quotesingle">
          88 427 -21 194 -20 hstem
          516 562 -51 callsubr
          endchar
        </CharString>
        <CharString name="r">
          -18 -34 182 -24 73 hstemhm
          48 25 102 21 hintmask 10110000
          224 20 rmoveto
          27 15 27 16 22 14 -2 15 rcurveline
          -25 -17 -28 -18 -28 -16 rrcurveto
          -44 callgsubr
          34 123 49 51 vvcurveto
          -25 callgsubr
          hintmask 01110000
          -62 callgsubr
          hintmask 10110000
          9 callgsubr
          endchar
        </CharString>
        <CharString name="registered">
          151 -21 21 -21 105 -13 182 -24 24 -24 73 69 21 hstemhm
          39 22 113 25 102 21 105 22 hintmask 1010011111000000
          350 125 rmoveto
          22 12 28 15 22 13 rrcurveto
          -86 -19 -70 -79 -112 hhcurveto
          5 callsubr
          109 51 -77 -83 -9 -1 -9 -1 -9 hvcurveto
          -24 -16 -33 -20 -25 -14 rrcurveto
          hintmask 0101011111000000
          -44 callgsubr
          34 123 49 51 vvcurveto
          hintmask 1010011111000000
          -25 callgsubr
          hintmask 1000111111000000
          -62 callgsubr
          hintmask 1010011111000000
          9 callgsubr
          -143 -146 -43 callgsubr
        </CharString>
        <CharString name="ring">
          31 220 83 hstem
          230 93 vstem
          287 290 -21 callgsubr
          -29 callsubr
        </CharString>
        <CharString name="s">
          -76 -15 -21 243 -20 hstem
          159 29 -84 callgsubr
        </CharString>
        <CharString name="scaron">
          -76 -15 -21 372 -20 hstem
          120 330 -75 callgsubr
          28 -307 -84 callgsubr
        </CharString>
        <CharString name="section">
          87 -42 163 566 -20 hstem
          -16 24 47 20 130 49 9 44 46 44 160 24 vstem
          261 354 rmoveto
          7 17 12 18 15 16 rrcurveto
          -9 vlineto
          -12 1 -12 3 -12 vhcurveto
          -13 -3 -12 -2 -13 -1 rrcurveto
          -7 -33 rmoveto
          5 0 5 1 6 vhcurveto
          17 1 16 2 17 3 rrcurveto
          16 -50 32 -49 -50 vvcurveto
          -36 -20 -31 -28 -23 vhcurveto
          1 5 1 6 5 65 -53 72 64 vvcurveto
          303 196 rmoveto
          -53 -99 -62 -109 -31 vhcurveto
          -10 callsubr
          -479 -437 rmoveto
          25 -21 16 -23 -24 -26 -18 -44 -73 46 -28 57 80 102 56 68 29 vhcurveto
          55 31 44 47 50 vvcurveto
          46 -27 49 -15 48 vhcurveto
          118 31 108 67 62 vvcurveto
          24 -26 18 -60 -64 -99 -48 -71 -29 vhcurveto
          -37 -19 -34 -29 -16 -35 rrcurveto
          -80 3 -61 34 85 vvcurveto
          92 83 108 122 vhcurveto
          16 callsubr
          -91 68 -37 86 -5 hvcurveto
          -3 -10 -1 -10 -10 -67 58 -67 -68 vvcurveto
          -77 -92 -57 -73 -49 -41 26 62 31 17 14 15 12 11 -9 -16 vhcurveto
          endchar
        </CharString>
        <CharString name="semicolon">
          -138 -59 -21 266 -20 hstem
          -54 -80 -92 callgsubr
          146 215 rmoveto
          -87 callgsubr
          endchar
        </CharString>
        <CharString name="seven">
          12 -4 -21 432 21 30 51 46 -20 hstem
          144 444 rmoveto
          19 21 29 48 2 vhcurveto
          -37 -15 -23 -29 -16 hhcurveto
          -10 -5 7 9 hvcurveto
          8 -37 rmoveto
          33 24 46 41 14 hvcurveto
          -3 55 68 -33 60 hhcurveto
          8 8 1 1 8 hvcurveto
          -117 -101 -119 -171 -134 -197 rrcurveto
          0 16 -16 15 8 7 4 13 6 vhcurveto
          98 164 154 221 102 97 rrcurveto
          16 8 17 13 9 vvcurveto
          3 -2 2 -3 vhcurveto
          -19 -10 -32 -43 hhcurveto
          -54 -78 29 3 -62 hvcurveto
          8 26 4 20 0 vvcurveto
          -10 -1 -2 -15 -3 -15 -5 -14 rlinecurve
          -4 hlineto
          -63 -34 -42 -30 -17 10 -14 23 hvcurveto
          endchar
        </CharString>
        <CharString name="six">
          45 -117 109 245 20 161 90 hstem
          -25 27 8 23 287 44 79 58 vstem
          70 -8 rmoveto
          -14 -12 3 4 -10 hvcurveto
          101 15 133 137 87 hhcurveto
          36 15 -19 -26 -98 -157 -102 -93 hvcurveto
          406 487 rmoveto
          -15 -33 -16 -17 17 callsubr
          22 -14 10 -21 -186 -305 -312 -147 -30 14 -19 21 -11 vhcurveto
          -12 vlineto
          -54 40 -40 106 36 44 6 15 52 vhcurveto
          -8 5 rlineto
          -12 -45 -37 -5 -32 hhcurveto
          -97 -36 39 51 hvcurveto
          1 vlineto
          -2 8 10 -1 10 hhcurveto
          115 188 106 118 37 -24 16 -36 -112 -148 -136 -108 -29 hvcurveto
          -8 10 -5 14 19 vvcurveto
          135 317 305 138 13 6 -5 -12 vhcurveto
          endchar
        </CharString>
        <CharString name="slash">
          -138 -106 -21 1015 -20 hstem
          -115 -119 rmoveto
          23 -8 647 1003 -22 12 rlineto
          endchar
        </CharString>
        <CharString name="space">
          -178 endchar
        </CharString>
        <CharString name="sterling">
          430 -155 133 -8 105 -7 120 -14 84 341 -20 hstemhm
          -55 32 390 21 261 33 95 26 hintmask 1010111110000000
          28 66 rmoveto
          43 72 -21 -22 83 hvcurveto
          -27 -50 -55 -18 -61 hhcurveto
          -55 -28 28 24 19 17 17 34 hvcurveto
          502 -86 rmoveto
          -32 -45 8 10 -50 hvcurveto
          38 25 57 32 90 hhcurveto
          50 24 -16 -19 -25 -42 -28 -77 hvcurveto
          247 457 rmoveto
          -62 -134 -84 -122 -26 vhcurveto
          109 86 66 98 63 hhcurveto
          35 6 -21 -14 hvcurveto
          -199 -249 rmoveto
          -122 hlineto
          19 21 17 21 17 21 rrcurveto
          136 22 158 95 71 vvcurveto
          19 -12 24 -49 vhcurveto
          hintmask 1001111110000000
          -96 -82 -107 -117 -93 hvcurveto
          -18 hlineto
          -71 -55 30 81 98 96 121 130 hvcurveto
          2 11 rlineto
          -150 -91 -121 -102 -94 63 -35 80 hvcurveto
          5 hlineto
          hintmask 1010111110000000
          -16 -20 -16 -20 -17 -19 rrcurveto
          -141 hlineto
          hintmask 0101111110000000
          -12 -14 rlineto
          141 hlineto
          -47 -54 -51 -49 -57 -36 rrcurveto
          21 -86 -81 19 -44 hhcurveto
          -63 -27 -22 -23 -29 41 -31 67 73 64 18 29 58 hvcurveto
          41 -10 42 -11 42 -8 rrcurveto
          -4 -11 -2 -10 -11 vvcurveto
          hintmask 1010111110000000
          -57 56 -54 95 vhcurveto
          18 1 -3 5 rlineto
          -96 -49 48 51 11 2 12 5 11 hvcurveto
          hintmask 0101111110000000
          -8 44 43 -6 40 hhcurveto
          110 50 32 30 25 -36 23 -65 -111 -64 -35 -43 -26 hvcurveto
          -36 8 -37 10 -38 9 67 37 57 52 51 56 rrcurveto
          124 hlineto
          endchar
        </CharString>
        <CharString name="t">
          -156 -4 -21 522 -20 hstem
          -61 43 vstem
          440 479 -74 callsubr
          0 -95 -85 -105 -99 hvcurveto
          -195 hlineto
          -32 callsubr
          172 hlineto
          -78 -74 -80 -79 -49 -58 rrcurveto
          -22 -25 -25 -36 -23 vvcurveto
          -13 9 -9 21 45 83 47 43 65 vhcurveto
          -2 15 rlineto
          -16 -27 -110 -71 -27 hhcurveto
          -10 -4 4 7 38 130 130 128 121 hvcurveto
          178 hlineto
          -32 callgsubr
          -167 hlineto
          72 67 68 62 43 41 rrcurveto
          endchar
        </CharString>
        <CharString name="thorn">
          73 -334 -21 334 170 451 -30 callgsubr
          307 295 rlineto
          115 98 117 103 16 vvcurveto
          7 -3 2 -5 -17 -240 -227 -118 -123 vhcurveto
          -67 -47 -114 -79 -80 -55 3 -14 rcurveline
          44 27 104 72 34 23 rrcurveto
          -82 callsubr
        </CharString>
        <CharString name="three">
          32 -22 85 166 72 -12 56 -9 165 -9 96 hstemhm
          -65 24 -24 60 126 23 163 33 -18 113 -32 32 hintmask 1010110101000000
          174 239 rmoveto
          -18 -13 6 12 19 37 13 28 31 24 -6 -9 16 hvcurveto
          -21 -35 -37 -14 -33 hhcurveto
          9 106 rmoveto
          -26 -13 13 19 74 95 41 63 7 6 0 -1 7 hvcurveto
          -84 -5 -91 -62 -43 hhcurveto
          hintmask 1101010110100000
          37 -44 rmoveto
          -45 -49 -22 -27 -15 19 -8 28 40 42 13 21 39 hvcurveto
          9 -10 4 -13 -13 vvcurveto
          -87 -166 -149 -154 -20 -8 6 9 vhcurveto
          hintmask 1101001110100000
          -49 callsubr
          181 181 156 95 19 -7 16 -16 13 vhcurveto
          hintmask 1100110101000000
          67 43 51 63 48 vvcurveto
          35 -27 27 -67 6 vhcurveto
          48 -2 -45 41 -106 hhcurveto
          -2 -11 rlineto
          hintmask 1101010101000000
          97 37 -34 -42 2 hvcurveto
          -10 hlineto
          -79 -112 -47 -81 -22 15 -15 35 57 106 68 85 7 hvcurveto
          hintmask 1101010110100000
          44 -8 18 -21 -27 vvcurveto
          -44 -47 -60 -57 -41 vhcurveto
          8 -19 -26 5 -34 hhcurveto
          endchar
        </CharString>
        <CharString name="threequarters">
          287 -16 -21 57 103 61 210 -9 39 -8 108 -9 65 35 -20 hstemhm
          171 143 -26 26 -12 76 -28 28 hintmask 1101011001000000
          206 353 rmoveto
          21 25 10 14 20 hvcurveto
          6 -9 -13 2 -15 hhcurveto
          -25 -22 -15 -9 -5 5 -3 13 hvcurveto
          6 71 rmoveto
          28 59 36 54 3 hvcurveto
          1 -5 -3 0 -5 hhcurveto
          -61 -40 -44 -28 -12 8 -7 16 hvcurveto
          hintmask 1110101100100000
          24 -30 rmoveto
          22 15 -3 -5 12 hvcurveto
          21 15 44 46 33 vvcurveto
          15 -9 11 -23 6 vhcurveto
          -55 -4 -59 -41 -51 hhcurveto
          -23 -10 10 14 53 73 31 52 hvcurveto
          hintmask 1110101001000000
          6 hlineto
          27 -1 -24 22 -63 hhcurveto
          hintmask 1110011001000000
          1 7 rlineto
          69 33 -27 -32 1 hvcurveto
          42 -4 18 -17 -22 vvcurveto
          -31 -34 -41 -45 -28 vhcurveto
          hintmask 1110101010100000
          10 -15 5 -14 -15 vvcurveto
          -77 -125 -73 -111 -18 -10 6 13 14 16 22 16 4 3 -2 -4 vhcurveto
          -15 -23 -4 -12 vvcurveto
          -6 5 -4 13 vhcurveto
          96 108 81 74 7 -1 8 -3 7 hvcurveto
          -14 -26 -27 -8 -26 hhcurveto
          -25 -10 7 8 14 28 18 38 hvcurveto
          325 -280 -93 callsubr
        </CharString>
        <CharString name="threesuperior">
          44 184 169 -6 47 -9 39 -8 108 -9 65 hstemhm
          209 143 -26 26 -12 76 -28 28 hintmask 1010100100000000
          244 353 rmoveto
          -13 -5 3 5 9 22 15 25 15 13 -2 -6 9 hvcurveto
          -14 -20 -25 -10 -21 hhcurveto
          6 71 rmoveto
          -16 -8 7 12 28 40 44 61 5 3 0 -1 5 hvcurveto
          -54 -3 -59 -36 -28 hhcurveto
          hintmask 0101001010000000
          24 -30 rmoveto
          -38 -28 -18 -14 -8 10 -7 25 26 27 8 14 26 hvcurveto
          3 -7 1 -8 -7 vvcurveto
          -74 -108 -81 -96 -13 -5 4 6 vhcurveto
          12 23 4 15 vvcurveto
          4 -3 2 -4 -16 -16 -22 -14 vhcurveto
          hintmask 1010110010000000
          -13 10 -6 18 111 125 73 77 15 -5 14 -10 15 vhcurveto
          hintmask 1010100100000000
          45 28 34 41 31 vvcurveto
          22 -18 17 -42 4 vhcurveto
          32 -1 -33 27 -69 hhcurveto
          -1 -7 rlineto
          hintmask 1001000100000000
          63 24 -22 -27 1 hvcurveto
          -6 hlineto
          hintmask 0101010010000000
          -52 -73 -31 -53 -14 10 -10 23 51 59 41 55 4 hvcurveto
          23 -6 9 -11 -15 vvcurveto
          -33 -44 -46 -21 -15 vhcurveto
          5 -12 -15 3 -22 hhcurveto
          endchar
        </CharString>
        <CharString name="tilde">
          172 225 11 callsubr
          hintmask 10000000
          339 -12 callsubr
          hintmask 01000000
          -83 callgsubr
          endchar
        </CharString>
        <CharString name="trademark">
          678 214 40 -37 -21 58 103 -103 150 -77 44 -19 145 -130 181 -148 117 -27 27 -3 34 10 -20 hstemhm
          214 241 -28 138 -6 175 -8 137 -111 111 hintmask 1000001000010101
          345 331 rmoveto
          -18 -17 -2 -3 -15 hvcurveto
          22 13 26 19 30 hhcurveto
          18 8 -8 -11 hvcurveto
          hintmask 1000100100110101
          -6 -3 -8 -4 -7 vhcurveto
          3 -13 -13 1 -12 hhcurveto
          -119 -59 rmoveto
          15 21 22 38 11 vhcurveto
          -5 -10 -2 -9 -9 vvcurveto
          -13 5 -12 11 -9 vhcurveto
          -3 -11 -12 -2 -11 hhcurveto
          -23 -11 8 11 hvcurveto
          83 -14 rmoveto
          37 13 30 24 15 23 15 -5 12 -8 8 -10 rrcurveto
          -25 -27 -27 -16 -35 hhcurveto
          -11 -9 1 3 -8 hvcurveto
          31 69 rmoveto
          15 13 -2 -3 12 hvcurveto
          -14 -23 -29 -26 -34 -12 rrcurveto
          -13 7 -5 12 13 vvcurveto
          9 2 10 5 9 vhcurveto
          4 14 16 2 18 hhcurveto
          hintmask 1000010001010101
          492 25 rmoveto
          12 5 -6 -10 -27 -41 -51 -46 hvcurveto
          -2 3 hlineto
          39 40 52 32 vhcurveto
          -395 68 rmoveto
          30 66 61 54 3 vhcurveto
          1 -4 1 -3 -3 vvcurveto
          hintmask 0101000010110101
          -44 -60 -56 -38 -17 -7 6 10 vhcurveto
          hintmask 1000010001010101
          287 77 rmoveto
          hintmask 1000100100110101
          -52 -33 19 1 -77 hvcurveto
          hintmask 1000100001010101
          18 -6 -20 13 -40 hhcurveto
          -61 -53 -50 0 hvcurveto
          2 -4 rlineto
          0 56 50 53 vhcurveto
          hintmask 1000100100101010
          37 20 -12 -15 6 hvcurveto
          -73 -3 -56 -58 -33 vvcurveto
          -14 9 -9 22 51 56 59 44 vhcurveto
          hintmask 1000100001010101
          3 -1 4 -1 4 vhcurveto
          hintmask 1000100010110101
          -1 43 70 -23 43 hhcurveto
          58 34 24 20 13 -15 11 -33 -35 -28 -16 -2 -5 hvcurveto
          2 -3 rlineto
          14 33 17 1 13 hhcurveto
          25 10 -7 -9 hvcurveto
          hintmask 1000010001010101
          -16 -34 -23 -37 vhcurveto
          88 -278 rmoveto
          -34 -15 15 20 -3 hvcurveto
          4 hlineto
          56 43 50 30 hvcurveto
          hintmask 0110001000010101
          13 -9 10 -19 -42 -41 -55 -42 vhcurveto
          -14 6 -4 17 3 vvcurveto
          57 106 90 43 40 vhcurveto
          10 9 18 14 3 2 rrcurveto
          0 1 2 2 vvcurveto
          3 -1 3 -1 vhcurveto
          0 -6 -3 -7 -4 vhcurveto
          -78 -46 -49 -42 -67 -71 rrcurveto
          0 -3 -3 -1 vhcurveto
          -1 hlineto
          0 4 0 49 81 vhcurveto
          11 19 40 54 14 7 rrcurveto
          0 1 1 1 vvcurveto
          1 -1 1 -2 vhcurveto
          -24 -5 -30 -24 -14 -13 rrcurveto
          0 -96 -96 -51 -47 vhcurveto
          -3 -3 -27 -25 -25 -23 -45 -2 rlinecurve
          -3 -7 rlineto
          43 37 27 30 32 hvcurveto
          49 47 95 95 -18 callgsubr
          29 29 6 vhcurveto
          -28 -25 -23 -33 -25 -41 rrcurveto
          -12 -19 -29 -48 -18 callgsubr
          -25 -39 -5 -7 vhcurveto
          -1 -1 -1 -3 -2 vvcurveto
          -1 0 -2 2 vhcurveto
          0 15 15 4 5 vhcurveto
          16 18 113 126 95 58 rrcurveto
          -1 vlineto
          hintmask 1000100100110010
          -44 -36 -116 -95 -61 vvcurveto
          hintmask 1000100100110101
          -24 10 -12 16 -4 vhcurveto
          -24 1 17 -17 38 hhcurveto
          12 8 2 4 7 hvcurveto
          -3 3 rlineto
          -3 -8 -6 -1 -6 hhcurveto
          -444 152 rmoveto
          -38 -29 -22 -25 -14 hvcurveto
          -47 -11 -26 -24 -17 vvcurveto
          -13 14 -9 31 14 13 1 4 13 vhcurveto
          -5 9 12 -3 15 hhcurveto
          34 32 16 25 31 hvcurveto
          4 -8 3 -8 -8 vvcurveto
          -27 -25 -27 -58 -11 vhcurveto
          hintmask 0100100100110101
          -3 vlineto
          67 10 32 30 29 vvcurveto
          12 -5 11 -7 9 vhcurveto
          69 59 65 94 78 36 1 7 rcurveline
          -111 -42 -54 -90 -56 -57 -11 9 -14 6 -16 5 rrcurveto
          5 8 2 8 7 vvcurveto
          14 -10 10 -23 vhcurveto
          endchar
        </CharString>
        <CharString name="two">
          172 -137 136 -23 105 -13 234 -8 201 58 -20 hstemhm
          -114 21 286 188 -18 141 -110 22 52 36 hintmask 1010111011000000
          337 -1 rmoveto
          -50 -39 12 15 -38 hvcurveto
          24 31 45 18 56 hhcurveto
          37 15 -14 -16 -19 -22 -20 -35 hvcurveto
          -344 72 rmoveto
          51 35 -13 -15 33 hvcurveto
          -36 -60 -56 -22 -44 hhcurveto
          -32 -13 12 14 25 40 35 46 hvcurveto
          214 269 rmoveto
          45 58 71 84 22 vhcurveto
          hintmask 1010110100000000
          10 -16 4 -19 -18 vvcurveto
          -61 -48 -62 -60 -33 -15 16 22 vhcurveto
          2 207 rmoveto
          71 -5 42 -25 22 -31 rrcurveto
          hintmask 0101111011000000
          -91 -26 -60 -72 -48 vvcurveto
          -27 18 -19 42 81 47 59 62 22 -7 23 -13 21 vhcurveto
          2 13 13 2 14 hhcurveto
          47 20 -18 -30 -88 -174 -188 -160 -104 hvcurveto
          14 -36 -40 10 -50 hhcurveto
          -71 -51 -41 -31 -18 18 -15 43 53 64 23 36 66 hvcurveto
          16 -8 17 -9 18 -7 rrcurveto
          -18 -20 -9 -23 -22 vvcurveto
          hintmask 1010111011000000
          -44 41 -39 97 33 17 9 0 vhcurveto
          -1 7 rlineto
          -8 -18 -22 -2 -15 hhcurveto
          -84 -36 36 41 21 9 21 16 19 hvcurveto
          -12 34 41 -10 57 hhcurveto
          59 34 29 26 20 -20 18 -47 -63 -51 -20 -28 -34 hvcurveto
          -16 6 -15 6 -15 7 rrcurveto
          hintmask 1001110100000000
          173 102 176 185 97 vvcurveto
          38 -27 24 -65 -20 -19 -2 -4 -17 vhcurveto
          -25 33 -45 26 -68 5 rrcurveto
          endchar
        </CharString>
        <CharString name="twosuperior">
          96 116 15 callsubr
          39 -20 hstemhm
          50 183 -12 -4 callgsubr
          343 209 -72 callsubr
          hintmask 0101110101000000
          107 52 -77 callsubr
          hintmask 1010110101000000
          -14 callsubr
          hintmask 1010101001000000
          -76 callgsubr
        </CharString>
        <CharString name="u">
          27 -4 -21 206 -20 -27 callgsubr
          99 181 -102 callsubr
        </CharString>
        <CharString name="uacute">
          27 -4 -21 323 -20 -27 callgsubr
          327 270 -92 callsubr
          -90 -32 -102 callsubr
        </CharString>
        <CharString name="ucircumflex">
          27 -4 -21 326 -20 -27 callgsubr
          312 212 -87 callsubr
          -202 -25 -102 callsubr
        </CharString>
        <CharString name="udieresis">
          27 -4 -21 249 51 -27 callgsubr
          243 -25 callsubr
          -88 hmoveto
          -100 callgsubr
          -56 -55 -102 callsubr
        </CharString>
        <CharString name="ugrave">
          27 -25 29 294 -20 -27 callgsubr
          253 213 -95 callgsubr
          -16 -89 rmoveto
          24 -3 3 3 -8 vvcurveto
          -1 -1 -2 -2 -3 vhcurveto
          -41 -43 -98 -85 -30 vvcurveto
          -3 2 -2 4 26 104 65 79 117 vhcurveto
          16 14 11 8 -18 callgsubr
          5 4 6 vhcurveto
          11 -1 11 -1 -9 vvcurveto
          -2 -1 -3 -2 -2 vhcurveto
          -90 -81 -50 -50 -21 vvcurveto
          -7 6 -4 13 38 105 71 16 27 vhcurveto
          2 -15 rlineto
          -28 -42 -105 -62 -50 hhcurveto
          -17 -11 7 18 27 25 34 29 30 hvcurveto
          -61 -94 -68 -41 -32 hhcurveto
          -14 -8 8 18 56 102 83 28 23 hvcurveto
          3 4 4 1 3 hhcurveto
          endchar
        </CharString>
        <CharString name="underscore">
          179 -16 -19 callgsubr
          434 -16 rmoveto
          -466 -7 callgsubr
          468 hlineto
          endchar
        </CharString>
        <CharString name="v">
          59 -21 185 -149 21 -21 187 hstemhm
          34 147 hintmask 00110000
          258 69 rmoveto
          5 0 5 2 6 vhcurveto
          61 46 51 48 17 vvcurveto
          4 -3 2 -7 -39 -62 -67 -46 -19 vhcurveto
          -47 -60 -74 -47 -34 hhcurveto
          -9 -4 2 3 hvcurveto
          20 120 68 47 vvcurveto
          hintmask 10010000
          -53 callsubr
          42 65 77 48 21 hhcurveto
          6 2 -2 -6 hvcurveto
          -18 -119 -69 -51 vvcurveto
          -16 10 -9 21 34 71 41 47 66 vhcurveto
          -2 vlineto
          hintmask 01010000
          -61 callsubr
          hvcurveto
          endchar
        </CharString>
        <CharString name="w">
          219 -20 192 -172 -21 36 21 -21 187 hstemhm
          34 155 hintmask 01101000
          61 hmoveto
          20 128 76 47 vvcurveto
          hintmask 10001000
          20 -10 9 -16 -38 -82 -57 -41 -64 vhcurveto
          3 -14 rlineto
          37 52 104 62 14 hhcurveto
          6 3 -3 -6 hvcurveto
          -18 -127 -77 -51 vvcurveto
          -16 7 -8 14 31 65 37 54 84 vhcurveto
          -22 -25 -16 -25 -17 vvcurveto
          hintmask 01101000
          -18 11 -7 17 34 71 41 47 66 vhcurveto
          -2 vlineto
          -61 callsubr
          5 0 5 2 6 hvcurveto
          61 46 51 48 17 vvcurveto
          hintmask 01011000
          4 -3 2 -7 -39 -62 -67 -46 -19 vhcurveto
          -47 -60 -74 -47 -34 hhcurveto
          -5 -3 2 4 18 51 57 79 71 -78 callsubr
          -28 -23 -27 -28 hvcurveto
          -64 -97 -85 -51 -22 hhcurveto
          -4 -2 2 3 hvcurveto
          endchar
        </CharString>
        <CharString name="x">
          27 -27 25 -25 192 7 -20 hstemhm
          -90 220 0 34 hintmask 01010000
          305 149 rmoveto
          2 0 -12 -1 14 hvcurveto
          12 8 9 8 6 -5 6 -13 -48 -46 -15 -21 -38 hvcurveto
          4 8 2 7 6 vvcurveto
          hintmask 10101000
          13 -10 9 -22 -40 -81 -54 -44 -65 vhcurveto
          3 -14 rlineto
          35 53 83 60 32 hhcurveto
          9 5 -4 -10 -40 -140 -115 -73 hvcurveto
          -12 1 22 -11 hhcurveto
          hintmask 10110000
          -4 -15 -2 -14 -14 11 -5 17 53 59 27 34 49 hvcurveto
          -1 -3 0 -3 -3 vvcurveto
          -32 19 -13 30 49 79 36 49 70 vhcurveto
          -2 15 rlineto
          -47 -72 -68 -35 -36 hhcurveto
          -26 -11 9 14 42 101 86 74 hvcurveto
          endchar
        </CharString>
        <CharString name="y">
          -8 callsubr
          6 -20 hstemhm
          34 147 hintmask 10110000
          -291 -355 -97 callgsubr
          hintmask 11010000
          -53 callsubr
          hintmask 10110000
          -50 callsubr
          hintmask 11010000
          -67 callsubr
        </CharString>
        <CharString name="yacute">
          -8 callsubr
          134 -20 hstem
          34 147 vstem
          379 270 -92 callsubr
          -532 -568 -97 callgsubr
          -53 callsubr
          -50 callsubr
          -67 callsubr
        </CharString>
        <CharString name="ydieresis">
          -8 callsubr
          60 51 hstem
          309 -25 callsubr
          -88 hmoveto
          -100 callgsubr
          -512 -591 -97 callgsubr
          -53 callsubr
          -50 callsubr
          -67 callsubr
        </CharString>
        <CharString name="yen">
          -49 2 -21 218 64 261 87 hstemhm
          264 28 386 58 -25 25 hintmask 11110100
          353 263 rmoveto
          -129 hlineto
          262 222 171 77 65 hhcurveto
          19 10 -7 -10 hvcurveto
          hintmask 11111000
          -17 -33 -8 -23 17 callsubr
          17 -16 12 -30 -79 -176 -80 -262 -223 vhcurveto
          48 91 32 88 93 vvcurveto
          9 -1 12 0 vhcurveto
          -29 -12 rlineto
          1 -12 1 -13 -12 vvcurveto
          -89 -31 -85 -43 -76 vhcurveto
          -113 hlineto
          -12 -14 rlineto
          117 hlineto
          -7 -15 -8 -9 -7 -12 rrcurveto
          -104 hlineto
          -12 -14 rlineto
          106 hlineto
          -44 -66 -50 -59 -40 -47 -8 -9 -7 -9 -7 -8 -23 callgsubr
          12 18 11 18 12 17 35 52 33 50 30 49 rrcurveto
          0 1 1 1 vvcurveto
          150 hlineto
          10 14 rlineto
          -149 hlineto
          10 12 10 12 9 12 rrcurveto
          131 hlineto
          endchar
        </CharString>
        <CharString name="z">
          -3 callgsubr
          hstemhm
          hintmask 10000000
          156 40 rmoveto
          -2 -33 -29 -18 vvcurveto
          -8 7 -6 18 51 116 76 12 17 vhcurveto
          -2 15 rlineto
          -18 -26 -110 -72 -32 hhcurveto
          hintmask 00010000
          10 callgsubr
          hintmask 10000000
          -41 callsubr
          hintmask 01000000
          -13 callgsubr
          hintmask 00100000
          -65 callsubr
          hintmask 00010000
          -45 callsubr
        </CharString>
        <CharString name="zcaron">
          -3 callgsubr
          350 -20 hstemhm
          hintmask 10001000
          167 320 -75 callgsubr
          -22 -286 rmoveto
          -2 -33 -29 -18 vvcurveto
          -8 7 -6 18 51 116 76 12 17 vhcurveto
          -2 15 rlineto
          -18 -26 -110 -72 -32 hhcurveto
          hintmask 00011000
          10 callgsubr
          hintmask 10001000
          -41 callsubr
          hintmask 01001000
          -13 callgsubr
          hintmask 00101000
          -65 callsubr
          hintmask 00011000
          -45 callsubr
        </CharString>
        <CharString name="zero">
          96 -4 -21 269 227 -10 59 hstemhm
          26 28 354 114 -30 30 hintmask 10111000
          136 254 rmoveto
          107 71 102 100 73 hhcurveto
          18 8 -9 -13 -53 -127 -132 -142 hvcurveto
          139 266 rmoveto
          -101 -129 -135 -81 -27 13 -20 33 -9 hvcurveto
          -42 -67 -26 -70 -52 vvcurveto
          -50 24 -34 59 189 224 326 146 42 -19 28 -44 -33 -44 -20 -8 -5 9 -2 0 vhcurveto
          15 14 37 13 14 hhcurveto
          hintmask 11010100
          25 11 -18 -30 -129 -209 -346 -167 -44 -18 25 39 50 30 72 45 71 hvcurveto
          4 hlineto
          158 129 137 61 17 -11 12 -23 hvcurveto
          -102 -2 -111 -100 -72 -110 rrcurveto
          -24 9 -10 18 23 vvcurveto
          75 113 124 94 vhcurveto
          endchar
        </CharString>
      <CharString index="0">
        rmoveto
        40 24 39 24 40 21 -23 13 -25 11 -29 9 -23 -38 -14 -35 -5 -29 rrcurveto
        224 -77 rmoveto
        48 -28 45 -50 36 vhcurveto
        -45 -29 -48 -32 -53 -31 rrcurveto
        -67 10 50 -26 63 hhcurveto
        29 32 6 9 33 hvcurveto
        4 14 3 13 14 vvcurveto
        -736 19 rmoveto
        -15 5 -15 11 -12 vhcurveto
        101 50 110 77 128 102 rrcurveto
        -213 -3 -142 -106 -78 vvcurveto
        587 360 rmoveto
        hintmask 1001001111100000
        -98 callgsubr
        hintmask 1100011111010000
        -380 193 rmoveto
        -111 -92 -119 -89 -123 -59 rrcurveto
        -17 25 41 -11 61 hhcurveto
        116 111 62 65 109 hvcurveto
        2 42 11 40 18 40 -42 11 -47 6 -52 2 rrcurveto
        hintmask 1010101111010000
        -104 callgsubr
        hintmask 1100011111010000
        -104 callsubr
        hintmask 1010011111010000
        34 -28 28 -67 -158 -103 -125 -102 -72 50 -60 117 74 75 20 38 81 vhcurveto
        -14 15 -7 18 20 vvcurveto
        84 129 107 257 2 vhcurveto
        74 59 79 67 88 74 112 95 211 176 148 30 rrcurveto
        1 6 5 1 3 hhcurveto
        5 6 -4 -6 -5 -11 callsubr
        -162 -92 -262 -238 -113 -175 36 -10 32 -12 26 -14 rrcurveto
        32 64 65 22 65 hhcurveto
        79 34 -30 -42 -73 -105 -79 -111 -37 hvcurveto
        -32 -79 -93 -76 -147 -39 rrcurveto
        10 vlineto
        140 49 79 64 27 64 rrcurveto
        -9 -33 -33 -6 -30 hhcurveto
        -69 -55 26 68 -11 hvcurveto
        -54 -95 -112 -45 -141 hhcurveto
        -59 -43 13 21 -26 hvcurveto
        -38 -85 -87 -24 -89 -11 callgsubr
        65 77 110 114 134 185 82 33 -29 -37 -59 -85 -78 -97 -9 hvcurveto
        endchar
      </CharString>
      <CharString index="1">
        rmoveto
        -67 -295 -230 -272 -180 vhcurveto
        125 168 208 196 132 86 rrcurveto
        26 39 32 18 17 hhcurveto
        9 5 -5 -12 hvcurveto
        -246 -514 rmoveto
        -102 -178 -119 -126 -24 vhcurveto
        17 vlineto
        173 154 114 89 36 25 -19 -40 vhcurveto
        -909 246 rmoveto
        140 245 148 176 21 vhcurveto
        3 -12 2 -14 -13 vvcurveto
        -143 -166 -186 -192 -47 -21 23 36 vhcurveto
        483 -424 rmoveto
        45 31 65 50 71 vhcurveto
        290 190 325 253 73 vvcurveto
        19 -11 7 -17 -31 -50 -24 -15 -27 vhcurveto
        -172 -93 -247 -239 -111 -186 rrcurveto
        -107 -168 -147 -81 -45 hhcurveto
        -13 -16 4 24 hvcurveto
        hintmask 11110111
        30 160 458 218 246 vvcurveto
        83 -62 34 -84 -14 -15 -2 0 vhcurveto
        71 -26 -74 53 -132 hhcurveto
        -138 -231 -96 -117 -94 hvcurveto
        9 -6 rlineto
        114 90 236 94 118 hhcurveto
        134 68 -48 -66 21 hvcurveto
        -186 -24 -254 -152 -146 vvcurveto
        -42 26 -28 54 236 154 181 148 18 -3 19 -5 17 vhcurveto
        1 8 8 0 8 hhcurveto
        77 55 -31 -74 hvcurveto
        -161 -489 -269 -184 vvcurveto
        -55 27 -2 4 52 143 75 104 164 vhcurveto
        -26 -50 -16 -45 -35 vvcurveto
        -70 43 -28 59 12 12 1 2 13 vhcurveto
        -98 17 76 -44 88 hhcurveto
        72 79 30 54 61 hvcurveto
        -8 5 rlineto
        -51 -58 -73 -26 -67 hhcurveto
        -85 -74 43 90 -15 hvcurveto
        140 29 186 135 109 vvcurveto
        43 -31 20 -43 -101 -167 -109 -188 -8 0 -9 1 -8 vhcurveto
        -1 -10 -9 -1 -8 hhcurveto
        hintmask 11111011
        -48 -34 20 51 hvcurveto
        endchar
      </CharString>
      <CharString index="2">
        -112 -134 -125 -42 -77 hhcurveto
        -89 -45 35 50 -13 hvcurveto
        6 hlineto
        278 178 164 103 48 -38 35 -84 -223 -153 -176 -131 -10 1 -9 1 -9 hvcurveto
        -117 12 -51 59 73 vvcurveto
        122 146 160 219 31 vhcurveto
        return
      </CharString>
      <CharString index="3">
        -167 255 rmoveto
        5 -1 3 9 vvcurveto
        -105 callsubr
        return
      </CharString>
      <CharString index="4">
        rmoveto
        9 5 -5 -12 -66 -298 -216 -280 -176 hvcurveto
        254 215 199 221 150 hhcurveto
        -1112 -1061 rmoveto
        92 75 94 97 93 103 rrcurveto
        20 hlineto
        91 36 -24 -35 -82 -207 -140 -167 -20 -17 3 3 -15 hvcurveto
        -88 38 rmoveto
        2 -6 9 -14 21 -13 rrcurveto
        -92 -106 -96 -59 -76 hhcurveto
        -51 -22 15 25 95 327 233 286 45 hvcurveto
        -86 -93 -85 -87 -78 -70 rrcurveto
        -24 13 -12 14 0 vvcurveto
        -9 -6 rlineto
        9 749 rmoveto
        140 245 148 176 21 vhcurveto
        3 -12 2 -14 -13 vvcurveto
        -143 -166 -186 -192 -47 -21 23 36 vhcurveto
        366 -503 rmoveto
        77 86 77 91 75 88 rrcurveto
        301 186 333 242 72 vvcurveto
        19 -11 7 -17 -174 -257 -272 -288 -260 vhcurveto
        -100 -169 -145 -74 -43 hhcurveto
        -13 -16 4 24 hvcurveto
        return
      </CharString>
      <CharString index="5">
        rmoveto
        40 24 39 24 40 21 -23 13 -25 11 -29 9 -23 -38 -14 -35 -5 -29 rrcurveto
        224 -77 rmoveto
        48 -28 45 -50 36 vhcurveto
        -45 -29 -48 -32 -53 -31 rrcurveto
        -67 10 50 -26 63 hhcurveto
        29 32 6 9 33 hvcurveto
        4 14 3 13 14 vvcurveto
        -736 19 rmoveto
        -15 5 -15 11 -12 vhcurveto
        101 50 110 77 128 102 rrcurveto
        -213 -3 -142 -106 -78 vvcurveto
        587 360 rmoveto
        -98 callgsubr
        -380 193 rmoveto
        -111 -92 -119 -89 -123 -59 rrcurveto
        -17 25 41 -11 61 hhcurveto
        116 111 62 65 109 hvcurveto
        2 42 11 40 18 40 -42 11 -47 6 -52 2 rrcurveto
        -104 callgsubr
        -104 callsubr
        return
      </CharString>
      <CharString index="6">
        -74 callsubr
        hvcurveto
        0 -144 -122 -48 vvcurveto
        -18 11 -7 17 50 105 62 28 42 vhcurveto
        -2 15 rlineto
        -16 -27 -105 -71 -38 hhcurveto
        -9 -5 3 7 20 44 51 91 82 hvcurveto
        endchar
      </CharString>
      <CharString index="7">
        -7 6 -5 9 14 30 20 20 7 -5 4 -8 -19 -27 -26 -13 vhcurveto
        return
      </CharString>
      <CharString index="8">
        -59 callsubr
        73 46 86 62 99 hhcurveto
        -14 callgsubr
        -119 -242 rmoveto
        127 43 97 86 44 79 return
      </CharString>
      <CharString index="9">
        -101 callsubr
        175 -366 rmoveto
        -15 -2 -15 -5 -15 vhcurveto
        101 37 95 73 61 vvcurveto
        36 -31 27 -73 -54 -53 -24 -33 -56 vhcurveto
        53 -36 25 -47 -49 vvcurveto
        return
      </CharString>
      <CharString index="10">
        rmoveto
        76 165 82 174 84 vhcurveto
        -168 -165 -112 -100 -40 hhcurveto
        -21 -1 19 7 hvcurveto
        -14 -7 rmoveto
        -7 1 -26 28 77 175 166 157 157 vhcurveto
        67 32 64 33 53 33 19 12 29 17 16 10 -2 15 rcurveline
        -18 -12 -41 -24 -20 -12 -41 -26 -47 -24 -51 -26 79 79 72 74 50 46 rrcurveto
        3 2 0 3 1 vvcurveto
        5 -23 4 -6 -3 -2 -2 -3 -4 vhcurveto
        -6 -5 -20 -18 -23 -22 rrcurveto
        -56 -61 -101 -69 -42 hhcurveto
        -9 -4 2 3 hvcurveto
        20 120 68 47 vvcurveto
        return
      </CharString>
      <CharString index="11">
        rmoveto
        30 14 -12 -21 -82 -216 -204 -244 hvcurveto
        -19 hlineto
        168 132 183 151 7 callsubr
        -584 -91 rmoveto
        -19 -17 1 2 -17 hvcurveto
        156 28 157 177 186 hhcurveto
        return
      </CharString>
      <CharString index="12">
        rmoveto
        4 10 rlineto
        18 -30 -111 57 -10 2 callsubr
        -4 -5 -6 4 -9 12 -4 hvcurveto
        return
      </CharString>
      <CharString index="13">
        2 2 1 3 2 vvcurveto
        9 -11 1 -11 1 vhcurveto
        -6 -5 -4 0 return
      </CharString>
      <CharString index="14">
        -19 6 15 -12 23 hhcurveto
        16 20 6 15 23 hvcurveto
        46 29 -2 15 -49 -32 rlineto
        -10 -15 -14 -5 -11 hhcurveto
        -18 -11 12 21 hvcurveto
        8 vlineto
        23 26 14 26 20 vvcurveto
        return
      </CharString>
      <CharString index="15">
        rmoveto
        73 22 74 93 36 vvcurveto
        9 -4 5 -10 -20 -29 -19 -18 -7 4 -7 11 -6 vhcurveto
        -40 -54 -42 -53 -18 vhcurveto
        return
      </CharString>
      <CharString index="16">
        -37 callgsubr
        129 67 68 97 hvcurveto
        18 -27 9 -29 -29 vvcurveto
        -93 -92 -96 -195 -31 vhcurveto
        -11 vlineto
        224 34 98 98 96 vvcurveto
        36 -14 35 -26 32 vhcurveto
        return
      </CharString>
      <CharString index="17">
        -164 -35 -85 -77 -60 vvcurveto
        -45 48 -35 99 51 48 8 13 45 vhcurveto
        -13 27 35 -7 44 hhcurveto
        return
      </CharString>
      <CharString index="18">
        8 2 1 14 hhcurveto
        77 55 -31 -74 hvcurveto
        -161 -489 -269 -184 vvcurveto
        -55 27 -2 4 49 133 65 91 158 vhcurveto
        -61 -68 -61 -67 -60 -65 rrcurveto
        -350 -37 -287 -245 -107 vvcurveto
        -31 23 -19 52 105 112 58 90 114 vhcurveto
        -4 15 18 -2 22 hhcurveto
        189 227 147 89 38 -42 28 -107 hvcurveto
        -21 hlineto
        endchar
      </CharString>
      <CharString index="19">
        -186 -21 450 111 -111 203 -105 58 -12 235 -192 192 -11 132 -15 185 -20 20 131 -20 hstemhm
        0 26 249 34 142 43 281 28 151 39 252 26 hintmask 1100100101111111
        return
      </CharString>
      <CharString index="20">
        -8 7 -6 9 16 33 22 22 8 -6 5 -8 -21 -30 -29 -14 vhcurveto
        return
      </CharString>
      <CharString index="21">
        47 -31 33 -70 -117 -96 -71 -81 -48 vhcurveto
        -90 callgsubr
        return
      </CharString>
      <CharString index="22">
        rmoveto
        37 101 75 148 1 vhcurveto
        -80 -85 -73 -53 -56 hhcurveto
        -24 -11 8 12 hvcurveto
        995 656 rmoveto
        -33 -35 3 5 -38 hvcurveto
        59 84 83 37 80 hhcurveto
        36 15 -10 -13 -31 -83 -50 -109 hvcurveto
        -686 -537 rmoveto
        37 33 38 37 39 38 rrcurveto
        52 -26 27 -41 -45 vvcurveto
        -45 -20 -40 -32 -37 vhcurveto
        -3 66 -42 48 -96 12 rrcurveto
        -493 -581 rmoveto
        144 416 106 192 165 vhcurveto
        -185 -52 -323 -279 -171 hhcurveto
        -25 -37 10 39 hvcurveto
        610 1170 rmoveto
        87 75 -18 -17 84 hvcurveto
        return
      </CharString>
      <CharString index="23">
        rmoveto
        0 -54 -31 -12 -3 0 2 0 vhcurveto
        72 80 -20 93 16 15 rrcurveto
        4 4 3 5 4 vvcurveto
        2 -1 2 -2 1 vhcurveto
        1 -1 -1 0 -1 hhcurveto
        -5 -4 -6 0 hvcurveto
        -6 -16 -100 -69 -65 -42 3 -14 rcurveline
        34 20 97 66 0 vvcurveto
        -3 vlineto
        -56 -9 -41 -110 -66 hhcurveto
        -18 -18 17 11 3 2 3 3 2 hvcurveto
        0 16 7 11 vvcurveto
        13 -6 3 -9 -16 -12 -16 -19 -23 17 -25 47 35 53 15 41 75 vhcurveto
        27 15 27 16 22 14 -2 15 rcurveline
        -25 -17 -28 -18 -28 -16 rrcurveto
        endchar
      </CharString>
      <CharString index="24">
        -28 -31 32 -46 hhcurveto
        -35 -26 -18 -24 -19 hvcurveto
        5 -5 rlineto
        14 16 24 14 18 33 28 -37 41 hhcurveto
        32 20 17 21 12 hvcurveto
        return
      </CharString>
      <CharString index="25">
        rrcurveto
        hintmask 01111100
        25 -104 -107 39 -103 hhcurveto
        -72 -30 -23 -28 -44 75 -56 104 87 84 23 39 81 hvcurveto
        -8 38 39 -5 40 hhcurveto
        469 274 331 243 56 -15 51 -29 41 hvcurveto
        51 69 67 31 65 hhcurveto
        92 38 -40 -47 -51 -43 -59 -68 -27 hvcurveto
        2 -11 rlineto
        88 41 40 58 50 vvcurveto
        55 -49 44 -86 -77 -77 -30 -47 -76 vhcurveto
        53 -48 -77 34 -110 hhcurveto
        -22 -21 -1 -2 -21 hvcurveto
        73 -21 -66 30 -85 hhcurveto
        -140 -191 -81 -103 -120 hvcurveto
        13 -8 rlineto
        endchar
      </CharString>
      <CharString index="26">
        4 callgsubr
        250 -20 106 -20 hstemhm
        -160 34 143 20 4 38 439 224 -20 20 207 20 hintmask 1101111101100000
        return
      </CharString>
      <CharString index="27">
        -1 0 hvcurveto
        64 -20 -62 46 -119 hhcurveto
        -200 -190 -168 0 hvcurveto
        10 -9 rlineto
        0 193 162 179 109 55 -40 -57 17 vhcurveto
        return
      </CharString>
</ttFont>
